{
.appVersion = "3223";
.formatVersion = 3;
classes = (
{
automatic = 1;
code = "A Aacute Abreve Acircumflex Adieresis Agrave Amacron Aogonek Aring Atilde AE B C Cacute Ccaron Ccedilla Cdotaccent D Dcaron Dcroat Eth E Eacute Ecaron Ecircumflex Edieresis Edotaccent Egrave Emacron Eogonek F G Gbreve Gcommaaccent Gdotaccent H Hbar I IJ Iacute Icircumflex Idieresis Idotaccent Igrave Imacron Iogonek J K Kcommaaccent L Lacute Lcaron Lcommaaccent Lslash M N Nacute Ncaron Ncommaaccent Ntilde Eng O Oacute Ocircumflex Odieresis Ograve Ohungarumlaut Omacron Oslash Otilde OE P Thorn Q R Racute Rcaron Rcommaaccent S Sacute Scaron Scedilla Scommaaccent Germandbls T Tcaron Tcommaaccent U Uacute Ubreve Ucircumflex Udieresis Ugrave Uhungarumlaut Umacron Uogonek Uring V W Wacute Wcircumflex Wdieresis Wgrave X Y Yacute Ycircumflex Ydieresis Ygrave Z Zacute Zcaron Zdotaccent";
name = Uppercase;
}
);
customParameters = (
{
name = "Use Typo Metrics";
value = 1;
},
{
name = fsType;
value = (
);
}
);
date = "2023-10-04 13:28:27 +0000";
familyName = "Alike Angular";
featurePrefixes = (
{
automatic = 1;
code = "languagesystem DFLT dflt;

languagesystem latn dflt;
languagesystem latn AZE;
languagesystem latn CRT;
languagesystem latn KAZ;
languagesystem latn TAT;
languagesystem latn TRK;
languagesystem latn ROM;
languagesystem latn MOL;
languagesystem latn CAT;
";
name = Languagesystems;
}
);
features = (
{
automatic = 1;
code = "feature locl;
feature sups;
feature frac;
feature ordn;
feature case;
";
tag = aalt;
},
{
automatic = 1;
code = "lookup ccmp_Other_1 {
	@CombiningTopAccents = [acutecomb brevecomb caroncomb circumflexcomb commaturnedabovecomb dieresiscomb dotaccentcomb gravecomb hungarumlautcomb macroncomb ringcomb tildecomb];
	lookupflag UseMarkFilteringSet @CombiningTopAccents;
	sub i' @CombiningTopAccents by idotless;
	sub j' @CombiningTopAccents by jdotless;
} ccmp_Other_1;

lookup ccmp_Other_2 {

glyphs = (
{
glyphname = A;
kernLeft = _KERN_A;
kernRight = _KERN_A;
lastChange = "2023-11-01 10:35:51 +0000";
layers = (
{
associatedMasterId = "E5E5D42B-30DE-4833-8EB6-3A8EE8AFE06C";
layerId = "7A591EA4-4D9F-4E22-AD94-0C62A3908D71";
name = public.background;
shapes = (
{
closed = 1;
nodes = (
(435,240,l),
(509,50,l),
(485,40,o),
(459,34,o),
(429,30,c),
(425,18,o),
(425,7,o),
(427,-5,c),
(464,-3,o),
(534,0,o),
(572,0,cs),
(609,0,o),
(658,-3,o),
(694,-5,c),
(700,7,o),
(701,18,o),
(699,30,c),
(622,50,l),
(351,727,l),
(340,727,o),
(322,725,o),
(312,719,c),
(75,50,l),
(52,40,o),
(27,34,o),
(-2,30,c),
(-6,18,o),
(-6,7,o),
(-4,-5,c),
(33,-3,o),
(50,0,o),
(88,0,cs),
(125,0,o),
(174,-3,o),
(210,-5,c),
(216,7,o),
(217,18,o),
(215,30,c),
(138,50,l),
(203,240,l)
);
},
{
closed = 1;
nodes = (
(314,580,l),
(322,534,o),
(335,491,o),
(358,437,c),
(413,295,l),
(221,295,l),
(268,432,ls),
(285,482,o),
(298,532,o),
(312,580,c)
);
}
);
width = 684;
},
{
anchors = (
{
name = bottom;
pos = (342,0);
},
{
name = ogonek;
pos = (616,10);
},
{
name = top;
pos = (333,705);
}
);
background = {
anchors = (
{
name = bottom;
pos = (342,0);
},
{
name = ogonek;
pos = (616,10);
},
{
name = top;
pos = (333,705);
}
);
shapes = (
{
closed = 1;
nodes = (
(193,357,l),
(75,50,l),
(-3,30,l),
(-5,-10,l),
(87,0,l),
(209,-10,l),
(214,30,l),
(138,50,l),
(203,240,l),
(318,244,l),
(439,240,l),
(509,50,l),
(427,30,l),
(425,-10,l),
(577,0,l),
(699,-10,l),
(704,30,l),
(620,50,l),
(491,358,l),
(351,728,l),
(302,720,l),
(283,632,l)
);
},
{
closed = 1;
nodes = (
(314,597,l),
(355,455,l),
(419,295,l),
(318,291,l),
(221,295,l),
(312,597,l)
);
}
);
};
layerId = "E5E5D42B-30DE-4833-8EB6-3A8EE8AFE06C";
shapes = (
{
closed = 1;
nodes = (
(193,357,l),
(75,50,l),
(-3,30,l),
(-5,-10,l),
(87,0,l),
(209,-10,l),
(214,30,l),
(138,50,l),
(203,240,l),
(318,244,l),
(439,240,l),
(509,50,l),
(427,30,l),
(425,-10,l),
(577,0,l),
(699,-10,l),
(704,30,l),
(620,50,l),
(491,358,l),
(351,728,l),
(302,720,l),
(283,632,l)
);
},
{
closed = 1;
nodes = (
(314,597,l),
(355,455,l),
(419,295,l),
(318,291,l),
(221,295,l),
(312,597,l)
);
}
);
width = 684;
}
);
unicode = 65;
},
{
glyphname = Aacute;
kernLeft = _KERN_A;
kernRight = _KERN_A;
lastChange = "2023-11-01 10:35:51 +0000";
layers = (
{
associatedMasterId = "E5E5D42B-30DE-4833-8EB6-3A8EE8AFE06C";
layerId = "87ED26C6-198F-4E2A-A721-CDA726DB5344";
name = img;
width = 684;
},
{
background = {
anchors = (
{
name = bottom;
pos = (342,0);
},
{
name = ogonek;
pos = (616,10);
},
{
name = top;
pos = (333,705);
}
);
shapes = (
{
closed = 1;
nodes = (
(193,357,l),
(75,50,l),
(-3,30,l),
(-5,-10,l),
(87,0,l),
(209,-10,l),
(214,30,l),
(138,50,l),
(203,240,l),
(318,244,l),
(439,240,l),
(509,50,l),
(427,30,l),
(425,-10,l),
(577,0,l),
(699,-10,l),
(704,30,l),
(620,50,l),
(491,358,l),
(351,728,l),
(302,720,l),
(283,632,l)
);
},
{
closed = 1;
nodes = (
(314,597,l),
(355,455,l),
(419,295,l),
(318,291,l),
(221,295,l),
(312,597,l)
);
},
{
closed = 1;
nodes = (
(277,773,l),
(307,745,l),
(418,817,l),
(473,846,l),
(472,872,l),
(410,911,l)
);
}
);
};
layerId = "E5E5D42B-30DE-4833-8EB6-3A8EE8AFE06C";
shapes = (
{
ref = A;
},
{
pos = (249,-51);
ref = acutecomb.case;
}
);
width = 684;
}
);
unicode = 193;
},
{
glyphname = Acircumflex;
kernLeft = _KERN_A;
kernRight = _KERN_A;
lastChange = "2023-11-01 10:35:51 +0000";
layers = (
{
associatedMasterId = "E5E5D42B-30DE-4833-8EB6-3A8EE8AFE06C";
layerId = "87ED26C6-198F-4E2A-A721-CDA726DB5344";
name = img;
width = 684;
},
{
background = {
anchors = (
{
name = bottom;
pos = (342,0);
},
{
name = ogonek;
pos = (616,10);
},
{
name = top;
pos = (333,705);
}
);
shapes = (
{
closed = 1;
nodes = (
(193,357,l),
(75,50,l),
(-3,30,l),
(-5,-10,l),
(87,0,l),
(209,-10,l),
(214,30,l),
(138,50,l),
(203,240,l),
(318,244,l),
(439,240,l),
(509,50,l),
(427,30,l),
(425,-10,l),
(577,0,l),
(699,-10,l),
(704,30,l),
(620,50,l),
(491,358,l),
(351,728,l),
(302,720,l),
(283,632,l)
);
},
{
closed = 1;
nodes = (
(314,597,l),
(355,455,l),
(419,295,l),
(318,291,l),
(221,295,l),
(312,597,l)
);
},
{
closed = 1;
nodes = (
(499,781,l),
(414,872,l),
(377,926,l),
(314,926,l),
(287,882,l),
(189,781,l),
(192,765,l),
(221,757,l),
(341,857,l),
(396,804,l),
(461,757,l),
(487,767,l)
);
}
);
};
layerId = "E5E5D42B-30DE-4833-8EB6-3A8EE8AFE06C";
shapes = (
{
ref = A;
},
{
pos = (171,-51);
ref = circumflexcomb.case;
}
);
width = 684;
}
);
unicode = 194;
},
{
glyphname = Adieresis;
kernLeft = _KERN_A;
kernRight = _KERN_A;
lastChange = "2023-11-01 10:35:51 +0000";
layers = (
{
associatedMasterId = "E5E5D42B-30DE-4833-8EB6-3A8EE8AFE06C";
layerId = "87ED26C6-198F-4E2A-A721-CDA726DB5344";
name = img;
width = 684;
},
{
background = {
anchors = (
{
name = bottom;
pos = (342,0);
},
{
name = ogonek;
pos = (616,10);
},
{
name = top;
pos = (333,705);
}
);
shapes = (
{
closed = 1;
nodes = (
(193,357,l),
(75,50,l),
(-3,30,l),
(-5,-10,l),
(87,0,l),
(209,-10,l),
(214,30,l),
(138,50,l),
(203,240,l),
(318,244,l),
(439,240,l),
(509,50,l),
(427,30,l),
(425,-10,l),
(577,0,l),
(699,-10,l),
(704,30,l),
(620,50,l),
(491,358,l),
(351,728,l),
(302,720,l),
(283,632,l)
);
},
{
closed = 1;
nodes = (
(314,597,l),
(355,455,l),
(419,295,l),
(318,291,l),
(221,295,l),
(312,597,l)
);
},
{
closed = 1;
nodes = (
(171,841,l),
(191,798,l),
(234,772,l),
(279,790,l),
(306,832,l),
(285,884,l),
(238,899,l),
(194,878,l)
);
},
{
closed = 1;
nodes = (
(366,841,l),
(383,798,l),
(424,772,l),
(469,790,l),
(495,832,l),
(475,884,l),
(429,899,l),
(384,878,l)
);
}
);
};
layerId = "E5E5D42B-30DE-4833-8EB6-3A8EE8AFE06C";
shapes = (
{
ref = A;
},
{
pos = (154,-51);
ref = dieresiscomb.case;
}
);
width = 684;
}
);
unicode = 196;
},
{
glyphname = Agrave;
kernLeft = _KERN_A;
kernRight = _KERN_A;
lastChange = "2023-11-01 10:35:51 +0000";
layers = (
{
associatedMasterId = "E5E5D42B-30DE-4833-8EB6-3A8EE8AFE06C";
layerId = "87ED26C6-198F-4E2A-A721-CDA726DB5344";
name = img;
width = 684;
},
{
background = {
anchors = (
{
name = bottom;
pos = (342,0);
},
{
name = ogonek;
pos = (616,10);
},
{
name = top;
pos = (333,705);
}
);
shapes = (
{
closed = 1;
nodes = (
(193,357,l),
(75,50,l),
(-3,30,l),
(-5,-10,l),
(87,0,l),
(209,-10,l),
(214,30,l),
(138,50,l),
(203,240,l),
(318,244,l),
(439,240,l),
(509,50,l),
(427,30,l),
(425,-10,l),
(577,0,l),
(699,-10,l),
(704,30,l),
(620,50,l),
(491,358,l),
(351,728,l),
(302,720,l),
(283,632,l)
);
},
{
closed = 1;
nodes = (
(314,597,l),
(355,455,l),
(419,295,l),
(318,291,l),
(221,295,l),
(312,597,l)
);
},
{
closed = 1;
nodes = (
(271,911,l),
(209,872,l),
(208,846,l),
(263,817,l),
(374,745,l),
(404,773,l)
);
}
);
};
layerId = "E5E5D42B-30DE-4833-8EB6-3A8EE8AFE06C";
shapes = (
{
ref = A;
},
{
pos = (182,-51);
ref = gravecomb.case;
}
);
width = 684;
}
);
unicode = 192;
},
{
glyphname = Amacron;
lastChange = "2023-11-01 10:35:51 +0000";
layers = (
{
background = {
anchors = (
{
name = bottom;
pos = (342,0);
},
{
name = ogonek;
pos = (616,10);
},
{
name = top;
pos = (333,839);
}
);
shapes = (
{
closed = 1;
nodes = (
(193,357,l),
(75,50,l),
(-3,30,l),
(-5,-10,l),
(87,0,l),
(209,-10,l),
(214,30,l),
(138,50,l),
(203,240,l),
(318,244,l),
(439,240,l),
(509,50,l),
(427,30,l),
(425,-10,l),
(577,0,l),
(699,-10,l),
(704,30,l),
(620,50,l),
(491,358,l),
(351,728,l),
(302,720,l),
(283,632,l)
);
},
{
closed = 1;
nodes = (
(314,597,l),
(355,455,l),
(419,295,l),
(318,291,l),
(221,295,l),
(312,597,l)
);
},
{
closed = 1;
nodes = (
(491,815,l),
(500,879,l),
(419,869,l),
(182,861,l),
(173,797,l),
(255,808,l)
);
}
);
};
layerId = "E5E5D42B-30DE-4833-8EB6-3A8EE8AFE06C";
shapes = (
{
ref = A;
},
{
pos = (68,200);
ref = macroncomb;
}
);
width = 684;
}
);
unicode = 256;
},
{
glyphname = Aring;
kernLeft = _KERN_A;
kernRight = _KERN_A;
lastChange = "2023-11-01 10:35:51 +0000";
layers = (
{
associatedMasterId = "E5E5D42B-30DE-4833-8EB6-3A8EE8AFE06C";
layerId = "87ED26C6-198F-4E2A-A721-CDA726DB5344";
name = img;
width = 684;
},
{
background = {
anchors = (
{
name = bottom;
pos = (342,0);
},
{
name = ogonek;
pos = (616,10);
},
{
name = top;
pos = (333,705);
}
);
shapes = (
{
closed = 1;
nodes = (
(193,357,l),
(75,50,l),
(-3,30,l),
(-5,-10,l),
(87,0,l),
(209,-10,l),
(214,30,l),
(138,50,l),
(203,240,l),
(318,244,l),
(439,240,l),
(509,50,l),
(427,30,l),
(425,-10,l),
(577,0,l),
(699,-10,l),
(704,30,l),
(620,50,l),
(491,358,l),
(351,728,l),
(302,720,l),
(283,632,l)
);
},
{
closed = 1;
nodes = (
(314,597,l),
(355,455,l),
(419,295,l),
(318,291,l),
(221,295,l),
(312,597,l)
);
},
{
closed = 1;
nodes = (
(286,863,l),
(300,891,l),
(337,904,l),
(368,892,l),
(381,857,l),
(367,827,l),
(330,815,l),
(298,830,l)
);
},
{
closed = 1;
nodes = (
(227,865,l),
(257,792,l),
(326,756,l),
(399,783,l),
(439,843,l),
(413,928,l),
(340,958,l),
(266,936,l)
);
}
);
};
layerId = "E5E5D42B-30DE-4833-8EB6-3A8EE8AFE06C";
shapes = (
{
ref = A;
},
{
pos = (203,200);
ref = ringcomb;
}
);
width = 684;
}
);
unicode = 197;
},
{
glyphname = Atilde;
kernLeft = _KERN_A;
kernRight = _KERN_A;
lastChange = "2023-11-01 10:35:51 +0000";
layers = (
{
associatedMasterId = "E5E5D42B-30DE-4833-8EB6-3A8EE8AFE06C";
layerId = "87ED26C6-198F-4E2A-A721-CDA726DB5344";
name = img;
width = 684;
},
{
background = {
anchors = (
{
name = bottom;
pos = (342,0);
},
{
name = ogonek;
pos = (616,10);
},
{
name = top;
pos = (333,705);
}
);
shapes = (
{
closed = 1;
nodes = (
(193,357,l),
(75,50,l),
(-3,30,l),
(-5,-10,l),
(87,0,l),
(209,-10,l),
(214,30,l),
(138,50,l),
(203,240,l),
(318,244,l),
(439,240,l),
(509,50,l),
(427,30,l),
(425,-10,l),
(577,0,l),
(699,-10,l),
(704,30,l),
(620,50,l),
(491,358,l),
(351,728,l),
(302,720,l),
(283,632,l)
);
},
{
closed = 1;
nodes = (
(314,597,l),
(355,455,l),
(419,295,l),
(318,291,l),
(221,295,l),
(312,597,l)
);
},
{
closed = 1;
nodes = (
(272,822,l),
(311,823,l),
(392,787,l),
(440,786,l),
(486,815,l),
(507,871,l),
(478,881,l),
(449,853,l),
(412,853,l),
(330,892,l),
(270,890,l),
(207,816,l),
(232,793,l)
);
}
);
};
layerId = "E5E5D42B-30DE-4833-8EB6-3A8EE8AFE06C";
shapes = (
{
ref = A;
},
{
pos = (184,-51);
ref = tildecomb.case;
}
);
width = 684;
}
);
unicode = 195;
},
{
glyphname = AE;
kernRight = _KERN_E_1ST;
lastChange = "2023-11-01 10:35:51 +0000";
layers = (
{
associatedMasterId = "E5E5D42B-30DE-4833-8EB6-3A8EE8AFE06C";
layerId = "7A591EA4-4D9F-4E22-AD94-0C62A3908D71";
name = public.background;
shapes = (
{
closed = 1;
nodes = (
(687,330,l),
(706,241,l),
(718,238,o),
(734,238,o),
(746,243,c),
(743,275,o),
(742,318,o),
(742,361,cs),
(742,400,o),
(743,439,o),
(746,468,c),
(734,477,o),
(718,477,o),
(706,473,c),
(687,385,l),
(521,385,l),
(521,655,l),
(758,655,l),
(784,522,l),
(800,520,o),
(807,520,o),
(820,525,c),
(830,582,o),
(832,641,o),
(831,700,c),
(374,700,l),
(82,50,l),
(59,40,o),
(34,34,o),
(5,30,c),
(1,18,o),
(1,7,o),
(3,-5,c),
(40,-3,o),
(57,0,o),
(95,0,cs),
(132,0,o),
(181,-3,o),
(217,-5,c),
(223,7,o),
(224,18,o),
(222,30,c),
(145,50,l),
(229,240,l),
(209,240,l),
(209,295,l),
(253,295,l),
(412,655,l),
(416,655,l),
(416,295,l),
(497,295,l),
(497,240,l),
(416,240,l),
(416,50,l),
(391,40,o),
(365,35,o),
(340,30,c),
(336,18,o),
(336,7,o),
(338,-5,c),
(375,-3,o),
(433,0,o),
(471,0,cs),
(859,0,l),
(859,10,o),
(859,21,o),
(859,31,cs),
(859,79,o),
(857,127,o),
(847,175,c),
(834,180,o),
(828,180,o),
(812,178,c),
(788,45,l),
(521,45,l),
(521,330,l)
);
},
{
closed = 1;
nodes = (
(253,295,l),
(416,295,l),
(416,240,l),
(229,240,l)
);
}
);
width = 884;
},
{
anchors = (
{
name = bottom;
pos = (442,0);
},
{
name = top;
pos = (442,705);
}
);
background = {
anchors = (
{
name = bottom;
pos = (442,0);
},
{
name = top;
pos = (442,705);
}
);
shapes = (
{
closed = 1;
nodes = (
(689,340,l),
(708,241,l),
(748,235,l),
(738,356,l),
(748,470,l),
(708,483,l),
(689,388,l),
(514,380,l),
(522,663,l),
(759,655,l),
(785,522,l),
(821,530,l),
(823,661,l),
(832,710,l),
(735,700,l),
(375,700,l),
(73,50,l),
(-7,30,l),
(-9,-5,l),
(83,0,l),
(215,-5,l),
(220,30,l),
(143,50,l),
(228,240,l),
(372,248,l),
(423,244,l),
(417,50,l),
(337,25,l),
(335,-10,l),
(472,0,l),
(746,0,l),
(867,-10,l),
(860,45,l),
(856,169,l),
(821,178,l),
(791,45,l),
(522,38,l),
(514,330,l)
);
},
{
closed = 1;
nodes = (
(248,295,l),
(416,655,l),
(423,650,l),
(420,558,l),
(427,357,l),
(425,292,l),
(365,290,l)
);
}
);
};
guides = (
{
pos = (0,655);
}
);
layerId = "E5E5D42B-30DE-4833-8EB6-3A8EE8AFE06C";
shapes = (
{
closed = 1;
nodes = (
(689,340,l),
(708,241,l),
(748,235,l),
(738,356,l),
(748,470,l),
(708,483,l),
(689,388,l),
(514,380,l),
(522,663,l),
(759,655,l),
(785,522,l),
(821,530,l),
(823,661,l),
(832,710,l),
(735,700,l),
(375,700,l),
(73,50,l),
(-7,30,l),
(-9,-5,l),
(83,0,l),
(215,-5,l),
(220,30,l),
(143,50,l),
(228,240,l),
(372,248,l),
(423,244,l),
(417,50,l),
(337,25,l),
(335,-10,l),
(472,0,l),
(746,0,l),
(867,-10,l),
(860,45,l),
(856,169,l),
(821,178,l),
(791,45,l),
(522,38,l),
(514,330,l)
);
},
{
closed = 1;
nodes = (
(248,295,l),
(416,655,l),
(423,650,l),
(420,558,l),
(427,357,l),
(425,292,l),
(365,290,l)
);
}
);
width = 884;
}
);
unicode = 198;
},
{
glyphname = B;
kernLeft = _KERN_I_2ND;
lastChange = "2023-11-01 10:35:51 +0000";
layers = (
{
associatedMasterId = "E5E5D42B-30DE-4833-8EB6-3A8EE8AFE06C";
layerId = "7A591EA4-4D9F-4E22-AD94-0C62A3908D71";
name = public.background;
shapes = (
{
closed = 1;
nodes = (
(325,-5,l),
(462,-5,o),
(593,39,o),
(593,190,cs),
(593,317,o),
(501,361,o),
(395,373,c),
(395,375,l),
(480,389,o),
(550,451,o),
(550,540,cs),
(550,648,o),
(464,702,o),
(301,701,cs),
(167,700,ls),
(130,700,o),
(81,703,o),
(45,705,c),
(39,693,o),
(38,682,o),
(40,670,c),
(117,650,l),
(117,50,l),
(89,40,o),
(63,34,o),
(37,30,c),
(33,18,o),
(33,7,o),
(35,-5,c),
(72,-3,o),
(134,0,o),
(172,0,c)
);
},
{
closed = 1;
nodes = (
(222,45,l),
(222,342,l),
(293,342,ls),
(434,342,o),
(481,297,o),
(481,191,cs),
(481,96,o),
(440,40,o),
(313,40,c)
);
},
{
closed = 1;
nodes = (
(222,392,l),
(222,652,l),
(240,653,o),
(257,654,o),
(272,654,cs),
(412,654,o),
(443,606,o),
(443,536,cs),
(443,448,o),
(406,392,o),
(280,392,cs)
);
}
);
width = 636;
},
{
anchors = (
{
name = bottom;
pos = (318,0);
},
{
name = center;
pos = (318,353);
},
{
name = top;
pos = (318,705);
}
);
background = {
anchors = (
{
name = bottom;
pos = (318,0);
},
{
name = center;
pos = (318,353);
},
{
name = top;
pos = (318,705);
}
);
shapes = (
{
closed = 1;
nodes = (
(408,55,l),
(337,40,l),
(222,45,l),
(212,342,l),
(332,342,l),
(402,331,l),
(470,283,l),
(484,135,l)
);
},
{
closed = 1;
nodes = (
(212,387,l),
(219,652,l),
(336,655,l),
(396,639,l),
(447,556,l),
(436,447,l),
(332,392,l)
);
},
{
closed = 1;
nodes = (
(167,700,l),
(40,709,l),
(35,674,l),
(117,650,l),
(127,357,l),
(117,50,l),
(37,25,l),
(35,-10,l),
(172,0,l),
(333,-5,l),
(456,13,l),
(556,71,l),
(594,204,l),
(575,276,l),
(501,352,l),
(399,374,l),
(399,376,l),
(493,415,l),
(547,496,l),
(547,590,l),
(453,685,l),
(337,700,l)
);
}
);
};
layerId = "E5E5D42B-30DE-4833-8EB6-3A8EE8AFE06C";
shapes = (
{
closed = 1;
nodes = (
(408,55,l),
(337,40,l),
(222,45,l),
(212,342,l),
(332,342,l),
(402,331,l),
(470,283,l),
(484,135,l)
);
},
{
closed = 1;
nodes = (
(212,387,l),
(219,652,l),
(336,655,l),
(396,639,l),
(447,556,l),
(436,447,l),
(332,392,l)
);
},
{
closed = 1;
nodes = (
(167,700,l),
(40,709,l),
(35,674,l),
(117,650,l),
(127,357,l),
(117,50,l),
(37,25,l),
(35,-10,l),
(172,0,l),
(333,-5,l),
(456,13,l),
(556,71,l),
(594,204,l),
(575,276,l),
(501,352,l),
(399,374,l),
(399,376,l),
(493,415,l),
(547,496,l),
(547,590,l),
(453,685,l),
(337,700,l)
);
}
);
width = 636;
}
);
unicode = 66;
},
{
glyphname = C;
kernLeft = _KERN_O_2ND;
kernRight = _KERN_C_1ST;
lastChange = "2023-11-01 10:35:51 +0000";
layers = (
{
associatedMasterId = "E5E5D42B-30DE-4833-8EB6-3A8EE8AFE06C";
layerId = "7A591EA4-4D9F-4E22-AD94-0C62A3908D71";
name = public.background;
shapes = (
{
closed = 1;
nodes = (
(541,66,o),
(481,33,o),
(398,33,cs),
(241,33,o),
(160,162,o),
(160,350,cs),
(160,528,o),
(263,667,o),
(404,667,cs),
(452,667,o),
(489,663,o),
(533,645,c),
(544,516,l),
(557,510,o),
(575,509,o),
(588,511,c),
(607,562,o),
(622,614,o),
(619,675,c),
(566,704,o),
(494,720,o),
(397,720,cs),
(232,720,o),
(44,603,o),
(44,350,cs),
(44,95,o),
(209,-20,o),
(387,-20,cs),
(475,-20,o),
(553,15,o),
(615,76,c),
(614,91,o),
(609,104,o),
(592,109,c)
);
},
{
closed = 1;
nodes = (
(533,641,l),
(559,508,l),
(595,511,l),
(591,627,l),
(606,696,l),
(509,686,l)
);
}
);
width = 646;
},
{
anchors = (
{
name = bottom;
pos = (378,0);
},
{
name = top;
pos = (383,705);
}
);
background = {
anchors = (
{
name = bottom;
pos = (378,0);
},
{
name = top;
pos = (383,705);
}
);
shapes = (
{
closed = 1;
nodes = (
(591,103,l),
(498,47,l),
(335,33,l),
(231,115,l),
(173,222,l),
(159,374,l),
(192,538,l),
(342,666,l),
(462,666,l),
(536,647,l),
(559,507,l),
(597,510,l),
(611,631,l),
(629,682,l),
(476,721,l),
(364,721,l),
(227,683,l),
(98,561,l),
(44,430,l),
(44,328,l),
(64,199,l),
(135,70,l),
(324,-20,l),
(514,2,l),
(614,70,l)
);
}
);
};
layerId = "E5E5D42B-30DE-4833-8EB6-3A8EE8AFE06C";
shapes = (
{
closed = 1;
nodes = (
(591,103,l),
(498,47,l),
(335,33,l),
(231,115,l),
(173,222,l),
(159,374,l),
(192,538,l),
(342,666,l),
(462,666,l),
(536,647,l),
(559,507,l),
(597,510,l),
(611,631,l),
(629,682,l),
(476,721,l),
(364,721,l),
(227,683,l),
(98,561,l),
(44,430,l),
(44,328,l),
(64,199,l),
(135,70,l),
(324,-20,l),
(514,2,l),
(614,70,l)
);
}
);
width = 646;
}
);
unicode = 67;
},
{
glyphname = Cacute;
lastChange = "2023-11-01 10:35:51 +0000";
layers = (
{
background = {
anchors = (
{
name = bottom;
pos = (378,0);
},
{
name = top;
pos = (383,705);
}
);
shapes = (
{
closed = 1;
nodes = (
(591,103,l),
(498,47,l),
(335,33,l),
(231,115,l),
(173,222,l),
(159,374,l),
(192,538,l),
(342,666,l),
(462,666,l),
(536,647,l),
(559,507,l),
(597,510,l),
(611,631,l),
(629,682,l),
(476,721,l),
(364,721,l),
(227,683,l),
(98,561,l),
(44,430,l),
(44,328,l),
(64,199,l),
(135,70,l),
(324,-20,l),
(514,2,l),
(614,70,l)
);
},
{
closed = 1;
nodes = (
(327,773,l),
(357,745,l),
(468,817,l),
(523,846,l),
(522,872,l),
(460,911,l)
);
}
);
};
layerId = "E5E5D42B-30DE-4833-8EB6-3A8EE8AFE06C";
shapes = (
{
ref = C;
},
{
pos = (299,-51);
ref = acutecomb.case;
}
);
width = 646;
}
);
unicode = 262;
},
{
glyphname = Ccaron;
lastChange = "2023-11-01 10:35:51 +0000";
layers = (
{
background = {
anchors = (
{
name = bottom;
pos = (378,0);
},
{
name = top;
pos = (383,705);
}
);
shapes = (
{
closed = 1;
nodes = (
(591,103,l),
(498,47,l),
(335,33,l),
(231,115,l),
(173,222,l),
(159,374,l),
(192,538,l),
(342,666,l),
(462,666,l),
(536,647,l),
(559,507,l),
(597,510,l),
(611,631,l),
(629,682,l),
(476,721,l),
(364,721,l),
(227,683,l),
(98,561,l),
(44,430,l),
(44,328,l),
(64,199,l),
(135,70,l),
(324,-20,l),
(514,2,l),
(614,70,l)
);
},
{
closed = 1;
nodes = (
(521,915,l),
(495,925,l),
(440,878,l),
(379,820,l),
(255,925,l),
(226,917,l),
(223,901,l),
(321,800,l),
(348,756,l),
(411,756,l),
(448,810,l),
(533,901,l)
);
}
);
};
layerId = "E5E5D42B-30DE-4833-8EB6-3A8EE8AFE06C";
shapes = (
{
ref = C;
},
{
pos = (212,-50);
ref = caroncomb.case;
}
);
width = 646;
}
);
unicode = 268;
},
{
glyphname = Ccedilla;
kernLeft = _KERN_O_2ND;
kernRight = _KERN_C_1ST;
lastChange = "2023-11-01 10:35:51 +0000";
layers = (
{
associatedMasterId = "E5E5D42B-30DE-4833-8EB6-3A8EE8AFE06C";
layerId = "87ED26C6-198F-4E2A-A721-CDA726DB5344";
name = img;
width = 646;
},
{
background = {
anchors = (
{
name = bottom;
pos = (378,0);
},
{
name = top;
pos = (383,705);
}
);
shapes = (
{
closed = 1;
nodes = (
(591,103,l),
(498,47,l),
(335,33,l),
(231,115,l),
(173,222,l),
(159,374,l),
(192,538,l),
(342,666,l),
(462,666,l),
(536,647,l),
(559,507,l),
(597,510,l),
(611,631,l),
(629,682,l),
(476,721,l),
(364,721,l),
(227,683,l),
(98,561,l),
(44,430,l),
(44,328,l),
(64,199,l),
(135,70,l),
(324,-20,l),
(514,2,l),
(614,70,l)
);
},
{
closed = 1;
nodes = (
(372,-36,l),
(365,13,l),
(329,18,l),
(331,-85,l),
(390,-94,l),
(421,-123,l),
(414,-171,l),
(358,-194,l),
(287,-181,l),
(272,-210,l),
(344,-223,l),
(435,-211,l),
(485,-149,l),
(487,-92,l),
(441,-44,l)
);
}
);
};
layerId = "E5E5D42B-30DE-4833-8EB6-3A8EE8AFE06C";
shapes = (
{
ref = C;
},
{
pos = (249,11);
ref = cedillacomb;
}
);
width = 646;
}
);
unicode = 199;
},
{
glyphname = D;
kernLeft = _KERN_I_2ND;
kernRight = _KERN_D_1ST;
lastChange = "2023-11-01 10:35:51 +0000";
layers = (
{
associatedMasterId = "E5E5D42B-30DE-4833-8EB6-3A8EE8AFE06C";
layerId = "7A591EA4-4D9F-4E22-AD94-0C62A3908D71";
name = public.background;
shapes = (
{
closed = 1;
nodes = (
(297,-7,l),
(499,-7,o),
(692,85,o),
(692,360,cs),
(692,558,o),
(581,704,o),
(297,704,c),
(167,700,l),
(130,700,o),
(81,703,o),
(45,705,c),
(39,693,o),
(38,682,o),
(40,670,c),
(117,650,l),
(117,50,l),
(91,40,o),
(65,34,o),
(37,30,c),
(33,18,o),
(33,7,o),
(35,-5,c),
(72,-3,o),
(134,0,o),
(172,0,c)
);
},
{
closed = 1;
nodes = (
(222,655,l),
(240,656,o),
(257,657,o),
(273,657,cs),
(500,657,o),
(581,552,o),
(581,360,cs),
(581,144,o),
(504,42,o),
(288,42,cs),
(267,42,o),
(245,43,o),
(222,45,c)
);
}
);
width = 739;
},
{
anchors = (
{
name = bottom;
pos = (370,0);
},
{
name = center;
pos = (370,353);
},
{
name = top;
pos = (370,705);
}
);
background = {
anchors = (
{
name = bottom;
pos = (370,0);
},
{
name = center;
pos = (370,353);
},
{
name = top;
pos = (370,705);
}
);
shapes = (
{
closed = 1;
nodes = (
(347,-8,l),
(472,15,l),
(640,126,l),
(693,350,l),
(682,473,l),
(622,596,l),
(467,682,l),
(347,709,l),
(167,700,l),
(45,705,l),
(40,670,l),
(117,650,l),
(127,332,l),
(117,50,l),
(37,30,l),
(35,-5,l),
(172,0,l)
);
},
{
closed = 1;
nodes = (
(222,45,l),
(213,531,l),
(222,655,l),
(349,655,l),
(465,623,l),
(560,522,l),
(579,350,l),
(548,157,l),
(467,79,l),
(348,45,l)
);
}
);
};
layerId = "E5E5D42B-30DE-4833-8EB6-3A8EE8AFE06C";
shapes = (
{
closed = 1;
nodes = (
(347,-8,l),
(472,15,l),
(640,126,l),
(693,350,l),
(682,473,l),
(622,596,l),
(467,682,l),
(347,709,l),
(167,700,l),
(45,705,l),
(40,670,l),
(117,650,l),
(127,332,l),
(117,50,l),
(37,30,l),
(35,-5,l),
(172,0,l)
);
},
{
closed = 1;
nodes = (
(222,45,l),
(213,531,l),
(222,655,l),
(349,655,l),
(465,623,l),
(560,522,l),
(579,350,l),
(548,157,l),
(467,79,l),
(348,45,l)
);
}
);
width = 739;
}
);
unicode = 68;
},
{
glyphname = Dcaron;
lastChange = "2023-11-01 10:35:51 +0000";
layers = (
{
background = {
anchors = (
{
name = bottom;
pos = (370,0);
},
{
name = center;
pos = (370,353);
},
{
name = top;
pos = (370,705);
}
);
shapes = (
{
closed = 1;
nodes = (
(347,-8,l),
(472,15,l),
(640,126,l),
(693,350,l),
(682,473,l),
(622,596,l),
(467,682,l),
(347,709,l),
(167,700,l),
(45,705,l),
(40,670,l),
(117,650,l),
(127,332,l),
(117,50,l),
(37,30,l),
(35,-5,l),
(172,0,l)
);
},
{
closed = 1;
nodes = (
(222,45,l),
(213,531,l),
(222,655,l),
(349,655,l),
(465,623,l),
(560,522,l),
(579,350,l),
(548,157,l),
(467,79,l),
(348,45,l)
);
},
{
closed = 1;
nodes = (
(508,915,l),
(482,925,l),
(427,878,l),
(366,820,l),
(242,925,l),
(213,917,l),
(210,901,l),
(308,800,l),
(335,756,l),
(398,756,l),
(435,810,l),
(520,901,l)
);
}
);
};
layerId = "E5E5D42B-30DE-4833-8EB6-3A8EE8AFE06C";
shapes = (
{
ref = D;
},
{
pos = (199,-50);
ref = caroncomb.case;
}
);
width = 739;
}
);
unicode = 270;
},
{
glyphname = Dcroat;
lastChange = "2023-11-01 10:35:51 +0000";
layers = (
{
background = {
shapes = (
{
closed = 1;
nodes = (
(347,-8,l),
(472,15,l),
(640,126,l),
(693,350,l),
(682,473,l),
(622,596,l),
(467,682,l),
(347,709,l),
(167,700,l),
(45,705,l),
(40,670,l),
(117,650,l),
(125,393,l),
(43,395,l),
(32,340,l),
(126,343,l),
(127,332,l),
(117,50,l),
(37,30,l),
(35,-5,l),
(172,0,l)
);
},
{
closed = 1;
nodes = (
(222,45,l),
(216,346,l),
(234,347,l),
(395,340,l),
(406,395,l),
(215,391,l),
(213,531,l),
(222,655,l),
(349,655,l),
(465,623,l),
(560,522,l),
(579,350,l),
(548,157,l),
(467,79,l),
(348,45,l)
);
}
);
};
layerId = "E5E5D42B-30DE-4833-8EB6-3A8EE8AFE06C";
shapes = (
{
ref = Eth;
}
);
width = 740;
}
);
unicode = 272;
},
{
glyphname = Eth;
kernLeft = _KERN_I_2ND;
kernRight = _KERN_D_1ST;
lastChange = "2023-11-01 10:35:51 +0000";
layers = (
{
associatedMasterId = "E5E5D42B-30DE-4833-8EB6-3A8EE8AFE06C";
layerId = "7A591EA4-4D9F-4E22-AD94-0C62A3908D71";
name = public.background;
shapes = (
{
closed = 1;
nodes = (
(400,340,l),
(407,351,o),
(411,377,o),
(411,395,c),
(48,395,l),
(41,387,o),
(35,354,o),
(37,340,c)
);
},
{
closed = 1;
nodes = (
(347,-8,l),
(472,25,l),
(560,60,l),
(631,146,l),
(682,242,l),
(693,350,l),
(682,473,l),
(632,566,l),
(566,633,l),
(467,682,l),
(347,709,l),
(167,700,l),
(45,705,l),
(40,670,l),
(117,650,l),
(127,332,l),
(117,50,l),
(37,30,l),
(35,-5,l),
(172,0,l)
);
},
{
closed = 1;
nodes = (
(222,45,l),
(213,531,l),
(222,655,l),
(349,655,l),
(449,623,l),
(517,558,l),
(565,479,l),
(577,350,l),
(560,214,l),
(517,137,l),
(447,79,l),
(348,45,l)
);
}
);
width = 740;
},
{
background = {
shapes = (
{
closed = 1;
nodes = (
(347,-8,l),
(472,15,l),
(640,126,l),
(693,350,l),
(682,473,l),
(622,596,l),
(467,682,l),
(347,709,l),
(167,700,l),
(45,705,l),
(40,670,l),
(117,650,l),
(125,393,l),
(43,395,l),
(32,340,l),
(126,343,l),
(127,332,l),
(117,50,l),
(37,30,l),
(35,-5,l),
(172,0,l)
);
},
{
closed = 1;
nodes = (
(222,45,l),
(216,346,l),
(234,347,l),
(395,340,l),
(406,395,l),
(215,391,l),
(213,531,l),
(222,655,l),
(349,655,l),
(465,623,l),
(560,522,l),
(579,350,l),
(548,157,l),
(467,79,l),
(348,45,l)
);
}
);
};
layerId = "E5E5D42B-30DE-4833-8EB6-3A8EE8AFE06C";
shapes = (
{
closed = 1;
nodes = (
(347,-8,l),
(472,15,l),
(640,126,l),
(693,350,l),
(682,473,l),
(622,596,l),
(467,682,l),
(347,709,l),
(167,700,l),
(45,705,l),
(40,670,l),
(117,650,l),
(125,393,l),
(43,395,l),
(32,340,l),
(126,343,l),
(127,332,l),
(117,50,l),
(37,30,l),
(35,-5,l),
(172,0,l)
);
},
{
closed = 1;
nodes = (
(222,45,l),
(216,346,l),
(234,347,l),
(395,340,l),
(406,395,l),
(215,391,l),
(213,531,l),
(222,655,l),
(349,655,l),
(465,623,l),
(560,522,l),
(579,350,l),
(548,157,l),
(467,79,l),
(348,45,l)
);
}
);
width = 740;
}
);
unicode = 208;
},
{
glyphname = E;
kernLeft = _KERN_I_2ND;
kernRight = _KERN_E_1ST;
lastChange = "2023-11-01 10:35:51 +0000";
layers = (
{
associatedMasterId = "E5E5D42B-30DE-4833-8EB6-3A8EE8AFE06C";
layerId = "7A591EA4-4D9F-4E22-AD94-0C62A3908D71";
name = public.background;
shapes = (
{
closed = 1;
nodes = (
(408,330,l),
(427,241,l),
(439,238,o),
(455,238,o),
(467,243,c),
(464,275,o),
(463,318,o),
(463,361,cs),
(463,400,o),
(464,439,o),
(467,468,c),
(455,477,o),
(439,477,o),
(427,473,c),
(408,385,l),
(222,385,l),
(222,655,l),
(479,655,l),
(505,522,l),
(521,520,o),
(528,520,o),
(541,525,c),
(551,582,o),
(553,641,o),
(552,700,c),
(167,700,ls),
(130,700,o),
(81,703,o),
(45,705,c),
(39,693,o),
(38,682,o),
(40,670,c),
(117,650,l),
(117,50,l),
(92,40,o),
(66,35,o),
(41,30,c),
(37,18,o),
(37,7,o),
(39,-5,c),
(76,-3,o),
(134,0,o),
(172,0,cs),
(580,0,l),
(580,10,o),
(580,21,o),
(580,31,cs),
(580,79,o),
(578,127,o),
(568,175,c),
(555,180,o),
(549,180,o),
(533,178,c),
(512,45,l),
(222,45,l),
(222,330,l)
);
}
);
width = 625;
},
{
anchors = (
{
name = bottom;
pos = (313,0);
},
{
name = ogonek;
pos = (563,10);
},
{
name = top;
pos = (322,705);
},
{
name = topleft;
pos = (20,705);
}
);
background = {
anchors = (
{
name = bottom;
pos = (313,0);
},
{
name = ogonek;
pos = (563,10);
},
{
name = top;
pos = (322,705);
},
{
name = topleft;
pos = (20,705);
}
);
shapes = (
{
closed = 1;
nodes = (
(409,340,l),
(428,241,l),
(468,235,l),
(458,356,l),
(468,470,l),
(428,483,l),
(409,388,l),
(214,382,l),
(222,663,l),
(479,655,l),
(505,522,l),
(541,530,l),
(543,661,l),
(552,710,l),
(455,700,l),
(167,700,l),
(41,709,l),
(36,674,l),
(117,650,l),
(127,357,l),
(117,50,l),
(37,25,l),
(35,-10,l),
(172,0,l),
(466,0,l),
(587,-10,l),
(580,45,l),
(576,169,l),
(541,178,l),
(511,45,l),
(222,38,l),
(214,330,l)
);
}
);
};
guides = (
{
pos = (0,385);
},
{
pos = (0,330);
},
{
angle = 90;
pos = (373,0);
}
);
layerId = "E5E5D42B-30DE-4833-8EB6-3A8EE8AFE06C";
shapes = (
{
closed = 1;
nodes = (
(409,340,l),
(428,241,l),
(468,235,l),
(458,356,l),
(468,470,l),
(428,483,l),
(409,388,l),
(214,382,l),
(222,663,l),
(479,655,l),
(505,522,l),
(541,530,l),
(543,661,l),
(552,710,l),
(455,700,l),
(167,700,l),
(41,709,l),
(36,674,l),
(117,650,l),
(127,357,l),
(117,50,l),
(37,25,l),
(35,-10,l),
(172,0,l),
(466,0,l),
(587,-10,l),
(580,45,l),
(576,169,l),
(541,178,l),
(511,45,l),
(222,38,l),
(214,330,l)
);
}
);
width = 625;
}
);
unicode = 69;
},
{
glyphname = Eacute;
kernLeft = _KERN_I_2ND;
kernRight = _KERN_E_1ST;
lastChange = "2023-11-01 10:35:51 +0000";
layers = (
{
associatedMasterId = "E5E5D42B-30DE-4833-8EB6-3A8EE8AFE06C";
layerId = "87ED26C6-198F-4E2A-A721-CDA726DB5344";
name = img;
width = 625;
},
{
background = {
anchors = (
{
name = bottom;
pos = (313,0);
},
{
name = ogonek;
pos = (563,10);
},
{
name = top;
pos = (322,705);
},
{
name = topleft;
pos = (20,705);
}
);
shapes = (
{
closed = 1;
nodes = (
(409,340,l),
(428,241,l),
(468,235,l),
(458,356,l),
(468,470,l),
(428,483,l),
(409,388,l),
(214,382,l),
(222,663,l),
(479,655,l),
(505,522,l),
(541,530,l),
(543,661,l),
(552,710,l),
(455,700,l),
(167,700,l),
(41,709,l),
(36,674,l),
(117,650,l),
(127,357,l),
(117,50,l),
(37,25,l),
(35,-10,l),
(172,0,l),
(466,0,l),
(587,-10,l),
(580,45,l),
(576,169,l),
(541,178,l),
(511,45,l),
(222,38,l),
(214,330,l)
);
},
{
closed = 1;
nodes = (
(266,773,l),
(296,745,l),
(407,817,l),
(462,846,l),
(461,872,l),
(399,911,l)
);
}
);
};
layerId = "E5E5D42B-30DE-4833-8EB6-3A8EE8AFE06C";
shapes = (
{
ref = E;
},
{
pos = (238,-51);
ref = acutecomb.case;
}
);
width = 625;
}
);
unicode = 201;
},
{
glyphname = Ecaron;
lastChange = "2023-11-01 10:35:51 +0000";
layers = (
{
background = {
anchors = (
{
name = bottom;
pos = (313,0);
},
{
name = ogonek;
pos = (563,10);
},
{
name = top;
pos = (322,705);
},
{
name = topleft;
pos = (20,705);
}
);
shapes = (
{
closed = 1;
nodes = (
(409,340,l),
(428,241,l),
(468,235,l),
(458,356,l),
(468,470,l),
(428,483,l),
(409,388,l),
(214,382,l),
(222,663,l),
(479,655,l),
(505,522,l),
(541,530,l),
(543,661,l),
(552,710,l),
(455,700,l),
(167,700,l),
(41,709,l),
(36,674,l),
(117,650,l),
(127,357,l),
(117,50,l),
(37,25,l),
(35,-10,l),
(172,0,l),
(466,0,l),
(587,-10,l),
(580,45,l),
(576,169,l),
(541,178,l),
(511,45,l),
(222,38,l),
(214,330,l)
);
},
{
closed = 1;
nodes = (
(460,915,l),
(434,925,l),
(379,878,l),
(318,820,l),
(194,925,l),
(165,917,l),
(162,901,l),
(260,800,l),
(287,756,l),
(350,756,l),
(387,810,l),
(472,901,l)
);
}
);
};
layerId = "E5E5D42B-30DE-4833-8EB6-3A8EE8AFE06C";
shapes = (
{
ref = E;
},
{
pos = (151,-50);
ref = caroncomb.case;
}
);
width = 625;
}
);
unicode = 282;
},
{
glyphname = Ecircumflex;
kernLeft = _KERN_I_2ND;
kernRight = _KERN_E_1ST;
lastChange = "2023-11-01 10:35:51 +0000";
layers = (
{
associatedMasterId = "E5E5D42B-30DE-4833-8EB6-3A8EE8AFE06C";
layerId = "87ED26C6-198F-4E2A-A721-CDA726DB5344";
name = img;
width = 625;
},
{
background = {
anchors = (
{
name = bottom;
pos = (313,0);
},
{
name = ogonek;
pos = (563,10);
},
{
name = top;
pos = (322,705);
},
{
name = topleft;
pos = (20,705);
}
);
shapes = (
{
closed = 1;
nodes = (
(409,340,l),
(428,241,l),
(468,235,l),
(458,356,l),
(468,470,l),
(428,483,l),
(409,388,l),
(214,382,l),
(222,663,l),
(479,655,l),
(505,522,l),
(541,530,l),
(543,661,l),
(552,710,l),
(455,700,l),
(167,700,l),
(41,709,l),
(36,674,l),
(117,650,l),
(127,357,l),
(117,50,l),
(37,25,l),
(35,-10,l),
(172,0,l),
(466,0,l),
(587,-10,l),
(580,45,l),
(576,169,l),
(541,178,l),
(511,45,l),
(222,38,l),
(214,330,l)
);
},
{
closed = 1;
nodes = (
(488,781,l),
(403,872,l),
(366,926,l),
(303,926,l),
(276,882,l),
(178,781,l),
(181,765,l),
(210,757,l),
(330,857,l),
(385,804,l),
(450,757,l),
(476,767,l)
);
}
);
};
layerId = "E5E5D42B-30DE-4833-8EB6-3A8EE8AFE06C";
shapes = (
{
ref = E;
},
{
pos = (160,-51);
ref = circumflexcomb.case;
}
);
width = 625;
}
);
unicode = 202;
},
{
glyphname = Edieresis;
kernLeft = _KERN_I_2ND;
kernRight = _KERN_E_1ST;
lastChange = "2023-11-01 10:35:51 +0000";
layers = (
{
associatedMasterId = "E5E5D42B-30DE-4833-8EB6-3A8EE8AFE06C";
layerId = "87ED26C6-198F-4E2A-A721-CDA726DB5344";
name = img;
width = 625;
},
{
background = {
anchors = (
{
name = bottom;
pos = (313,0);
},
{
name = ogonek;
pos = (563,10);
},
{
name = top;
pos = (322,705);
},
{
name = topleft;
pos = (20,705);
}
);
shapes = (
{
closed = 1;
nodes = (
(409,340,l),
(428,241,l),
(468,235,l),
(458,356,l),
(468,470,l),
(428,483,l),
(409,388,l),
(214,382,l),
(222,663,l),
(479,655,l),
(505,522,l),
(541,530,l),
(543,661,l),
(552,710,l),
(455,700,l),
(167,700,l),
(41,709,l),
(36,674,l),
(117,650,l),
(127,357,l),
(117,50,l),
(37,25,l),
(35,-10,l),
(172,0,l),
(466,0,l),
(587,-10,l),
(580,45,l),
(576,169,l),
(541,178,l),
(511,45,l),
(222,38,l),
(214,330,l)
);
},
{
closed = 1;
nodes = (
(160,841,l),
(180,798,l),
(223,772,l),
(268,790,l),
(295,832,l),
(274,884,l),
(227,899,l),
(183,878,l)
);
},
{
closed = 1;
nodes = (
(355,841,l),
(372,798,l),
(413,772,l),
(458,790,l),
(484,832,l),
(464,884,l),
(418,899,l),
(373,878,l)
);
}
);
};
layerId = "E5E5D42B-30DE-4833-8EB6-3A8EE8AFE06C";
shapes = (
{
ref = E;
},
{
pos = (143,-51);
ref = dieresiscomb.case;
}
);
width = 625;
}
);
unicode = 203;
},
{
glyphname = Egrave;
kernLeft = _KERN_I_2ND;
kernRight = _KERN_E_1ST;
lastChange = "2023-11-01 10:35:51 +0000";
layers = (
{
associatedMasterId = "E5E5D42B-30DE-4833-8EB6-3A8EE8AFE06C";
layerId = "87ED26C6-198F-4E2A-A721-CDA726DB5344";
name = img;
width = 625;
},
{
background = {
anchors = (
{
name = bottom;
pos = (313,0);
},
{
name = ogonek;
pos = (563,10);
},
{
name = top;
pos = (322,705);
},
{
name = topleft;
pos = (20,705);
}
);
shapes = (
{
closed = 1;
nodes = (
(409,340,l),
(428,241,l),
(468,235,l),
(458,356,l),
(468,470,l),
(428,483,l),
(409,388,l),
(214,382,l),
(222,663,l),
(479,655,l),
(505,522,l),
(541,530,l),
(543,661,l),
(552,710,l),
(455,700,l),
(167,700,l),
(41,709,l),
(36,674,l),
(117,650,l),
(127,357,l),
(117,50,l),
(37,25,l),
(35,-10,l),
(172,0,l),
(466,0,l),
(587,-10,l),
(580,45,l),
(576,169,l),
(541,178,l),
(511,45,l),
(222,38,l),
(214,330,l)
);
},
{
closed = 1;
nodes = (
(260,911,l),
(198,872,l),
(197,846,l),
(252,817,l),
(363,745,l),
(393,773,l)
);
}
);
};
layerId = "E5E5D42B-30DE-4833-8EB6-3A8EE8AFE06C";
shapes = (
{
ref = E;
},
{
pos = (171,-51);
ref = gravecomb.case;
}
);
width = 625;
}
);
unicode = 200;
},
{
glyphname = Emacron;
lastChange = "2023-11-01 10:35:51 +0000";
layers = (
{
background = {
anchors = (
{
name = bottom;
pos = (313,0);
},
{
name = ogonek;
pos = (563,10);
},
{
name = top;
pos = (322,839);
},
{
name = topleft;
pos = (20,705);
}
);
shapes = (
{
closed = 1;
nodes = (
(409,340,l),
(428,241,l),
(468,235,l),
(458,356,l),
(468,470,l),
(428,483,l),
(409,388,l),
(214,382,l),
(222,663,l),
(479,655,l),
(505,522,l),
(541,530,l),
(543,661,l),
(552,710,l),
(455,700,l),
(167,700,l),
(41,709,l),
(36,674,l),
(117,650,l),
(127,357,l),
(117,50,l),
(37,25,l),
(35,-10,l),
(172,0,l),
(466,0,l),
(587,-10,l),
(580,45,l),
(576,169,l),
(541,178,l),
(511,45,l),
(222,38,l),
(214,330,l)
);
},
{
closed = 1;
nodes = (
(480,815,l),
(489,879,l),
(408,869,l),
(171,861,l),
(162,797,l),
(244,808,l)
);
}
);
};
layerId = "E5E5D42B-30DE-4833-8EB6-3A8EE8AFE06C";
shapes = (
{
ref = E;
},
{
pos = (57,200);
ref = macroncomb;
}
);
width = 625;
}
);
unicode = 274;
},
{
glyphname = F;
kernLeft = _KERN_I_2ND;
lastChange = "2023-11-01 10:35:51 +0000";
layers = (
{
associatedMasterId = "E5E5D42B-30DE-4833-8EB6-3A8EE8AFE06C";
layerId = "7A591EA4-4D9F-4E22-AD94-0C62A3908D71";
name = public.background;
shapes = (
{
closed = 1;
nodes = (
(222,340,l),
(379,340,l),
(398,251,l),
(410,248,o),
(426,248,o),
(438,253,c),
(435,285,o),
(434,328,o),
(434,371,cs),
(434,410,o),
(435,449,o),
(438,478,c),
(426,487,o),
(410,487,o),
(398,483,c),
(379,395,l),
(222,395,l),
(222,655,l),
(470,655,l),
(495,522,l),
(511,520,o),
(518,520,o),
(531,525,c),
(538,569,o),
(543,614,o),
(543,661,cs),
(543,674,o),
(543,687,o),
(542,700,c),
(167,700,ls),
(130,700,o),
(81,703,o),
(45,705,c),
(39,693,o),
(38,682,o),
(40,670,c),
(117,650,l),
(117,50,l),
(92,37,o),
(71,35,o),
(49,30,c),
(45,18,o),
(45,7,o),
(47,-5,c),
(84,-3,o),
(129,0,o),
(167,0,cs),
(204,0,o),
(276,-3,o),
(312,-5,c),
(318,7,o),
(319,18,o),
(317,30,c),
(222,49,l)
);
},
{
closed = 1;
nodes = (
(212,340,l),
(407,350,l)
);
},
{
closed = 1;
nodes = (
(407,398,l),
(212,392,l)
);
}
);
width = 561;
},
{
anchors = (
{
name = bottom;
pos = (281,0);
},
{
name = top;
pos = (281,705);
}
);
background = {
anchors = (
{
name = bottom;
pos = (281,0);
},
{
name = top;
pos = (281,705);
}
);
shapes = (
{
closed = 1;
nodes = (
(446,700,l),
(167,700,l),
(41,709,l),
(36,674,l),
(117,650,l),
(127,357,l),
(117,50,l),
(37,25,l),
(35,-10,l),
(167,0,l),
(310,-5,l),
(315,30,l),
(222,49,l),
(212,340,l),
(380,350,l),
(399,251,l),
(439,243,l),
(429,364,l),
(439,478,l),
(399,493,l),
(379,397,l),
(212,392,l),
(222,663,l),
(470,655,l),
(496,522,l),
(532,530,l),
(533,661,l),
(543,710,l)
);
}
);
};
layerId = "E5E5D42B-30DE-4833-8EB6-3A8EE8AFE06C";
shapes = (
{
closed = 1;
nodes = (
(446,700,l),
(167,700,l),
(41,709,l),
(36,674,l),
(117,650,l),
(127,357,l),
(117,50,l),
(37,25,l),
(35,-10,l),
(167,0,l),
(310,-5,l),
(315,30,l),
(222,49,l),
(212,340,l),
(380,350,l),
(399,251,l),
(439,243,l),
(429,364,l),
(439,478,l),
(399,493,l),
(379,397,l),
(212,392,l),
(222,663,l),
(470,655,l),
(496,522,l),
(532,530,l),
(533,661,l),
(543,710,l)
);
}
);
width = 561;
}
);
unicode = 70;
},
{
glyphname = G;
kernLeft = _KERN_O_2ND;
lastChange = "2023-11-01 10:35:51 +0000";
layers = (
{
associatedMasterId = "E5E5D42B-30DE-4833-8EB6-3A8EE8AFE06C";
layerId = "7A591EA4-4D9F-4E22-AD94-0C62A3908D71";
name = public.background;
shapes = (
{
closed = 1;
nodes = (
(620,250,l),
(646,263,o),
(671,267,o),
(697,270,c),
(697,274,o),
(698,277,o),
(698,281,cs),
(698,289,o),
(696,297,o),
(692,305,c),
(656,303,o),
(606,300,o),
(569,300,cs),
(532,300,o),
(479,303,o),
(443,305,c),
(439,297,o),
(437,289,o),
(437,281,cs),
(437,277,o),
(437,274,o),
(438,270,c),
(515,250,l),
(515,58,l),
(474,41,o),
(443,33,o),
(397,33,cs),
(240,33,o),
(160,166,o),
(160,350,cs),
(160,523,o),
(254,668,o),
(417,668,cs),
(455,668,o),
(502,659,o),
(544,643,c),
(555,507,l),
(564,503,o),
(575,501,o),
(586,501,cs),
(590,501,o),
(595,501,o),
(599,502,c),
(617,560,o),
(630,618,o),
(630,677,c),
(564,709,o),
(493,720,o),
(424,720,cs),
(203,720,o),
(44,583,o),
(44,350,cs),
(44,100,o),
(202,-20,o),
(378,-20,cs),
(459,-20,o),
(544,5,o),
(620,49,c)
);
}
);
width = 716;
},
{
anchors = (
{
name = bottom;
pos = (358,0);
},
{
name = top;
pos = (358,705);
}
);
background = {
anchors = (
{
name = bottom;
pos = (358,0);
},
{
name = top;
pos = (358,705);
}
);
shapes = (
{
closed = 1;
nodes = (
(498,47,l),
(335,33,l),
(231,115,l),
(173,222,l),
(159,374,l),
(192,538,l),
(342,666,l),
(462,666,l),
(536,647,l),
(559,507,l),
(597,510,l),
(611,631,l),
(629,682,l),
(476,721,l),
(364,721,l),
(227,683,l),
(98,561,l),
(44,430,l),
(44,328,l),
(64,199,l),
(135,70,l),
(324,-20,l),
(514,2,l),
(613,42,l),
(620,250,l),
(697,270,l),
(692,310,l),
(569,300,l),
(443,310,l),
(438,270,l),
(515,250,l),
(521,60,l)
);
}
);
};
layerId = "E5E5D42B-30DE-4833-8EB6-3A8EE8AFE06C";
shapes = (
{
closed = 1;
nodes = (
(498,47,l),
(335,33,l),
(231,115,l),
(173,222,l),
(159,374,l),
(192,538,l),
(342,666,l),
(462,666,l),
(536,647,l),
(559,507,l),
(597,510,l),
(611,631,l),
(629,682,l),
(476,721,l),
(364,721,l),
(227,683,l),
(98,561,l),
(44,430,l),
(44,328,l),
(64,199,l),
(135,70,l),
(324,-20,l),
(514,2,l),
(613,42,l),
(620,250,l),
(697,270,l),
(692,310,l),
(569,300,l),
(443,310,l),
(438,270,l),
(515,250,l),
(521,60,l)
);
}
);
width = 716;
}
);
unicode = 71;
},
{
glyphname = H;
kernLeft = _KERN_I_2ND;
kernRight = _KERN_I_1ST;
lastChange = "2023-11-01 10:35:51 +0000";
layers = (
{
associatedMasterId = "E5E5D42B-30DE-4833-8EB6-3A8EE8AFE06C";
layerId = "7A591EA4-4D9F-4E22-AD94-0C62A3908D71";
name = public.background;
shapes = (
{
closed = 1;
nodes = (
(662,650,l),
(689,660,o),
(715,665,o),
(742,670,c),
(746,682,o),
(746,693,o),
(744,705,c),
(707,703,o),
(645,700,o),
(607,700,cs),
(570,700,o),
(521,703,o),
(485,705,c),
(479,693,o),
(478,682,o),
(480,670,c),
(557,650,l),
(557,395,l),
(222,395,l),
(222,650,l),
(249,660,o),
(275,665,o),
(302,670,c),
(306,682,o),
(306,693,o),
(304,705,c),
(267,703,o),
(205,700,o),
(167,700,cs),
(130,700,o),
(81,703,o),
(45,705,c),
(39,693,o),
(38,682,o),
(40,670,c),
(117,650,l),
(117,50,l),
(92,40,o),
(65,35,o),
(37,30,c),
(33,18,o),
(33,7,o),
(35,-5,c),
(72,-3,o),
(134,0,o),
(172,0,cs),
(209,0,o),
(258,-3,o),
(294,-5,c),
(300,7,o),
(301,18,o),
(299,30,c),
(222,50,l),
(222,340,l),
(557,340,l),
(557,50,l),
(531,40,o),
(505,34,o),
(477,30,c),
(473,18,o),
(473,7,o),
(475,-5,c),
(512,-3,o),
(574,0,o),
(612,0,cs),
(649,0,o),
(698,-3,o),
(734,-5,c),
(740,7,o),
(741,18,o),
(739,30,c),
(662,50,l)
);
},
{
closed = 1;
nodes = (
(140,49,l),
(41,30,l),
(35,-10,l),
(156,0,l),
(286,-10,l),
(299,30,l),
(188,49,l)
);
}
);
width = 779;
},
{
anchors = (
{
name = bottom;
pos = (390,0);
},
{
name = center;
pos = (390,353);
},
{
name = top;
pos = (390,705);
},
{
name = topleft;
pos = (20,705);
}
);
background = {
anchors = (
{
name = bottom;
pos = (390,0);
},
{
name = center;
pos = (390,353);
},
{
name = top;
pos = (390,705);
},
{
name = topleft;
pos = (20,705);
}
);
shapes = (
{
closed = 1;
nodes = (
(651,366,l),
(661,650,l),
(741,670,l),
(743,710,l),
(606,700,l),
(484,710,l),
(479,670,l),
(556,650,l),
(566,395,l),
(394,392,l),
(211,395,l),
(221,650,l),
(301,670,l),
(303,710,l),
(166,700,l),
(44,710,l),
(39,670,l),
(116,650,l),
(126,366,l),
(120,49,l),
(41,30,l),
(35,-7,l),
(171,0,l),
(288,-7,l),
(298,30,l),
(218,49,l),
(211,340,l),
(394,345,l),
(566,340,l),
(556,50,l),
(476,30,l),
(474,-5,l),
(611,0,l),
(733,-5,l),
(738,30,l),
(661,50,l)
);
}
);
};
layerId = "E5E5D42B-30DE-4833-8EB6-3A8EE8AFE06C";
shapes = (
{
closed = 1;
nodes = (
(651,366,l),
(661,650,l),
(741,670,l),
(743,710,l),
(606,700,l),
(484,710,l),
(479,670,l),
(556,650,l),
(566,395,l),
(394,392,l),
(211,395,l),
(221,650,l),
(301,670,l),
(303,710,l),
(166,700,l),
(44,710,l),
(39,670,l),
(116,650,l),
(126,366,l),
(120,49,l),
(41,30,l),
(35,-7,l),
(171,0,l),
(288,-7,l),
(298,30,l),
(218,49,l),
(211,340,l),
(394,345,l),
(566,340,l),
(556,50,l),
(476,30,l),
(474,-5,l),
(611,0,l),
(733,-5,l),
(738,30,l),
(661,50,l)
);
}
);
width = 779;
}
);
unicode = 72;
},
{
glyphname = Hbar;
kernLeft = _KERN_I_2ND;
kernRight = _KERN_I_1ST;
lastChange = "2023-11-01 10:35:51 +0000";
layers = (
{
anchors = (
{
name = bottom;
pos = (390,0);
},
{
name = center;
pos = (390,353);
},
{
name = top;
pos = (390,705);
},
{
name = topleft;
pos = (20,705);
}
);
background = {
anchors = (
{
name = bottom;
pos = (390,0);
},
{
name = center;
pos = (390,353);
},
{
name = top;
pos = (390,705);
},
{
name = topleft;
pos = (20,705);
}
);
shapes = (
{
closed = 1;
nodes = (
(171,0,l),
(288,-7,l),
(298,30,l),
(218,49,l),
(211,340,l),
(394,345,l),
(566,340,l),
(556,50,l),
(476,30,l),
(474,-5,l),
(611,0,l),
(733,-5,l),
(738,30,l),
(661,50,l),
(651,366,l),
(661,650,l),
(741,670,l),
(743,710,l),
(606,700,l),
(484,710,l),
(479,670,l),
(556,650,l),
(566,395,l),
(394,392,l),
(211,395,l),
(221,650,l),
(301,670,l),
(303,710,l),
(166,700,l),
(44,710,l),
(39,670,l),
(116,650,l),
(126,366,l),
(120,49,l),
(41,30,l),
(35,-7,l)
);
},
{
closed = 1;
nodes = (
(87,519,l),
(761,526,l),
(770,583,l),
(689,573,l),
(13,565,l),
(4,508,l)
);
}
);
};
layerId = "E5E5D42B-30DE-4833-8EB6-3A8EE8AFE06C";
shapes = (
{
closed = 1;
nodes = (
(171,0,l),
(288,-7,l),
(298,30,l),
(218,49,l),
(211,340,l),
(394,345,l),
(566,340,l),
(556,50,l),
(476,30,l),
(474,-5,l),
(611,0,l),
(733,-5,l),
(738,30,l),
(661,50,l),
(651,366,l),
(661,650,l),
(741,670,l),
(743,710,l),
(606,700,l),
(484,710,l),
(479,670,l),
(556,650,l),
(566,395,l),
(394,392,l),
(211,395,l),
(221,650,l),
(301,670,l),
(303,710,l),
(166,700,l),
(44,710,l),
(39,670,l),
(116,650,l),
(126,366,l),
(120,49,l),
(41,30,l),
(35,-7,l)
);
},
{
closed = 1;
nodes = (
(87,519,l),
(761,526,l),
(770,583,l),
(689,573,l),
(13,565,l),
(4,508,l)
);
}
);
width = 779;
}
);
unicode = 294;
},
{
glyphname = I;
kernLeft = _KERN_I_2ND;
kernRight = _KERN_I_1ST;
lastChange = "2023-11-01 10:35:51 +0000";
layers = (
{
associatedMasterId = "E5E5D42B-30DE-4833-8EB6-3A8EE8AFE06C";
layerId = "7A591EA4-4D9F-4E22-AD94-0C62A3908D71";
name = public.background;
shapes = (
{
closed = 1;
nodes = (
(222,650,l),
(249,660,o),
(275,665,o),
(302,670,c),
(306,682,o),
(306,693,o),
(304,705,c),
(267,703,o),
(205,700,o),
(167,700,cs),
(130,700,o),
(81,703,o),
(45,705,c),
(39,693,o),
(38,682,o),
(40,670,c),
(117,650,l),
(117,50,l),
(92,38,o),
(65,34,o),
(37,30,c),
(33,18,o),
(33,7,o),
(35,-5,c),
(72,-3,o),
(134,0,o),
(172,0,cs),
(209,0,o),
(258,-3,o),
(294,-5,c),
(300,7,o),
(301,18,o),
(299,30,c),
(222,50,l)
);
}
);
width = 339;
},
{
anchors = (
{
name = bottom;
pos = (170,0);
},
{
name = ogonek;
pos = (295,10);
},
{
name = top;
pos = (169,706);
},
{
name = topleft;
pos = (20,705);
}
);
background = {
anchors = (
{
name = bottom;
pos = (170,0);
},
{
name = ogonek;
pos = (305,10);
},
{
name = top;
pos = (169,706);
},
{
name = topleft;
pos = (20,705);
}
);
shapes = (
{
closed = 1;
nodes = (
(215,362,l),
(219,563,l),
(226,650,l),
(302,670,l),
(304,710,l),
(167,700,l),
(45,710,l),
(40,670,l),
(113,650,l),
(120,561,l),
(123,364,l),
(119,158,l),
(112,50,l),
(37,30,l),
(35,-10,l),
(172,0,l),
(294,-10,l),
(299,30,l),
(226,50,l),
(220,141,l)
);
}
);
};
layerId = "E5E5D42B-30DE-4833-8EB6-3A8EE8AFE06C";
shapes = (
{
closed = 1;
nodes = (
(215,362,l),
(219,563,l),
(226,650,l),
(302,670,l),
(304,710,l),
(167,700,l),
(45,710,l),
(40,670,l),
(113,650,l),
(120,561,l),
(123,364,l),
(119,158,l),
(112,50,l),
(37,30,l),
(35,-10,l),
(172,0,l),
(294,-10,l),
(299,30,l),
(226,50,l),
(220,141,l)
);
}
);
width = 339;
}
);
unicode = 73;
},
{
glyphname = IJ;
lastChange = "2023-11-01 10:35:51 +0000";
layers = (
{
background = {
anchors = (
{
name = bottom;
pos = (501,0);
},
{
name = ogonek;
pos = (305,10);
},
{
name = top;
pos = (501,705);
},
{
name = topleft;
pos = (20,705);
}
);
shapes = (
{
closed = 1;
nodes = (
(215,362,l),
(219,563,l),
(226,650,l),
(302,670,l),
(304,710,l),
(167,700,l),
(45,710,l),
(40,670,l),
(113,650,l),
(120,561,l),
(123,364,l),
(119,158,l),
(112,50,l),
(37,30,l),
(35,-10,l),
(172,0,l),
(294,-10,l),
(299,30,l),
(226,50,l),
(220,141,l)
);
},
{
closed = 1;
nodes = (
(454,108,l),
(432,-3,l),
(330,-81,l),
(350,-106,l),
(457,-50,l),
(519,9,l),
(555,109,l),
(548,398,l),
(555,650,l),
(635,670,l),
(637,710,l),
(500,700,l),
(378,710,l),
(373,670,l),
(450,650,l),
(456,538,l)
);
}
);
};
layerId = "E5E5D42B-30DE-4833-8EB6-3A8EE8AFE06C";
shapes = (
{
ref = I;
},
{
pos = (339,0);
ref = J;
}
);
width = 663;
}
);
unicode = 306;
},
{
glyphname = Iacute;
kernLeft = _KERN_I_2ND;
kernRight = _KERN_I_1ST;
lastChange = "2023-11-01 10:35:51 +0000";
layers = (
{
associatedMasterId = "E5E5D42B-30DE-4833-8EB6-3A8EE8AFE06C";
layerId = "87ED26C6-198F-4E2A-A721-CDA726DB5344";
name = img;
width = 339;
},
{
background = {
anchors = (
{
name = bottom;
pos = (170,0);
},
{
name = ogonek;
pos = (305,10);
},
{
name = top;
pos = (169,706);
},
{
name = topleft;
pos = (20,705);
}
);
shapes = (
{
closed = 1;
nodes = (
(215,362,l),
(219,563,l),
(226,650,l),
(302,670,l),
(304,710,l),
(167,700,l),
(45,710,l),
(40,670,l),
(113,650,l),
(120,561,l),
(123,364,l),
(119,158,l),
(112,50,l),
(37,30,l),
(35,-10,l),
(172,0,l),
(294,-10,l),
(299,30,l),
(226,50,l),
(220,141,l)
);
},
{
closed = 1;
nodes = (
(113,774,l),
(143,746,l),
(254,818,l),
(309,847,l),
(308,873,l),
(246,912,l)
);
}
);
};
layerId = "E5E5D42B-30DE-4833-8EB6-3A8EE8AFE06C";
shapes = (
{
ref = I;
},
{
pos = (85,-50);
ref = acutecomb.case;
}
);
width = 339;
}
);
unicode = 205;
},
{
glyphname = Icircumflex;
kernLeft = _KERN_I_2ND;
kernRight = _KERN_I_1ST;
lastChange = "2023-11-01 10:35:51 +0000";
layers = (
{
associatedMasterId = "E5E5D42B-30DE-4833-8EB6-3A8EE8AFE06C";
layerId = "87ED26C6-198F-4E2A-A721-CDA726DB5344";
name = img;
width = 339;
},
{
background = {
anchors = (
{
name = bottom;
pos = (170,0);
},
{
name = ogonek;
pos = (305,10);
},
{
name = top;
pos = (169,706);
},
{
name = topleft;
pos = (20,705);
}
);
shapes = (
{
closed = 1;
nodes = (
(215,362,l),
(219,563,l),
(226,650,l),
(302,670,l),
(304,710,l),
(167,700,l),
(45,710,l),
(40,670,l),
(113,650,l),
(120,561,l),
(123,364,l),
(119,158,l),
(112,50,l),
(37,30,l),
(35,-10,l),
(172,0,l),
(294,-10,l),
(299,30,l),
(226,50,l),
(220,141,l)
);
},
{
closed = 1;
nodes = (
(335,782,l),
(250,873,l),
(213,927,l),
(150,927,l),
(123,883,l),
(25,782,l),
(28,766,l),
(57,758,l),
(177,858,l),
(232,805,l),
(297,758,l),
(323,768,l)
);
}
);
};
layerId = "E5E5D42B-30DE-4833-8EB6-3A8EE8AFE06C";
shapes = (
{
ref = I;
},
{
pos = (7,-50);
ref = circumflexcomb.case;
}
);
width = 339;
}
);
unicode = 206;
},
{
glyphname = Idieresis;
kernLeft = _KERN_I_2ND;
kernRight = _KERN_I_1ST;
lastChange = "2023-11-01 10:35:51 +0000";
layers = (
{
associatedMasterId = "E5E5D42B-30DE-4833-8EB6-3A8EE8AFE06C";
layerId = "87ED26C6-198F-4E2A-A721-CDA726DB5344";
name = img;
width = 339;
},
{
background = {
anchors = (
{
name = bottom;
pos = (170,0);
},
{
name = ogonek;
pos = (305,10);
},
{
name = top;
pos = (169,706);
},
{
name = topleft;
pos = (20,705);
}
);
shapes = (
{
closed = 1;
nodes = (
(215,362,l),
(219,563,l),
(226,650,l),
(302,670,l),
(304,710,l),
(167,700,l),
(45,710,l),
(40,670,l),
(113,650,l),
(120,561,l),
(123,364,l),
(119,158,l),
(112,50,l),
(37,30,l),
(35,-10,l),
(172,0,l),
(294,-10,l),
(299,30,l),
(226,50,l),
(220,141,l)
);
},
{
closed = 1;
nodes = (
(7,842,l),
(27,799,l),
(70,773,l),
(115,791,l),
(142,833,l),
(121,885,l),
(74,900,l),
(30,879,l)
);
},
{
closed = 1;
nodes = (
(202,842,l),
(219,799,l),
(260,773,l),
(305,791,l),
(331,833,l),
(311,885,l),
(265,900,l),
(220,879,l)
);
}
);
};
layerId = "E5E5D42B-30DE-4833-8EB6-3A8EE8AFE06C";
shapes = (
{
ref = I;
},
{
pos = (-10,-50);
ref = dieresiscomb.case;
}
);
width = 339;
}
);
unicode = 207;
},
{
glyphname = Igrave;
kernLeft = _KERN_I_2ND;
kernRight = _KERN_I_1ST;
lastChange = "2023-11-01 10:35:51 +0000";
layers = (
{
associatedMasterId = "E5E5D42B-30DE-4833-8EB6-3A8EE8AFE06C";
layerId = "87ED26C6-198F-4E2A-A721-CDA726DB5344";
name = img;
width = 339;
},
{
background = {
anchors = (
{
name = bottom;
pos = (170,0);
},
{
name = ogonek;
pos = (305,10);
},
{
name = top;
pos = (169,706);
},
{
name = topleft;
pos = (20,705);
}
);
shapes = (
{
closed = 1;
nodes = (
(215,362,l),
(219,563,l),
(226,650,l),
(302,670,l),
(304,710,l),
(167,700,l),
(45,710,l),
(40,670,l),
(113,650,l),
(120,561,l),
(123,364,l),
(119,158,l),
(112,50,l),
(37,30,l),
(35,-10,l),
(172,0,l),
(294,-10,l),
(299,30,l),
(226,50,l),
(220,141,l)
);
},
{
closed = 1;
nodes = (
(107,912,l),
(45,873,l),
(44,847,l),
(99,818,l),
(210,746,l),
(240,774,l)
);
}
);
};
layerId = "E5E5D42B-30DE-4833-8EB6-3A8EE8AFE06C";
shapes = (
{
ref = I;
},
{
pos = (18,-50);
ref = gravecomb.case;
}
);
width = 339;
}
);
unicode = 204;
},
{
glyphname = Imacron;
lastChange = "2023-11-01 10:35:51 +0000";
layers = (
{
background = {
anchors = (
{
name = bottom;
pos = (170,0);
},
{
name = ogonek;
pos = (305,10);
},
{
name = top;
pos = (169,840);
},
{
name = topleft;
pos = (20,705);
}
);
shapes = (
{
closed = 1;
nodes = (
(215,362,l),
(219,563,l),
(226,650,l),
(302,670,l),
(304,710,l),
(167,700,l),
(45,710,l),
(40,670,l),
(113,650,l),
(120,561,l),
(123,364,l),
(119,158,l),
(112,50,l),
(37,30,l),
(35,-10,l),
(172,0,l),
(294,-10,l),
(299,30,l),
(226,50,l),
(220,141,l)
);
},
{
closed = 1;
nodes = (
(327,816,l),
(336,880,l),
(255,870,l),
(18,862,l),
(9,798,l),
(91,809,l)
);
}
);
};
layerId = "E5E5D42B-30DE-4833-8EB6-3A8EE8AFE06C";
shapes = (
{
ref = I;
},
{
pos = (-96,201);
ref = macroncomb;
}
);
width = 339;
}
);
unicode = 298;
},
{
glyphname = J;
lastChange = "2023-11-01 10:35:51 +0000";
layers = (
{
associatedMasterId = "E5E5D42B-30DE-4833-8EB6-3A8EE8AFE06C";
layerId = "7A591EA4-4D9F-4E22-AD94-0C62A3908D71";
name = public.background;
shapes = (
{
closed = 1;
nodes = (
(111,139,ls),
(111,32,o),
(70,-40,o),
(-9,-81,c),
(-9,-91,o),
(2,-105,o),
(11,-106,c),
(148,-53,o),
(216,22,o),
(216,139,cs),
(216,650,l),
(243,662,o),
(269,666,o),
(296,670,c),
(300,682,o),
(300,693,o),
(298,705,c),
(261,703,o),
(199,700,o),
(161,700,cs),
(124,700,o),
(75,703,o),
(39,705,c),
(33,693,o),
(32,682,o),
(34,670,c),
(111,650,l)
);
}
);
width = 324;
},
{
anchors = (
{
name = bottom;
pos = (162,0);
},
{
name = top;
pos = (162,705);
}
);
background = {
anchors = (
{
name = bottom;
pos = (162,0);
},
{
name = top;
pos = (162,705);
}
);
shapes = (
{
closed = 1;
nodes = (
(115,108,l),
(93,-3,l),
(-9,-81,l),
(11,-106,l),
(118,-50,l),
(180,9,l),
(216,109,l),
(209,398,l),
(216,650,l),
(296,670,l),
(298,710,l),
(161,700,l),
(39,710,l),
(34,670,l),
(111,650,l),
(117,538,l)
);
}
);
};
layerId = "E5E5D42B-30DE-4833-8EB6-3A8EE8AFE06C";
shapes = (
{
closed = 1;
nodes = (
(115,108,l),
(93,-3,l),
(-9,-81,l),
(11,-106,l),
(118,-50,l),
(180,9,l),
(216,109,l),
(209,398,l),
(216,650,l),
(296,670,l),
(298,710,l),
(161,700,l),
(39,710,l),
(34,670,l),
(111,650,l),
(117,538,l)
);
}
);
width = 324;
}
);
unicode = 74;
},
{
glyphname = K;
kernLeft = _KERN_I_2ND;
lastChange = "2023-11-01 10:35:51 +0000";
layers = (
{
associatedMasterId = "E5E5D42B-30DE-4833-8EB6-3A8EE8AFE06C";
layerId = "7A591EA4-4D9F-4E22-AD94-0C62A3908D71";
name = public.background;
shapes = (
{
closed = 1;
nodes = (
(542,628,l),
(569,658,o),
(624,668,o),
(646,670,c),
(650,682,o),
(650,693,o),
(648,705,c),
(611,703,o),
(582,700,o),
(544,700,cs),
(507,700,o),
(456,703,o),
(420,705,c),
(414,693,o),
(413,682,o),
(415,670,c),
(444,666,o),
(471,662,o),
(492,650,c),
(260,365,l),
(222,365,l),
(222,650,l),
(246,661,o),
(273,667,o),
(302,670,c),
(306,682,o),
(306,693,o),
(304,705,c),
(267,703,o),
(205,700,o),
(167,700,cs),
(130,700,o),
(81,703,o),
(45,705,c),
(39,693,o),
(38,682,o),
(40,670,c),
(117,650,l),
(117,50,l),
(90,40,o),
(64,34,o),
(37,30,c),
(33,18,o),
(33,7,o),
(35,-5,c),
(72,-3,o),
(134,0,o),
(172,0,cs),
(209,0,o),
(258,-3,o),
(294,-5,c),
(300,7,o),
(301,18,o),
(299,30,c),
(222,50,l),
(222,310,l),
(288,310,l),
(480,50,l),
(455,37,o),
(428,33,o),
(400,30,c),
(396,18,o),
(396,7,o),
(398,-5,c),
(435,-3,o),
(512,0,o),
(550,0,cs),
(587,0,o),
(636,-3,o),
(672,-5,c),
(678,7,o),
(679,18,o),
(677,30,c),
(652,32,o),
(594,44,o),
(581,62,cs),
(340,389,l)
);
}
);
width = 666;
},
{
anchors = (
{
name = bottom;
pos = (333,0);
},
{
name = top;
pos = (333,705);
}
);
background = {
anchors = (
{
name = bottom;
pos = (333,0);
},
{
name = top;
pos = (333,705);
}
);
shapes = (
{
closed = 1;
nodes = (
(550,637,l),
(646,670,l),
(648,710,l),
(544,700,l),
(420,710,l),
(415,670,l),
(478,654,l),
(445,590,l),
(270,369,l),
(211,360,l),
(218,650,l),
(302,670,l),
(304,710,l),
(167,700,l),
(45,710,l),
(40,670,l),
(119,650,l),
(127,336,l),
(120,50,l),
(37,30,l),
(35,-10,l),
(172,0,l),
(294,-10,l),
(299,30,l),
(217,50,l),
(212,314,l),
(292,324,l),
(435,119,l),
(475,49,l),
(400,30,l),
(398,-10,l),
(550,0,l),
(672,-10,l),
(677,30,l),
(581,59,l),
(346,389,l)
);
}
);
};
layerId = "E5E5D42B-30DE-4833-8EB6-3A8EE8AFE06C";
shapes = (
{
closed = 1;
nodes = (
(550,637,l),
(646,670,l),
(648,710,l),
(544,700,l),
(420,710,l),
(415,670,l),
(478,654,l),
(445,590,l),
(270,369,l),
(211,360,l),
(218,650,l),
(302,670,l),
(304,710,l),
(167,700,l),
(45,710,l),
(40,670,l),
(119,650,l),
(127,336,l),
(120,50,l),
(37,30,l),
(35,-10,l),
(172,0,l),
(294,-10,l),
(299,30,l),
(217,50,l),
(212,314,l),
(292,324,l),
(435,119,l),
(475,49,l),
(400,30,l),
(398,-10,l),
(550,0,l),
(672,-10,l),
(677,30,l),
(581,59,l),
(346,389,l)
);
}
);
width = 666;
}
);
unicode = 75;
},
{
glyphname = L;
kernLeft = _KERN_I_2ND;
lastChange = "2023-11-01 10:35:51 +0000";
layers = (
{
associatedMasterId = "E5E5D42B-30DE-4833-8EB6-3A8EE8AFE06C";
layerId = "7A591EA4-4D9F-4E22-AD94-0C62A3908D71";
name = public.background;
shapes = (
{
closed = 1;
nodes = (
(222,55,l),
(222,650,l),
(249,664,o),
(275,667,o),
(302,670,c),
(306,682,o),
(306,693,o),
(304,705,c),
(267,703,o),
(205,700,o),
(167,700,cs),
(130,700,o),
(81,703,o),
(45,705,c),
(39,693,o),
(38,682,o),
(40,670,c),
(117,650,l),
(117,50,l),
(97,41,o),
(70,36,o),
(41,30,c),
(37,18,o),
(37,7,o),
(39,-5,c),
(76,-3,o),
(134,0,o),
(172,0,cs),
(535,0,l),
(535,58,o),
(533,117,o),
(525,175,c),
(512,180,o),
(505,180,o),
(489,178,c),
(462,55,l)
);
}
);
width = 548;
},
{
anchors = (
{
name = bottom;
pos = (274,0);
},
{
name = center;
pos = (274,353);
},
{
name = top;
pos = (177,705);
},
{
name = topright;
pos = (528,705);
}
);
background = {
anchors = (
{
name = bottom;
pos = (274,0);
},
{
name = center;
pos = (274,353);
},
{
name = top;
pos = (177,705);
},
{
name = topright;
pos = (528,705);
}
);
shapes = (
{
closed = 1;
nodes = (
(417,10,l),
(538,0,l),
(531,55,l),
(526,185,l),
(491,188,l),
(466,65,l),
(222,46,l),
(212,356,l),
(222,650,l),
(302,670,l),
(304,710,l),
(167,700,l),
(45,710,l),
(40,670,l),
(117,650,l),
(127,356,l),
(117,50,l),
(41,30,l),
(39,-10,l),
(172,0,l)
);
}
);
};
layerId = "E5E5D42B-30DE-4833-8EB6-3A8EE8AFE06C";
shapes = (
{
closed = 1;
nodes = (
(417,10,l),
(538,0,l),
(531,55,l),
(526,185,l),
(491,188,l),
(466,65,l),
(222,46,l),
(212,356,l),
(222,650,l),
(302,670,l),
(304,710,l),
(167,700,l),
(45,710,l),
(40,670,l),
(117,650,l),
(127,356,l),
(117,50,l),
(41,30,l),
(39,-10,l),
(172,0,l)
);
}
);
width = 548;
}
);
unicode = 76;
},
{
glyphname = Lacute;
lastChange = "2023-11-01 10:35:51 +0000";
layers = (
{
background = {
anchors = (
{
name = bottom;
pos = (274,0);
},
{
name = center;
pos = (274,353);
},
{
name = top;
pos = (177,705);
},
{
name = topright;
pos = (528,705);
}
);
shapes = (
{
closed = 1;
nodes = (
(417,10,l),
(538,0,l),
(531,55,l),
(526,185,l),
(491,188,l),
(466,65,l),
(222,46,l),
(212,356,l),
(222,650,l),
(302,670,l),
(304,710,l),
(167,700,l),
(45,710,l),
(40,670,l),
(117,650,l),
(127,356,l),
(117,50,l),
(41,30,l),
(39,-10,l),
(172,0,l)
);
},
{
closed = 1;
nodes = (
(121,773,l),
(151,745,l),
(262,817,l),
(317,846,l),
(316,872,l),
(254,911,l)
);
}
);
};
layerId = "E5E5D42B-30DE-4833-8EB6-3A8EE8AFE06C";
shapes = (
{
ref = L;
},
{
pos = (93,-51);
ref = acutecomb.case;
}
);
width = 548;
}
);
unicode = 313;
},
{
glyphname = Lcaron;
lastChange = "2023-11-01 10:35:51 +0000";
layers = (
{
background = {
anchors = (
{
name = bottom;
pos = (274,0);
},
{
name = center;
pos = (274,353);
},
{
name = top;
pos = (177,705);
},
{
name = topright;
pos = (528,705);
}
);
shapes = (
{
closed = 1;
nodes = (
(417,10,l),
(538,0,l),
(531,55,l),
(526,185,l),
(491,188,l),
(466,65,l),
(222,46,l),
(212,356,l),
(222,650,l),
(302,670,l),
(304,710,l),
(167,700,l),
(45,710,l),
(40,670,l),
(117,650,l),
(127,356,l),
(117,50,l),
(41,30,l),
(39,-10,l),
(172,0,l)
);
},
{
closed = 1;
nodes = (
(315,915,l),
(289,925,l),
(234,878,l),
(173,820,l),
(49,925,l),
(20,917,l),
(17,901,l),
(115,800,l),
(142,756,l),
(205,756,l),
(242,810,l),
(327,901,l)
);
}
);
};
layerId = "E5E5D42B-30DE-4833-8EB6-3A8EE8AFE06C";
shapes = (
{
ref = L;
},
{
pos = (397,-1);
ref = caroncomb.alt;
}
);
width = 548;
}
);
unicode = 317;
},
{
glyphname = Lslash;
kernLeft = _KERN_I_2ND;
lastChange = "2023-11-01 10:35:51 +0000";
layers = (
{
background = {
shapes = (
{
closed = 1;
nodes = (
(167,300,l),
(200,312,l),
(420,408,l),
(406,464,l),
(336,422,l),
(197,361,l),
(158,344,l),
(26,286,l),
(44,240,l)
);
},
{
closed = 1;
nodes = (
(417,10,l),
(538,0,l),
(531,55,l),
(526,185,l),
(491,188,l),
(466,65,l),
(222,46,l),
(212,356,l),
(222,650,l),
(302,670,l),
(304,710,l),
(167,700,l),
(45,710,l),
(40,670,l),
(117,650,l),
(127,356,l),
(117,50,l),
(41,30,l),
(39,-10,l),
(172,0,l)
);
}
);
};
layerId = "E5E5D42B-30DE-4833-8EB6-3A8EE8AFE06C";
shapes = (
{
closed = 1;
nodes = (
(167,300,l),
(200,312,l),
(420,408,l),
(406,464,l),
(336,422,l),
(197,361,l),
(158,344,l),
(26,286,l),
(44,240,l)
);
},
{
closed = 1;
nodes = (
(417,10,l),
(538,0,l),
(531,55,l),
(526,185,l),
(491,188,l),
(466,65,l),
(222,46,l),
(212,356,l),
(222,650,l),
(302,670,l),
(304,710,l),
(167,700,l),
(45,710,l),
(40,670,l),
(117,650,l),
(127,356,l),
(117,50,l),
(41,30,l),
(39,-10,l),
(172,0,l)
);
}
);
width = 548;
}
);
unicode = 321;
},
{
glyphname = M;
lastChange = "2023-11-01 10:35:51 +0000";
layers = (
{
associatedMasterId = "E5E5D42B-30DE-4833-8EB6-3A8EE8AFE06C";
layerId = "7A591EA4-4D9F-4E22-AD94-0C62A3908D71";
name = public.background;
shapes = (
{
closed = 1;
nodes = (
(494,265,ls),
(479,226,o),
(468,189,o),
(457,147,c),
(455,147,l),
(445,188,o),
(436,224,o),
(419,265,c),
(256,680,l),
(256,700,l),
(191,700,ls),
(154,700,o),
(105,703,o),
(69,705,c),
(63,693,o),
(62,682,o),
(64,670,c),
(141,650,l),
(101,50,l),
(76,40,o),
(50,34,o),
(23,30,c),
(19,18,o),
(19,7,o),
(21,-5,c),
(58,-3,o),
(90,0,o),
(128,0,cs),
(165,0,o),
(197,-4,o),
(233,-6,c),
(239,6,o),
(240,17,o),
(238,29,c),
(161,49,l),
(186,487,l),
(189,590,l),
(192,590,l),
(203,552,o),
(213,518,o),
(225,488,cs),
(422,21,l),
(434,20,o),
(446,24,o),
(458,31,c),
(639,488,ls),
(652,522,o),
(662,556,o),
(671,590,c),
(674,590,l),
(673,575,o),
(673,559,o),
(673,544,cs),
(673,525,o),
(673,507,o),
(675,488,cs),
(717,50,l),
(696,37,o),
(666,35,o),
(637,30,c),
(633,18,o),
(633,7,o),
(635,-5,c),
(672,-3,o),
(734,0,o),
(772,0,cs),
(809,0,o),
(858,-3,o),
(894,-5,c),
(900,7,o),
(901,18,o),
(899,30,c),
(822,50,l),
(772,650,l),
(796,660,o),
(823,665,o),
(852,670,c),
(856,682,o),
(856,693,o),
(854,705,c),
(817,703,o),
(755,700,o),
(717,700,cs),
(657,700,l),
(657,680,l)
);
}
);
width = 918;
},
{
anchors = (
{
name = bottom;
pos = (459,0);
},
{
name = top;
pos = (459,705);
}
);
background = {
anchors = (
{
name = bottom;
pos = (459,0);
},
{
name = top;
pos = (459,705);
}
);
shapes = (
{
closed = 1;
nodes = (
(92,50,l),
(23,30,l),
(21,-5,l),
(128,0,l),
(233,-6,l),
(238,29,l),
(165,49,l),
(163,136,l),
(167,267,l),
(188,590,l),
(192,590,l),
(231,471,l),
(417,27,l),
(436,-20,l),
(484,0,l),
(468,46,l),
(631,468,l),
(670,590,l),
(675,590,l),
(703,290,l),
(712,140,l),
(709,47,l),
(637,30,l),
(635,-5,l),
(772,0,l),
(894,-5,l),
(899,30,l),
(831,48,l),
(813,150,l),
(769,650,l),
(852,670,l),
(854,705,l),
(717,700,l),
(657,700,l),
(657,680,l),
(499,284,l),
(459,160,l),
(457,160,l),
(412,291,l),
(256,680,l),
(256,700,l),
(191,700,l),
(69,705,l),
(64,670,l),
(146,650,l),
(107,138,l)
);
}
);
};
guides = (
{
pos = (0,570);
},
{
pos = (0,590);
},
{
pos = (0,488);
}
);
layerId = "E5E5D42B-30DE-4833-8EB6-3A8EE8AFE06C";
shapes = (
{
closed = 1;
nodes = (
(92,50,l),
(23,30,l),
(21,-5,l),
(128,0,l),
(233,-6,l),
(238,29,l),
(165,49,l),
(163,136,l),
(167,267,l),
(188,590,l),
(192,590,l),
(231,471,l),
(417,27,l),
(436,-20,l),
(484,0,l),
(468,46,l),
(631,468,l),
(670,590,l),
(675,590,l),
(703,290,l),
(712,140,l),
(709,47,l),
(637,30,l),
(635,-5,l),
(772,0,l),
(894,-5,l),
(899,30,l),
(831,48,l),
(813,150,l),
(769,650,l),
(852,670,l),
(854,705,l),
(717,700,l),
(657,700,l),
(657,680,l),
(499,284,l),
(459,160,l),
(457,160,l),
(412,291,l),
(256,680,l),
(256,700,l),
(191,700,l),
(69,705,l),
(64,670,l),
(146,650,l),
(107,138,l)
);
}
);
width = 918;
}
);
unicode = 77;
},
{
glyphname = N;
kernLeft = _KERN_I_2ND;
kernRight = _KERN_N_1ST;
lastChange = "2023-11-01 10:35:51 +0000";
layers = (
{
associatedMasterId = "E5E5D42B-30DE-4833-8EB6-3A8EE8AFE06C";
layerId = "7A591EA4-4D9F-4E22-AD94-0C62A3908D71";
name = public.background;
shapes = (
{
closed = 1;
nodes = (
(206,700,l),
(166,700,ls),
(129,700,o),
(80,703,o),
(44,705,c),
(38,693,o),
(37,682,o),
(39,670,c),
(116,650,l),
(116,50,l),
(91,41,o),
(65,34,o),
(38,30,c),
(34,18,o),
(34,7,o),
(36,-5,c),
(73,-3,o),
(100,0,o),
(138,0,cs),
(175,0,o),
(207,-4,o),
(243,-6,c),
(249,6,o),
(250,17,o),
(248,29,c),
(171,50,l),
(171,472,ls),
(171,501,o),
(171,539,o),
(166,570,c),
(169,570,l),
(189,535,o),
(206,503,o),
(228,475,cs),
(626,-30,l),
(634,-27,o),
(641,-23,o),
(646,-20,c),
(646,650,l),
(673,660,o),
(699,665,o),
(726,670,c),
(730,682,o),
(730,693,o),
(728,705,c),
(691,703,o),
(656,700,o),
(618,700,cs),
(581,700,o),
(554,703,o),
(518,705,c),
(512,693,o),
(511,682,o),
(513,670,c),
(590,650,l),
(591,249,ls),
(591,211,o),
(595,185,o),
(597,153,c),
(594,153,l),
(578,188,o),
(562,222,o),
(540,251,cs),
(231,648,l)
);
}
);
width = 757;
},
{
anchors = (
{
name = bottom;
pos = (379,0);
},
{
name = top;
pos = (373,705);
}
);
background = {
anchors = (
{
name = bottom;
pos = (379,0);
},
{
name = top;
pos = (373,705);
}
);
shapes = (
{
closed = 1;
nodes = (
(652,-20,l),
(644,577,l),
(649,653,l),
(726,670,l),
(728,710,l),
(618,700,l),
(518,710,l),
(513,670,l),
(586,653,l),
(591,574,l),
(594,245,l),
(595,149,l),
(593,149,l),
(509,285,l),
(244,638,l),
(216,700,l),
(166,700,l),
(44,710,l),
(39,670,l),
(121,650,l),
(114,132,l),
(106,46,l),
(38,30,l),
(36,-10,l),
(138,0,l),
(243,-10,l),
(248,29,l),
(172,47,l),
(171,132,l),
(171,492,l),
(168,577,l),
(170,577,l),
(210,501,l),
(364,307,l),
(605,0,l),
(622,-30,l)
);
}
);
};
layerId = "E5E5D42B-30DE-4833-8EB6-3A8EE8AFE06C";
shapes = (
{
closed = 1;
nodes = (
(652,-20,l),
(644,577,l),
(649,653,l),
(726,670,l),
(728,710,l),
(618,700,l),
(518,710,l),
(513,670,l),
(586,653,l),
(591,574,l),
(594,245,l),
(595,149,l),
(593,149,l),
(509,285,l),
(244,638,l),
(216,700,l),
(166,700,l),
(44,710,l),
(39,670,l),
(121,650,l),
(114,132,l),
(106,46,l),
(38,30,l),
(36,-10,l),
(138,0,l),
(243,-10,l),
(248,29,l),
(172,47,l),
(171,132,l),
(171,492,l),
(168,577,l),
(170,577,l),
(210,501,l),
(364,307,l),
(605,0,l),
(622,-30,l)
);
}
);
width = 757;
}
);
unicode = 78;
},
{
glyphname = Nacute;
lastChange = "2023-11-01 10:35:51 +0000";
layers = (
{
background = {
anchors = (
{
name = bottom;
pos = (379,0);
},
{
name = top;
pos = (373,705);
}
);
shapes = (
{
closed = 1;
nodes = (
(652,-20,l),
(644,577,l),
(649,653,l),
(726,670,l),
(728,710,l),
(618,700,l),
(518,710,l),
(513,670,l),
(586,653,l),
(591,574,l),
(594,245,l),
(595,149,l),
(593,149,l),
(509,285,l),
(244,638,l),
(216,700,l),
(166,700,l),
(44,710,l),
(39,670,l),
(121,650,l),
(114,132,l),
(106,46,l),
(38,30,l),
(36,-10,l),
(138,0,l),
(243,-10,l),
(248,29,l),
(172,47,l),
(171,132,l),
(171,492,l),
(168,577,l),
(170,577,l),
(210,501,l),
(364,307,l),
(605,0,l),
(622,-30,l)
);
},
{
closed = 1;
nodes = (
(317,773,l),
(347,745,l),
(458,817,l),
(513,846,l),
(512,872,l),
(450,911,l)
);
}
);
};
layerId = "E5E5D42B-30DE-4833-8EB6-3A8EE8AFE06C";
shapes = (
{
ref = N;
},
{
pos = (289,-51);
ref = acutecomb.case;
}
);
width = 757;
}
);
unicode = 323;
},
{
glyphname = Ncaron;
lastChange = "2023-11-01 10:35:51 +0000";
layers = (
{
background = {
anchors = (
{
name = bottom;
pos = (379,0);
},
{
name = top;
pos = (373,705);
}
);
shapes = (
{
closed = 1;
nodes = (
(652,-20,l),
(644,577,l),
(649,653,l),
(726,670,l),
(728,710,l),
(618,700,l),
(518,710,l),
(513,670,l),
(586,653,l),
(591,574,l),
(594,245,l),
(595,149,l),
(593,149,l),
(509,285,l),
(244,638,l),
(216,700,l),
(166,700,l),
(44,710,l),
(39,670,l),
(121,650,l),
(114,132,l),
(106,46,l),
(38,30,l),
(36,-10,l),
(138,0,l),
(243,-10,l),
(248,29,l),
(172,47,l),
(171,132,l),
(171,492,l),
(168,577,l),
(170,577,l),
(210,501,l),
(364,307,l),
(605,0,l),
(622,-30,l)
);
},
{
closed = 1;
nodes = (
(511,915,l),
(485,925,l),
(430,878,l),
(369,820,l),
(245,925,l),
(216,917,l),
(213,901,l),
(311,800,l),
(338,756,l),
(401,756,l),
(438,810,l),
(523,901,l)
);
}
);
};
layerId = "E5E5D42B-30DE-4833-8EB6-3A8EE8AFE06C";
shapes = (
{
ref = N;
},
{
pos = (202,-50);
ref = caroncomb.case;
}
);
width = 757;
}
);
unicode = 327;
},
{
glyphname = Ntilde;
kernLeft = _KERN_I_2ND;
kernRight = _KERN_N_1ST;
lastChange = "2023-11-01 10:35:51 +0000";
layers = (
{
associatedMasterId = "E5E5D42B-30DE-4833-8EB6-3A8EE8AFE06C";
layerId = "87ED26C6-198F-4E2A-A721-CDA726DB5344";
name = img;
width = 757;
},
{
background = {
anchors = (
{
name = bottom;
pos = (379,0);
},
{
name = top;
pos = (373,705);
}
);
shapes = (
{
closed = 1;
nodes = (
(652,-20,l),
(644,577,l),
(649,653,l),
(726,670,l),
(728,710,l),
(618,700,l),
(518,710,l),
(513,670,l),
(586,653,l),
(591,574,l),
(594,245,l),
(595,149,l),
(593,149,l),
(509,285,l),
(244,638,l),
(216,700,l),
(166,700,l),
(44,710,l),
(39,670,l),
(121,650,l),
(114,132,l),
(106,46,l),
(38,30,l),
(36,-10,l),
(138,0,l),
(243,-10,l),
(248,29,l),
(172,47,l),
(171,132,l),
(171,492,l),
(168,577,l),
(170,577,l),
(210,501,l),
(364,307,l),
(605,0,l),
(622,-30,l)
);
},
{
closed = 1;
nodes = (
(312,822,l),
(351,823,l),
(432,787,l),
(480,786,l),
(526,815,l),
(547,871,l),
(518,881,l),
(489,853,l),
(452,853,l),
(370,892,l),
(310,890,l),
(247,816,l),
(272,793,l)
);
}
);
};
layerId = "E5E5D42B-30DE-4833-8EB6-3A8EE8AFE06C";
shapes = (
{
ref = N;
},
{
pos = (224,-51);
ref = tildecomb.case;
}
);
width = 757;
}
);
unicode = 209;
},
{
glyphname = Eng;
kernLeft = _KERN_I_2ND;
lastChange = "2023-11-01 10:35:51 +0000";
layers = (
{
anchors = (
{
name = bottom;
pos = (384,0);
},
{
name = top;
pos = (378,705);
}
);
background = {
anchors = (
{
name = bottom;
pos = (384,0);
},
{
name = top;
pos = (378,705);
}
);
shapes = (
{
closed = 1;
nodes = (
(556,-135,l),
(617,-71,l),
(651,34,l),
(651,113,l),
(651,114,l),
(644,577,l),
(649,653,l),
(726,670,l),
(728,710,l),
(618,700,l),
(518,710,l),
(513,670,l),
(586,653,l),
(591,574,l),
(594,245,l),
(595,149,l),
(593,149,l),
(509,285,l),
(244,638,l),
(216,700,l),
(166,700,l),
(44,710,l),
(39,670,l),
(121,650,l),
(114,132,l),
(106,46,l),
(38,30,l),
(36,-10,l),
(138,0,l),
(243,-10,l),
(248,29,l),
(172,47,l),
(171,132,l),
(171,492,l),
(168,577,l),
(170,577,l),
(210,501,l),
(364,307,l),
(568,47,l),
(535,-86,l),
(431,-162,l),
(446,-192,l)
);
}
);
};
guides = (
{
pos = (5,314);
},
{
angle = 90;
pos = (596,269);
},
{
angle = 90;
pos = (651,65);
},
{
angle = 90;
pos = (568,91);
}
);
layerId = "E5E5D42B-30DE-4833-8EB6-3A8EE8AFE06C";
shapes = (
{
closed = 1;
nodes = (
(556,-135,l),
(617,-71,l),
(651,34,l),
(651,113,l),
(651,114,l),
(644,577,l),
(649,653,l),
(726,670,l),
(728,710,l),
(618,700,l),
(518,710,l),
(513,670,l),
(586,653,l),
(591,574,l),
(594,245,l),
(595,149,l),
(593,149,l),
(509,285,l),
(244,638,l),
(216,700,l),
(166,700,l),
(44,710,l),
(39,670,l),
(121,650,l),
(114,132,l),
(106,46,l),
(38,30,l),
(36,-10,l),
(138,0,l),
(243,-10,l),
(248,29,l),
(172,47,l),
(171,132,l),
(171,492,l),
(168,577,l),
(170,577,l),
(210,501,l),
(364,307,l),
(568,47,l),
(535,-86,l),
(431,-162,l),
(446,-192,l)
);
}
);
width = 762;
}
);
metricLeft = N;
unicode = 330;
},
{
glyphname = O;
kernLeft = _KERN_O_2ND;
kernRight = _KERN_O_1ST;
lastChange = "2023-11-01 10:35:51 +0000";
layers = (
{
associatedMasterId = "E5E5D42B-30DE-4833-8EB6-3A8EE8AFE06C";
layerId = "7A591EA4-4D9F-4E22-AD94-0C62A3908D71";
name = public.background;
shapes = (
{
closed = 1;
nodes = (
(44,130,o),
(172,-20,o),
(375,-20,cs),
(578,-20,o),
(709,130,o),
(709,351,cs),
(709,565,o),
(578,720,o),
(375,720,cs),
(172,720,o),
(44,565,o),
(44,351,cs)
);
},
{
closed = 1;
nodes = (
(594,180,o),
(530,26,o),
(386,26,cs),
(233,26,o),
(159,181,o),
(159,342,cs),
(159,513,o),
(218,674,o),
(372,674,cs),
(517,674,o),
(594,515,o),
(594,358,cs)
);
}
);
width = 753;
},
{
anchors = (
{
name = bottom;
pos = (377,0);
},
{
name = center;
pos = (377,353);
},
{
name = ogonek;
pos = (678,10);
},
{
name = top;
pos = (373,705);
},
{
name = topleft;
pos = (20,705);
},
{
name = topright;
pos = (733,705);
}
);
background = {
anchors = (
{
name = bottom;
pos = (377,0);
},
{
name = center;
pos = (377,353);
},
{
name = ogonek;
pos = (678,10);
},
{
name = top;
pos = (373,705);
},
{
name = topleft;
pos = (20,705);
},
{
name = topright;
pos = (733,705);
}
);
shapes = (
{
closed = 1;
nodes = (
(307,715,l),
(159,650,l),
(87,549,l),
(44,418,l),
(56,234,l),
(89,140,l),
(213,12,l),
(375,-24,l),
(527,10,l),
(659,136,l),
(710,344,l),
(689,509,l),
(616,631,l),
(465,715,l)
);
},
{
closed = 1;
nodes = (
(246,84,l),
(166,236,l),
(162,434,l),
(185,520,l),
(211,581,l),
(302,661,l),
(431,670,l),
(537,589,l),
(586,474,l),
(601,342,l),
(581,204,l),
(495,46,l),
(376,26,l)
);
}
);
};
layerId = "E5E5D42B-30DE-4833-8EB6-3A8EE8AFE06C";
shapes = (
{
closed = 1;
nodes = (
(307,715,l),
(159,650,l),
(87,549,l),
(44,418,l),
(56,234,l),
(89,140,l),
(213,12,l),
(375,-24,l),
(527,10,l),
(659,136,l),
(710,344,l),
(689,509,l),
(616,631,l),
(465,715,l)
);
},
{
closed = 1;
nodes = (
(246,84,l),
(166,236,l),
(162,434,l),
(185,520,l),
(211,581,l),
(302,661,l),
(431,670,l),
(537,589,l),
(586,474,l),
(601,342,l),
(581,204,l),
(495,46,l),
(376,26,l)
);
}
);
width = 753;
}
);
unicode = 79;
},
{
glyphname = Oacute;
kernLeft = _KERN_O_2ND;
kernRight = _KERN_O_1ST;
lastChange = "2023-11-01 10:35:51 +0000";
layers = (
{
associatedMasterId = "E5E5D42B-30DE-4833-8EB6-3A8EE8AFE06C";
layerId = "87ED26C6-198F-4E2A-A721-CDA726DB5344";
name = img;
width = 753;
},
{
background = {
anchors = (
{
name = bottom;
pos = (377,0);
},
{
name = center;
pos = (377,353);
},
{
name = ogonek;
pos = (678,10);
},
{
name = top;
pos = (373,705);
},
{
name = topleft;
pos = (20,705);
},
{
name = topright;
pos = (733,705);
}
);
shapes = (
{
closed = 1;
nodes = (
(307,715,l),
(159,650,l),
(87,549,l),
(44,418,l),
(56,234,l),
(89,140,l),
(213,12,l),
(375,-24,l),
(527,10,l),
(659,136,l),
(710,344,l),
(689,509,l),
(616,631,l),
(465,715,l)
);
},
{
closed = 1;
nodes = (
(246,84,l),
(166,236,l),
(162,434,l),
(185,520,l),
(211,581,l),
(302,661,l),
(431,670,l),
(537,589,l),
(586,474,l),
(601,342,l),
(581,204,l),
(495,46,l),
(376,26,l)
);
},
{
closed = 1;
nodes = (
(317,773,l),
(347,745,l),
(458,817,l),
(513,846,l),
(512,872,l),
(450,911,l)
);
}
);
};
layerId = "E5E5D42B-30DE-4833-8EB6-3A8EE8AFE06C";
shapes = (
{
ref = O;
},
{
pos = (289,-51);
ref = acutecomb.case;
}
);
width = 753;
}
);
unicode = 211;
},
{
glyphname = Ocircumflex;
kernLeft = _KERN_O_2ND;
kernRight = _KERN_O_1ST;
lastChange = "2023-11-01 10:35:51 +0000";
layers = (
{
associatedMasterId = "E5E5D42B-30DE-4833-8EB6-3A8EE8AFE06C";
layerId = "87ED26C6-198F-4E2A-A721-CDA726DB5344";
name = img;
width = 753;
},
{
background = {
anchors = (
{
name = bottom;
pos = (377,0);
},
{
name = center;
pos = (377,353);
},
{
name = ogonek;
pos = (678,10);
},
{
name = top;
pos = (373,705);
},
{
name = topleft;
pos = (20,705);
},
{
name = topright;
pos = (733,705);
}
);
shapes = (
{
closed = 1;
nodes = (
(307,715,l),
(159,650,l),
(87,549,l),
(44,418,l),
(56,234,l),
(89,140,l),
(213,12,l),
(375,-24,l),
(527,10,l),
(659,136,l),
(710,344,l),
(689,509,l),
(616,631,l),
(465,715,l)
);
},
{
closed = 1;
nodes = (
(246,84,l),
(166,236,l),
(162,434,l),
(185,520,l),
(211,581,l),
(302,661,l),
(431,670,l),
(537,589,l),
(586,474,l),
(601,342,l),
(581,204,l),
(495,46,l),
(376,26,l)
);
},
{
closed = 1;
nodes = (
(539,781,l),
(454,872,l),
(417,926,l),
(354,926,l),
(327,882,l),
(229,781,l),
(232,765,l),
(261,757,l),
(381,857,l),
(436,804,l),
(501,757,l),
(527,767,l)
);
}
);
};
layerId = "E5E5D42B-30DE-4833-8EB6-3A8EE8AFE06C";
shapes = (
{
ref = O;
},
{
pos = (211,-51);
ref = circumflexcomb.case;
}
);
width = 753;
}
);
unicode = 212;
},
{
glyphname = Odieresis;
kernLeft = _KERN_O_2ND;
kernRight = _KERN_O_1ST;
lastChange = "2023-11-01 10:35:51 +0000";
layers = (
{
associatedMasterId = "E5E5D42B-30DE-4833-8EB6-3A8EE8AFE06C";
layerId = "87ED26C6-198F-4E2A-A721-CDA726DB5344";
name = img;
width = 753;
},
{
background = {
anchors = (
{
name = bottom;
pos = (377,0);
},
{
name = center;
pos = (377,353);
},
{
name = ogonek;
pos = (678,10);
},
{
name = top;
pos = (373,705);
},
{
name = topleft;
pos = (20,705);
},
{
name = topright;
pos = (733,705);
}
);
shapes = (
{
closed = 1;
nodes = (
(307,715,l),
(159,650,l),
(87,549,l),
(44,418,l),
(56,234,l),
(89,140,l),
(213,12,l),
(375,-24,l),
(527,10,l),
(659,136,l),
(710,344,l),
(689,509,l),
(616,631,l),
(465,715,l)
);
},
{
closed = 1;
nodes = (
(246,84,l),
(166,236,l),
(162,434,l),
(185,520,l),
(211,581,l),
(302,661,l),
(431,670,l),
(537,589,l),
(586,474,l),
(601,342,l),
(581,204,l),
(495,46,l),
(376,26,l)
);
},
{
closed = 1;
nodes = (
(211,841,l),
(231,798,l),
(274,772,l),
(319,790,l),
(346,832,l),
(325,884,l),
(278,899,l),
(234,878,l)
);
},
{
closed = 1;
nodes = (
(406,841,l),
(423,798,l),
(464,772,l),
(509,790,l),
(535,832,l),
(515,884,l),
(469,899,l),
(424,878,l)
);
}
);
};
layerId = "E5E5D42B-30DE-4833-8EB6-3A8EE8AFE06C";
shapes = (
{
ref = O;
},
{
pos = (194,-51);
ref = dieresiscomb.case;
}
);
width = 753;
}
);
unicode = 214;
},
{
glyphname = Ograve;
kernLeft = _KERN_O_2ND;
kernRight = _KERN_O_1ST;
lastChange = "2023-11-01 10:35:51 +0000";
layers = (
{
associatedMasterId = "E5E5D42B-30DE-4833-8EB6-3A8EE8AFE06C";
layerId = "87ED26C6-198F-4E2A-A721-CDA726DB5344";
name = img;
width = 753;
},
{
background = {
anchors = (
{
name = bottom;
pos = (377,0);
},
{
name = center;
pos = (377,353);
},
{
name = ogonek;
pos = (678,10);
},
{
name = top;
pos = (373,705);
},
{
name = topleft;
pos = (20,705);
},
{
name = topright;
pos = (733,705);
}
);
shapes = (
{
closed = 1;
nodes = (
(307,715,l),
(159,650,l),
(87,549,l),
(44,418,l),
(56,234,l),
(89,140,l),
(213,12,l),
(375,-24,l),
(527,10,l),
(659,136,l),
(710,344,l),
(689,509,l),
(616,631,l),
(465,715,l)
);
},
{
closed = 1;
nodes = (
(246,84,l),
(166,236,l),
(162,434,l),
(185,520,l),
(211,581,l),
(302,661,l),
(431,670,l),
(537,589,l),
(586,474,l),
(601,342,l),
(581,204,l),
(495,46,l),
(376,26,l)
);
},
{
closed = 1;
nodes = (
(311,911,l),
(249,872,l),
(248,846,l),
(303,817,l),
(414,745,l),
(444,773,l)
);
}
);
};
layerId = "E5E5D42B-30DE-4833-8EB6-3A8EE8AFE06C";
shapes = (
{
ref = O;
},
{
pos = (222,-51);
ref = gravecomb.case;
}
);
width = 753;
}
);
unicode = 210;
},
{
glyphname = Omacron;
lastChange = "2023-11-01 10:35:51 +0000";
layers = (
{
background = {
anchors = (
{
name = bottom;
pos = (377,0);
},
{
name = center;
pos = (377,353);
},
{
name = ogonek;
pos = (678,10);
},
{
name = top;
pos = (373,839);
},
{
name = topleft;
pos = (20,705);
},
{
name = topright;
pos = (733,705);
}
);
shapes = (
{
closed = 1;
nodes = (
(307,715,l),
(159,650,l),
(87,549,l),
(44,418,l),
(56,234,l),
(89,140,l),
(213,12,l),
(375,-24,l),
(527,10,l),
(659,136,l),
(710,344,l),
(689,509,l),
(616,631,l),
(465,715,l)
);
},
{
closed = 1;
nodes = (
(246,84,l),
(166,236,l),
(162,434,l),
(185,520,l),
(211,581,l),
(302,661,l),
(431,670,l),
(537,589,l),
(586,474,l),
(601,342,l),
(581,204,l),
(495,46,l),
(376,26,l)
);
},
{
closed = 1;
nodes = (
(531,815,l),
(540,879,l),
(459,869,l),
(222,861,l),
(213,797,l),
(295,808,l)
);
}
);
};
layerId = "E5E5D42B-30DE-4833-8EB6-3A8EE8AFE06C";
shapes = (
{
ref = O;
},
{
pos = (108,200);
ref = macroncomb;
}
);
width = 753;
}
);
unicode = 332;
},
{
glyphname = Oslash;
kernLeft = _KERN_O_2ND;
kernRight = _KERN_O_1ST;
lastChange = "2023-11-01 10:35:51 +0000";
layers = (
{
associatedMasterId = "E5E5D42B-30DE-4833-8EB6-3A8EE8AFE06C";
layerId = "7A591EA4-4D9F-4E22-AD94-0C62A3908D71";
name = public.background;
shapes = (
{
closed = 1;
nodes = (
(40,213,o),
(88,111,o),
(167,47,c),
(118,-40,l),
(135,-47,o),
(151,-50,o),
(179,-50,c),
(215,16,l),
(259,-7,o),
(311,-20,o),
(370,-20,cs),
(570,-20,o),
(705,130,o),
(705,351,cs),
(705,489,o),
(656,583,o),
(579,649,c),
(641,755,l),
(631,764,o),
(611,767,o),
(582,765,c),
(532,681,l),
(486,707,o),
(430,720,o),
(370,720,cs),
(170,720,o),
(40,565,o),
(40,351,cs)
);
},
{
closed = 1;
nodes = (
(155,513,o),
(217,674,o),
(367,674,cs),
(417,674,o),
(460,656,o),
(493,623,c),
(214,120,l),
(176,179,o),
(155,260,o),
(155,342,cs)
);
},
{
closed = 1;
nodes = (
(590,180,o),
(522,26,o),
(381,26,cs),
(329,26,o),
(288,44,o),
(254,74,c),
(532,577,l),
(568,517,o),
(590,436,o),
(590,358,cs)
);
}
);
width = 743;
},
{
anchors = (
{
name = bottom;
pos = (372,0);
},
{
name = top;
pos = (372,705);
}
);
background = {
anchors = (
{
name = bottom;
pos = (372,0);
},
{
name = top;
pos = (372,705);
}
);
shapes = (
{
closed = 1;
nodes = (
(307,715,l),
(159,650,l),
(87,549,l),
(44,418,l),
(56,234,l),
(89,140,l),
(173,53,l),
(120,-40,l),
(181,-50,l),
(216,11,l),
(375,-24,l),
(527,10,l),
(659,136,l),
(710,344,l),
(689,509,l),
(616,631,l),
(579,651,l),
(638,755,l),
(579,765,l),
(530,679,l),
(465,715,l)
);
},
{
closed = 1;
nodes = (
(586,474,l),
(601,342,l),
(581,204,l),
(495,46,l),
(376,26,l),
(255,80,l),
(540,582,l)
);
},
{
closed = 1;
nodes = (
(162,434,l),
(185,520,l),
(211,581,l),
(302,661,l),
(431,670,l),
(496,620,l),
(219,134,l),
(166,236,l)
);
}
);
};
layerId = "E5E5D42B-30DE-4833-8EB6-3A8EE8AFE06C";
shapes = (
{
closed = 1;
nodes = (
(307,715,l),
(159,650,l),
(87,549,l),
(44,418,l),
(56,234,l),
(89,140,l),
(173,53,l),
(120,-40,l),
(181,-50,l),
(216,11,l),
(375,-24,l),
(527,10,l),
(659,136,l),
(710,344,l),
(689,509,l),
(616,631,l),
(579,651,l),
(638,755,l),
(579,765,l),
(530,679,l),
(465,715,l)
);
},
{
closed = 1;
nodes = (
(586,474,l),
(601,342,l),
(581,204,l),
(495,46,l),
(376,26,l),
(255,80,l),
(540,582,l)
);
},
{
closed = 1;
nodes = (
(162,434,l),
(185,520,l),
(211,581,l),
(302,661,l),
(431,670,l),
(496,620,l),
(219,134,l),
(166,236,l)
);
}
);
width = 743;
}
);
unicode = 216;
},
{
glyphname = Otilde;
kernLeft = _KERN_O_2ND;
kernRight = _KERN_O_1ST;
lastChange = "2023-11-01 10:35:51 +0000";
layers = (
{
associatedMasterId = "E5E5D42B-30DE-4833-8EB6-3A8EE8AFE06C";
layerId = "87ED26C6-198F-4E2A-A721-CDA726DB5344";
name = img;
width = 753;
},
{
background = {
anchors = (
{
name = bottom;
pos = (377,0);
},
{
name = center;
pos = (377,353);
},
{
name = ogonek;
pos = (678,10);
},
{
name = top;
pos = (373,705);
},
{
name = topleft;
pos = (20,705);
},
{
name = topright;
pos = (733,705);
}
);
shapes = (
{
closed = 1;
nodes = (
(307,715,l),
(159,650,l),
(87,549,l),
(44,418,l),
(56,234,l),
(89,140,l),
(213,12,l),
(375,-24,l),
(527,10,l),
(659,136,l),
(710,344,l),
(689,509,l),
(616,631,l),
(465,715,l)
);
},
{
closed = 1;
nodes = (
(246,84,l),
(166,236,l),
(162,434,l),
(185,520,l),
(211,581,l),
(302,661,l),
(431,670,l),
(537,589,l),
(586,474,l),
(601,342,l),
(581,204,l),
(495,46,l),
(376,26,l)
);
},
{
closed = 1;
nodes = (
(312,822,l),
(351,823,l),
(432,787,l),
(480,786,l),
(526,815,l),
(547,871,l),
(518,881,l),
(489,853,l),
(452,853,l),
(370,892,l),
(310,890,l),
(247,816,l),
(272,793,l)
);
}
);
};
layerId = "E5E5D42B-30DE-4833-8EB6-3A8EE8AFE06C";
shapes = (
{
ref = O;
},
{
pos = (224,-51);
ref = tildecomb.case;
}
);
width = 753;
}
);
unicode = 213;
},
{
glyphname = OE;
kernLeft = _KERN_O_2ND;
kernRight = _KERN_E_1ST;
lastChange = "2023-11-01 10:35:51 +0000";
layers = (
{
associatedMasterId = "E5E5D42B-30DE-4833-8EB6-3A8EE8AFE06C";
layerId = "7A591EA4-4D9F-4E22-AD94-0C62A3908D71";
name = public.background;
shapes = (
{
closed = 1;
nodes = (
(44,130,o),
(172,-20,o),
(375,-20,cs),
(463,-20,o),
(533,10,o),
(584,63,c),
(584,0,l),
(1037,0,l),
(1037,10,o),
(1037,21,o),
(1037,31,cs),
(1037,79,o),
(1035,127,o),
(1025,175,c),
(1012,180,o),
(1006,180,o),
(990,178,c),
(969,45,l),
(679,45,l),
(679,330,l),
(865,330,l),
(884,241,l),
(896,238,o),
(912,238,o),
(924,243,c),
(921,275,o),
(920,318,o),
(920,361,cs),
(920,400,o),
(921,439,o),
(924,468,c),
(912,477,o),
(896,477,o),
(884,473,c),
(865,385,l),
(679,385,l),
(679,655,l),
(936,655,l),
(962,522,l),
(978,520,o),
(985,520,o),
(998,525,c),
(1008,582,o),
(1010,641,o),
(1009,700,c),
(584,700,l),
(584,635,l),
(533,688,o),
(463,720,o),
(375,720,cs),
(172,720,o),
(44,565,o),
(44,351,cs)
);
},
{
closed = 1;
nodes = (
(584,344,l),
(581,172,o),
(519,26,o),
(386,26,cs),
(233,26,o),
(159,181,o),
(159,342,cs),
(159,513,o),
(218,674,o),
(372,674,cs),
(510,674,o),
(584,515,o),
(584,358,c)
);
}
);
width = 1082;
},
{
anchors = (
{
name = bottom;
pos = (541,0);
},
{
name = top;
pos = (541,705);
}
);
background = {
anchors = (
{
name = bottom;
pos = (541,0);
},
{
name = top;
pos = (541,705);
}
);
shapes = (
{
closed = 1;
nodes = (
(307,715,l),
(159,650,l),
(87,549,l),
(44,418,l),
(56,234,l),
(89,140,l),
(213,12,l),
(375,-24,l),
(527,10,l),
(584,80,l),
(579,-3,l),
(636,0,l),
(934,0,l),
(1055,-10,l),
(1048,45,l),
(1044,169,l),
(1009,178,l),
(979,45,l),
(686,38,l),
(678,330,l),
(877,340,l),
(896,241,l),
(936,235,l),
(926,356,l),
(936,470,l),
(896,483,l),
(877,388,l),
(678,379,l),
(686,663,l),
(947,655,l),
(973,522,l),
(1009,530,l),
(1011,661,l),
(1020,710,l),
(923,700,l),
(631,700,l),
(579,704,l),
(583,637,l),
(465,715,l)
);
},
{
closed = 1;
nodes = (
(246,84,l),
(166,236,l),
(162,434,l),
(185,520,l),
(211,581,l),
(306,665,l),
(430,666,l),
(537,589,l),
(586,464,l),
(601,342,l),
(581,204,l),
(495,46,l),
(376,26,l)
);
}
);
};
guides = (
{
angle = 90;
pos = (586,0);
}
);
layerId = "E5E5D42B-30DE-4833-8EB6-3A8EE8AFE06C";
shapes = (
{
closed = 1;
nodes = (
(307,715,l),
(159,650,l),
(87,549,l),
(44,418,l),
(56,234,l),
(89,140,l),
(213,12,l),
(375,-24,l),
(527,10,l),
(584,80,l),
(579,-3,l),
(636,0,l),
(934,0,l),
(1055,-10,l),
(1048,45,l),
(1044,169,l),
(1009,178,l),
(979,45,l),
(686,38,l),
(678,330,l),
(877,340,l),
(896,241,l),
(936,235,l),
(926,356,l),
(936,470,l),
(896,483,l),
(877,388,l),
(678,379,l),
(686,663,l),
(947,655,l),
(973,522,l),
(1009,530,l),
(1011,661,l),
(1020,710,l),
(923,700,l),
(631,700,l),
(579,704,l),
(583,637,l),
(465,715,l)
);
},
{
closed = 1;
nodes = (
(246,84,l),
(166,236,l),
(162,434,l),
(185,520,l),
(211,581,l),
(306,665,l),
(430,666,l),
(537,589,l),
(586,464,l),
(601,342,l),
(581,204,l),
(495,46,l),
(376,26,l)
);
}
);
width = 1082;
}
);
unicode = 338;
},
{
glyphname = P;
kernLeft = _KERN_I_2ND;
lastChange = "2023-11-01 10:35:51 +0000";
layers = (
{
associatedMasterId = "E5E5D42B-30DE-4833-8EB6-3A8EE8AFE06C";
layerId = "7A591EA4-4D9F-4E22-AD94-0C62A3908D71";
name = public.background;
shapes = (
{
closed = 1;
nodes = (
(418,279,o),
(567,339,o),
(567,502,cs),
(567,631,o),
(468,709,o),
(302,709,cs),
(268,709,o),
(226,700,o),
(167,700,cs),
(130,700,o),
(81,703,o),
(45,705,c),
(39,693,o),
(38,682,o),
(40,670,c),
(117,650,l),
(117,50,l),
(93,38,o),
(66,34,o),
(37,30,c),
(33,18,o),
(33,7,o),
(35,-5,c),
(72,-3,o),
(134,0,o),
(172,0,cs),
(209,0,o),
(278,-3,o),
(314,-5,c),
(320,7,o),
(321,18,o),
(319,30,c),
(222,50,l),
(222,282,l),
(239,281,o),
(258,279,o),
(276,279,cs)
);
},
{
closed = 1;
nodes = (
(387,664,o),
(460,601,o),
(460,496,cs),
(460,374,o),
(382,325,o),
(284,325,cs),
(265,325,o),
(243,327,o),
(222,331,c),
(222,655,l),
(247,661,o),
(272,664,o),
(295,664,cs)
);
}
);
width = 590;
},
{
anchors = (
{
name = bottom;
pos = (295,0);
},
{
name = top;
pos = (295,705);
}
);
background = {
anchors = (
{
name = bottom;
pos = (295,0);
},
{
name = top;
pos = (295,705);
}
);
shapes = (
{
closed = 1;
nodes = (
(313,280,l),
(489,335,l),
(550,405,l),
(568,516,l),
(543,619,l),
(464,679,l),
(383,705,l),
(301,711,l),
(167,700,l),
(45,710,l),
(40,670,l),
(122,650,l),
(127,306,l),
(120,50,l),
(37,30,l),
(35,-10,l),
(172,0,l),
(314,-10,l),
(319,30,l),
(222,50,l),
(212,292,l)
);
},
{
closed = 1;
nodes = (
(365,664,l),
(444,587,l),
(465,495,l),
(436,382,l),
(301,325,l),
(213,336,l),
(219,655,l)
);
}
);
};
layerId = "E5E5D42B-30DE-4833-8EB6-3A8EE8AFE06C";
shapes = (
{
closed = 1;
nodes = (
(313,280,l),
(489,335,l),
(550,405,l),
(568,516,l),
(543,619,l),
(464,679,l),
(383,705,l),
(301,711,l),
(167,700,l),
(45,710,l),
(40,670,l),
(122,650,l),
(127,306,l),
(120,50,l),
(37,30,l),
(35,-10,l),
(172,0,l),
(314,-10,l),
(319,30,l),
(222,50,l),
(212,292,l)
);
},
{
closed = 1;
nodes = (
(365,664,l),
(444,587,l),
(465,495,l),
(436,382,l),
(301,325,l),
(213,336,l),
(219,655,l)
);
}
);
width = 590;
}
);
unicode = 80;
},
{
glyphname = Thorn;
kernLeft = _KERN_I_2ND;
lastChange = "2023-11-01 10:35:51 +0000";
layers = (
{
associatedMasterId = "E5E5D42B-30DE-4833-8EB6-3A8EE8AFE06C";
layerId = "7A591EA4-4D9F-4E22-AD94-0C62A3908D71";
name = public.background;
shapes = (
{
closed = 1;
nodes = (
(222,650,l),
(249,660,o),
(275,665,o),
(302,670,c),
(306,682,o),
(306,693,o),
(304,705,c),
(267,703,o),
(205,700,o),
(167,700,cs),
(130,700,o),
(81,703,o),
(45,705,c),
(39,693,o),
(38,682,o),
(40,670,c),
(117,650,l),
(117,50,l),
(92,38,o),
(65,34,o),
(37,30,c),
(33,18,o),
(33,7,o),
(35,-5,c),
(72,-3,o),
(134,0,o),
(172,0,cs),
(209,0,o),
(268,-3,o),
(304,-5,c),
(310,7,o),
(311,18,o),
(309,30,c),
(222,50,l),
(222,150,l),
(233,149,o),
(246,149,o),
(258,149,cs),
(400,149,o),
(549,208,o),
(549,371,cs),
(549,500,o),
(439,574,o),
(273,574,c),
(222,571,l)
);
},
{
closed = 1;
nodes = (
(369,533,o),
(434,470,o),
(434,365,cs),
(434,261,o),
(364,194,o),
(266,194,cs),
(252,194,o),
(237,195,o),
(222,198,c),
(222,526,l),
(241,530,o),
(259,533,o),
(277,533,cs)
);
}
);
width = 574;
},
{
anchors = (
{
name = bottom;
pos = (287,0);
},
{
name = top;
pos = (287,705);
}
);
background = {
anchors = (
{
name = bottom;
pos = (287,0);
},
{
name = top;
pos = (287,705);
}
);
shapes = (
{
closed = 1;
nodes = (
(290,145,l),
(466,200,l),
(527,270,l),
(545,381,l),
(520,484,l),
(441,544,l),
(360,570,l),
(278,576,l),
(219,568,l),
(226,650,l),
(302,670,l),
(304,710,l),
(167,700,l),
(45,710,l),
(40,670,l),
(113,650,l),
(120,561,l),
(123,364,l),
(119,158,l),
(112,50,l),
(37,30,l),
(35,-10,l),
(172,0,l),
(294,-10,l),
(299,30,l),
(226,50,l),
(220,141,l),
(219,153,l)
);
},
{
closed = 1;
nodes = (
(215,362,l),
(218,521,l),
(342,529,l),
(421,452,l),
(442,360,l),
(413,247,l),
(278,190,l),
(218,197,l)
);
}
);
};
layerId = "E5E5D42B-30DE-4833-8EB6-3A8EE8AFE06C";
shapes = (
{
closed = 1;
nodes = (
(290,145,l),
(466,200,l),
(527,270,l),
(545,381,l),
(520,484,l),
(441,544,l),
(360,570,l),
(278,576,l),
(219,568,l),
(226,650,l),
(302,670,l),
(304,710,l),
(167,700,l),
(45,710,l),
(40,670,l),
(113,650,l),
(120,561,l),
(123,364,l),
(119,158,l),
(112,50,l),
(37,30,l),
(35,-10,l),
(172,0,l),
(294,-10,l),
(299,30,l),
(226,50,l),
(220,141,l),
(219,153,l)
);
},
{
closed = 1;
nodes = (
(215,362,l),
(218,521,l),
(342,529,l),
(421,452,l),
(442,360,l),
(413,247,l),
(278,190,l),
(218,197,l)
);
}
);
width = 574;
}
);
unicode = 222;
},
{
glyphname = Q;
kernLeft = _KERN_O_2ND;
kernRight = _KERN_O_1ST;
lastChange = "2023-11-01 10:35:51 +0000";
layers = (
{
associatedMasterId = "E5E5D42B-30DE-4833-8EB6-3A8EE8AFE06C";
layerId = "7A591EA4-4D9F-4E22-AD94-0C62A3908D71";
name = public.background;
shapes = (
{
closed = 1;
nodes = (
(44,141,o),
(159,-5,o),
(345,-19,c),
(430,-104,o),
(558,-208,o),
(663,-208,cs),
(718,-208,o),
(779,-165,o),
(816,-133,c),
(817,-128,o),
(807,-112,o),
(804,-111,c),
(785,-120,o),
(754,-128,o),
(721,-128,cs),
(611,-128,o),
(510,-85,o),
(425,-16,c),
(599,6,o),
(709,149,o),
(709,351,cs),
(709,565,o),
(578,720,o),
(375,720,cs),
(172,720,o),
(44,565,o),
(44,351,cs)
);
},
{
closed = 1;
nodes = (
(594,180,o),
(530,26,o),
(386,26,cs),
(233,26,o),
(159,181,o),
(159,342,cs),
(159,513,o),
(218,674,o),
(372,674,cs),
(517,674,o),
(594,515,o),
(594,358,cs)
);
}
);
width = 743;
},
{
anchors = (
{
name = bottom;
pos = (372,0);
},
{
name = top;
pos = (372,705);
}
);
background = {
anchors = (
{
name = bottom;
pos = (372,0);
},
{
name = top;
pos = (372,705);
}
);
shapes = (
{
closed = 1;
nodes = (
(307,715,l),
(159,650,l),
(87,549,l),
(44,418,l),
(56,234,l),
(89,140,l),
(213,12,l),
(339,-16,l),
(486,-141,l),
(578,-191,l),
(671,-211,l),
(744,-186,l),
(819,-134,l),
(807,-112,l),
(726,-133,l),
(614,-119,l),
(517,-79,l),
(415,-15,l),
(527,10,l),
(659,136,l),
(710,344,l),
(689,509,l),
(616,631,l),
(465,715,l)
);
},
{
closed = 1;
nodes = (
(246,84,l),
(166,236,l),
(162,434,l),
(185,520,l),
(211,581,l),
(302,661,l),
(431,670,l),
(537,589,l),
(586,474,l),
(601,342,l),
(581,204,l),
(495,46,l),
(376,26,l)
);
}
);
};
layerId = "E5E5D42B-30DE-4833-8EB6-3A8EE8AFE06C";
shapes = (
{
closed = 1;
nodes = (
(307,715,l),
(159,650,l),
(87,549,l),
(44,418,l),
(56,234,l),
(89,140,l),
(213,12,l),
(339,-16,l),
(486,-141,l),
(578,-191,l),
(671,-211,l),
(744,-186,l),
(819,-134,l),
(807,-112,l),
(726,-133,l),
(614,-119,l),
(517,-79,l),
(415,-15,l),
(527,10,l),
(659,136,l),
(710,344,l),
(689,509,l),
(616,631,l),
(465,715,l)
);
},
{
closed = 1;
nodes = (
(246,84,l),
(166,236,l),
(162,434,l),
(185,520,l),
(211,581,l),
(302,661,l),
(431,670,l),
(537,589,l),
(586,474,l),
(601,342,l),
(581,204,l),
(495,46,l),
(376,26,l)
);
}
);
width = 743;
}
);
unicode = 81;
},
{
glyphname = R;
kernLeft = _KERN_I_2ND;
lastChange = "2023-11-01 10:35:51 +0000";
layers = (
{
associatedMasterId = "E5E5D42B-30DE-4833-8EB6-3A8EE8AFE06C";
layerId = "7A591EA4-4D9F-4E22-AD94-0C62A3908D71";
name = public.background;
shapes = (
{
closed = 1;
nodes = (
(222,315,l),
(238,314,o),
(255,313,o),
(272,313,cs),
(295,313,o),
(317,314,o),
(339,316,c),
(413,167,o),
(433,83,o),
(472,37,cs),
(501,2,o),
(536,-15,o),
(581,-15,cs),
(593,-15,o),
(636,-14,o),
(647,0,c),
(648,11,o),
(648,21,o),
(641,32,c),
(629,31,l),
(559,31,o),
(553,64,o),
(446,300,cs),
(441,311,o),
(433,326,o),
(424,332,c),
(424,336,l),
(513,366,o),
(561,421,o),
(561,512,cs),
(561,641,o),
(453,715,o),
(281,706,c),
(187,700,ls),
(144,698,o),
(81,703,o),
(45,705,c),
(39,693,o),
(38,682,o),
(40,670,c),
(117,650,l),
(117,50,l),
(91,39,o),
(65,33,o),
(37,30,c),
(33,18,o),
(33,7,o),
(35,-5,c),
(72,-3,o),
(134,0,o),
(172,0,cs),
(209,0,o),
(258,-3,o),
(294,-5,c),
(300,7,o),
(301,18,o),
(299,30,c),
(222,50,l)
);
},
{
closed = 1;
nodes = (
(463,413,o),
(398,354,o),
(282,354,cs),
(263,354,o),
(243,356,o),
(222,361,c),
(222,649,l),
(248,656,o),
(272,660,o),
(295,660,cs),
(388,660,o),
(463,607,o),
(463,506,cs)
);
}
);
width = 652;
},
{
anchors = (
{
name = bottom;
pos = (326,0);
},
{
name = top;
pos = (326,705);
}
);
background = {
anchors = (
{
name = bottom;
pos = (326,0);
},
{
name = top;
pos = (326,705);
}
);
shapes = (
{
closed = 1;
nodes = (
(313,312,l),
(344,320,l),
(468,35,l),
(533,-18,l),
(650,6,l),
(644,39,l),
(566,39,l),
(423,342,l),
(489,361,l),
(550,405,l),
(568,516,l),
(543,619,l),
(464,679,l),
(383,705,l),
(301,711,l),
(167,700,l),
(45,710,l),
(40,670,l),
(122,650,l),
(127,306,l),
(120,50,l),
(37,30,l),
(35,-10,l),
(172,0,l),
(314,-10,l),
(319,30,l),
(222,50,l),
(212,318,l)
);
},
{
closed = 1;
nodes = (
(365,664,l),
(444,587,l),
(465,495,l),
(436,408,l),
(301,357,l),
(213,362,l),
(219,655,l)
);
}
);
};
layerId = "E5E5D42B-30DE-4833-8EB6-3A8EE8AFE06C";
shapes = (
{
closed = 1;
nodes = (
(313,312,l),
(344,320,l),
(468,35,l),
(533,-18,l),
(650,6,l),
(644,39,l),
(566,39,l),
(423,342,l),
(489,361,l),
(550,405,l),
(568,516,l),
(543,619,l),
(464,679,l),
(383,705,l),
(301,711,l),
(167,700,l),
(45,710,l),
(40,670,l),
(122,650,l),
(127,306,l),
(120,50,l),
(37,30,l),
(35,-10,l),
(172,0,l),
(314,-10,l),
(319,30,l),
(222,50,l),
(212,318,l)
);
},
{
closed = 1;
nodes = (
(365,664,l),
(444,587,l),
(465,495,l),
(436,408,l),
(301,357,l),
(213,362,l),
(219,655,l)
);
}
);
width = 652;
}
);
unicode = 82;
},
{
glyphname = Racute;
lastChange = "2023-11-01 10:35:51 +0000";
layers = (
{
background = {
anchors = (
{
name = bottom;
pos = (326,0);
},
{
name = top;
pos = (326,705);
}
);
shapes = (
{
closed = 1;
nodes = (
(313,312,l),
(344,320,l),
(468,35,l),
(533,-18,l),
(650,6,l),
(644,39,l),
(566,39,l),
(423,342,l),
(489,361,l),
(550,405,l),
(568,516,l),
(543,619,l),
(464,679,l),
(383,705,l),
(301,711,l),
(167,700,l),
(45,710,l),
(40,670,l),
(122,650,l),
(127,306,l),
(120,50,l),
(37,30,l),
(35,-10,l),
(172,0,l),
(314,-10,l),
(319,30,l),
(222,50,l),
(212,318,l)
);
},
{
closed = 1;
nodes = (
(365,664,l),
(444,587,l),
(465,495,l),
(436,408,l),
(301,357,l),
(213,362,l),
(219,655,l)
);
},
{
closed = 1;
nodes = (
(270,773,l),
(300,745,l),
(411,817,l),
(466,846,l),
(465,872,l),
(403,911,l)
);
}
);
};
layerId = "E5E5D42B-30DE-4833-8EB6-3A8EE8AFE06C";
shapes = (
{
ref = R;
},
{
pos = (242,-51);
ref = acutecomb.case;
}
);
width = 652;
}
);
unicode = 340;
},
{
glyphname = Rcaron;
lastChange = "2023-11-01 10:35:51 +0000";
layers = (
{
background = {
anchors = (
{
name = bottom;
pos = (326,0);
},
{
name = top;
pos = (326,705);
}
);
shapes = (
{
closed = 1;
nodes = (
(313,312,l),
(344,320,l),
(468,35,l),
(533,-18,l),
(650,6,l),
(644,39,l),
(566,39,l),
(423,342,l),
(489,361,l),
(550,405,l),
(568,516,l),
(543,619,l),
(464,679,l),
(383,705,l),
(301,711,l),
(167,700,l),
(45,710,l),
(40,670,l),
(122,650,l),
(127,306,l),
(120,50,l),
(37,30,l),
(35,-10,l),
(172,0,l),
(314,-10,l),
(319,30,l),
(222,50,l),
(212,318,l)
);
},
{
closed = 1;
nodes = (
(365,664,l),
(444,587,l),
(465,495,l),
(436,408,l),
(301,357,l),
(213,362,l),
(219,655,l)
);
},
{
closed = 1;
nodes = (
(464,915,l),
(438,925,l),
(383,878,l),
(322,820,l),
(198,925,l),
(169,917,l),
(166,901,l),
(264,800,l),
(291,756,l),
(354,756,l),
(391,810,l),
(476,901,l)
);
}
);
};
layerId = "E5E5D42B-30DE-4833-8EB6-3A8EE8AFE06C";
shapes = (
{
ref = R;
},
{
pos = (155,-50);
ref = caroncomb.case;
}
);
width = 652;
}
);
unicode = 344;
},
{
glyphname = S;
lastChange = "2023-11-01 10:35:51 +0000";
layers = (
{
associatedMasterId = "E5E5D42B-30DE-4833-8EB6-3A8EE8AFE06C";
layerId = "7A591EA4-4D9F-4E22-AD94-0C62A3908D71";
name = public.background;
shapes = (
{
closed = 1;
nodes = (
(381,-19,o),
(512,43,o),
(512,174,cs),
(512,299,o),
(445,340,o),
(290,409,cs),
(166,464,o),
(147,496,o),
(147,553,cs),
(147,636,o),
(224,668,o),
(303,668,cs),
(334,668,o),
(365,663,o),
(393,655,c),
(404,522,l),
(413,518,o),
(424,516,o),
(435,516,cs),
(439,516,o),
(444,516,o),
(448,517,c),
(467,570,o),
(481,625,o),
(479,686,c),
(428,706,o),
(368,716,o),
(309,716,cs),
(177,716,o),
(52,662,o),
(52,536,cs),
(52,453,o),
(68,391,o),
(213,328,cs),
(391,250,o),
(407,216,o),
(407,146,cs),
(407,58,o),
(315,37,o),
(243,37,cs),
(198,37,o),
(160,46,o),
(135,52,c),
(119,185,l),
(110,189,o),
(98,191,o),
(88,191,cs),
(83,191,o),
(79,190,o),
(75,190,c),
(57,131,o),
(49,73,o),
(49,16,c),
(104,-10,o),
(182,-19,o),
(258,-19,cs)
);
},
{
closed = 1;
nodes = (
(393,655,l),
(419,522,l),
(455,530,l),
(457,661,l),
(466,710,l),
(369,700,l)
);
}
);
width = 545;
},
{
anchors = (
{
name = bottom;
pos = (273,0);
},
{
name = top;
pos = (273,705);
}
);
background = {
anchors = (
{
name = bottom;
pos = (273,0);
},
{
name = top;
pos = (273,705);
}
);
shapes = (
{
closed = 1;
nodes = (
(239,34,l),
(117,55,l),
(101,187,l),
(64,179,l),
(55,48,l),
(47,9,l),
(94,2,l),
(279,-20,l),
(426,12,l),
(503,108,l),
(499,266,l),
(425,343,l),
(173,481,l),
(151,566,l),
(174,632,l),
(275,670,l),
(393,654,l),
(419,522,l),
(456,530,l),
(455,661,l),
(463,712,l),
(416,708,l),
(263,720,l),
(124,674,l),
(67,597,l),
(58,503,l),
(104,395,l),
(358,254,l),
(403,206,l),
(405,117,l),
(366,63,l)
);
}
);
};
layerId = "E5E5D42B-30DE-4833-8EB6-3A8EE8AFE06C";
shapes = (
{
closed = 1;
nodes = (
(239,34,l),
(117,55,l),
(101,187,l),
(64,179,l),
(55,48,l),
(47,9,l),
(94,2,l),
(279,-20,l),
(426,12,l),
(503,108,l),
(499,266,l),
(425,343,l),
(173,481,l),
(151,566,l),
(174,632,l),
(275,670,l),
(393,654,l),
(419,522,l),
(456,530,l),
(455,661,l),
(463,712,l),
(416,708,l),
(263,720,l),
(124,674,l),
(67,597,l),
(58,503,l),
(104,395,l),
(358,254,l),
(403,206,l),
(405,117,l),
(366,63,l)
);
}
);
width = 545;
}
);
unicode = 83;
},
{
glyphname = Sacute;
lastChange = "2023-11-01 10:35:51 +0000";
layers = (
{
background = {
anchors = (
{
name = bottom;
pos = (273,0);
},
{
name = top;
pos = (273,705);
}
);
shapes = (
{
closed = 1;
nodes = (
(239,34,l),
(117,55,l),
(101,187,l),
(64,179,l),
(55,48,l),
(47,9,l),
(94,2,l),
(279,-20,l),
(426,12,l),
(503,108,l),
(499,266,l),
(425,343,l),
(173,481,l),
(151,566,l),
(174,632,l),
(275,670,l),
(393,654,l),
(419,522,l),
(456,530,l),
(455,661,l),
(463,712,l),
(416,708,l),
(263,720,l),
(124,674,l),
(67,597,l),
(58,503,l),
(104,395,l),
(358,254,l),
(403,206,l),
(405,117,l),
(366,63,l)
);
},
{
closed = 1;
nodes = (
(217,773,l),
(247,745,l),
(358,817,l),
(413,846,l),
(412,872,l),
(350,911,l)
);
}
);
};
layerId = "E5E5D42B-30DE-4833-8EB6-3A8EE8AFE06C";
shapes = (
{
ref = S;
},
{
pos = (189,-51);
ref = acutecomb.case;
}
);
width = 545;
}
);
unicode = 346;
},
{
glyphname = Scaron;
lastChange = "2023-11-01 10:35:51 +0000";
layers = (
{
background = {
anchors = (
{
name = bottom;
pos = (273,0);
},
{
name = top;
pos = (273,705);
}
);
shapes = (
{
closed = 1;
nodes = (
(239,34,l),
(117,55,l),
(101,187,l),
(64,179,l),
(55,48,l),
(47,9,l),
(94,2,l),
(279,-20,l),
(426,12,l),
(503,108,l),
(499,266,l),
(425,343,l),
(173,481,l),
(151,566,l),
(174,632,l),
(275,670,l),
(393,654,l),
(419,522,l),
(456,530,l),
(455,661,l),
(463,712,l),
(416,708,l),
(263,720,l),
(124,674,l),
(67,597,l),
(58,503,l),
(104,395,l),
(358,254,l),
(403,206,l),
(405,117,l),
(366,63,l)
);
},
{
closed = 1;
nodes = (
(411,915,l),
(385,925,l),
(330,878,l),
(269,820,l),
(145,925,l),
(116,917,l),
(113,901,l),
(211,800,l),
(238,756,l),
(301,756,l),
(338,810,l),
(423,901,l)
);
}
);
};
layerId = "E5E5D42B-30DE-4833-8EB6-3A8EE8AFE06C";
shapes = (
{
ref = S;
},
{
pos = (102,-50);
ref = caroncomb.case;
}
);
width = 545;
}
);
unicode = 352;
},
{
glyphname = Scedilla;
lastChange = "2023-11-01 10:35:51 +0000";
layers = (
{
background = {
anchors = (
{
name = bottom;
pos = (273,0);
},
{
name = top;
pos = (273,705);
}
);
shapes = (
{
closed = 1;
nodes = (
(239,34,l),
(117,55,l),
(101,187,l),
(64,179,l),
(55,48,l),
(47,9,l),
(94,2,l),
(279,-20,l),
(426,12,l),
(503,108,l),
(499,266,l),
(425,343,l),
(173,481,l),
(151,566,l),
(174,632,l),
(275,670,l),
(393,654,l),
(419,522,l),
(456,530,l),
(455,661,l),
(463,712,l),
(416,708,l),
(263,720,l),
(124,674,l),
(67,597,l),
(58,503,l),
(104,395,l),
(358,254,l),
(403,206,l),
(405,117,l),
(366,63,l)
);
},
{
closed = 1;
nodes = (
(267,-36,l),
(260,13,l),
(224,18,l),
(226,-85,l),
(285,-94,l),
(316,-123,l),
(309,-171,l),
(253,-194,l),
(182,-181,l),
(167,-210,l),
(239,-223,l),
(330,-211,l),
(380,-149,l),
(382,-92,l),
(336,-44,l)
);
}
);
};
layerId = "E5E5D42B-30DE-4833-8EB6-3A8EE8AFE06C";
shapes = (
{
ref = S;
},
{
pos = (144,11);
ref = cedillacomb;
}
);
width = 545;
}
);
unicode = 350;
},
{
glyphname = Germandbls;
kernLeft = _KERN_I_2ND;
lastChange = "2023-11-01 10:35:51 +0000";
layers = (
{
background = {
guides = (
{
pos = (133,357);
}
);
shapes = (
{
closed = 1;
nodes = (
(608,12,l),
(685,108,l),
(681,266,l),
(623,355,l),
(420,431,l),
(434,382,l),
(636,638,l),
(636,678,l),
(491,714,l),
(361,720,l),
(216,678,l),
(125,567,l),
(117,357,l),
(107,50,l),
(27,25,l),
(25,-10,l),
(213,0,l),
(201,357,l),
(201,523,l),
(257,624,l),
(359,671,l),
(482,671,l),
(589,634,l),
(575,682,l),
(385,444,l),
(385,375,l),
(548,323,l),
(585,206,l),
(587,117,l),
(548,63,l),
(439,34,l),
(343,55,l),
(327,187,l),
(290,179,l),
(281,48,l),
(273,9,l),
(320,2,l),
(479,-20,l)
);
}
);
};
guides = (
{
pos = (226,652);
}
);
layerId = "E5E5D42B-30DE-4833-8EB6-3A8EE8AFE06C";
shapes = (
{
closed = 1;
nodes = (
(608,12,l),
(685,108,l),
(681,266,l),
(623,355,l),
(420,431,l),
(434,382,l),
(636,638,l),
(636,678,l),
(491,714,l),
(361,720,l),
(216,678,l),
(125,567,l),
(117,357,l),
(107,50,l),
(27,25,l),
(25,-10,l),
(213,0,l),
(201,357,l),
(201,523,l),
(257,624,l),
(359,671,l),
(482,671,l),
(589,634,l),
(575,682,l),
(385,444,l),
(385,375,l),
(548,323,l),
(585,206,l),
(587,117,l),
(548,63,l),
(439,34,l),
(343,55,l),
(327,187,l),
(290,179,l),
(281,48,l),
(273,9,l),
(320,2,l),
(479,-20,l)
);
}
);
width = 727;
}
);
metricRight = B;
unicode = 7838;
},
{
glyphname = T;
lastChange = "2023-11-01 10:35:51 +0000";
layers = (
{
associatedMasterId = "E5E5D42B-30DE-4833-8EB6-3A8EE8AFE06C";
layerId = "7A591EA4-4D9F-4E22-AD94-0C62A3908D71";
name = public.background;
shapes = (
{
closed = 1;
nodes = (
(256,50,l),
(231,41,o),
(206,34,o),
(176,30,c),
(172,18,o),
(172,7,o),
(174,-5,c),
(211,-3,o),
(273,0,o),
(311,0,cs),
(348,0,o),
(403,-3,o),
(439,-5,c),
(445,7,o),
(446,18,o),
(444,30,c),
(361,50,l),
(361,655,l),
(526,655,l),
(555,512,l),
(571,510,o),
(582,510,o),
(595,515,c),
(603,577,o),
(608,638,o),
(606,700,c),
(21,700,l),
(19,632,o),
(25,572,o),
(31,515,c),
(44,510,o),
(55,510,o),
(71,512,c),
(100,655,l),
(256,655,l)
);
}
);
width = 623;
},
{
anchors = (
{
name = bottom;
pos = (312,0);
},
{
name = center;
pos = (312,353);
},
{
name = top;
pos = (312,705);
}
);
background = {
anchors = (
{
name = bottom;
pos = (312,0);
},
{
name = center;
pos = (312,353);
},
{
name = top;
pos = (312,705);
}
);
shapes = (
{
closed = 1;
nodes = (
(7,710,l),
(22,641,l),
(28,515,l),
(74,512,l),
(90,655,l),
(256,664,l),
(266,436,l),
(259,152,l),
(258,49,l),
(176,25,l),
(174,-10,l),
(311,0,l),
(433,-10,l),
(440,25,l),
(363,50,l),
(358,140,l),
(352,328,l),
(361,664,l),
(536,655,l),
(552,512,l),
(598,515,l),
(604,641,l),
(619,710,l),
(502,700,l),
(124,700,l)
);
}
);
};
guides = (
{
pos = (0,512);
},
{
pos = (0,515);
},
{
pos = (0,25);
}
);
layerId = "E5E5D42B-30DE-4833-8EB6-3A8EE8AFE06C";
shapes = (
{
closed = 1;
nodes = (
(7,710,l),
(22,641,l),
(28,515,l),
(74,512,l),
(90,655,l),
(256,664,l),
(266,436,l),
(259,152,l),
(258,49,l),
(176,25,l),
(174,-10,l),
(311,0,l),
(433,-10,l),
(440,25,l),
(363,50,l),
(358,140,l),
(352,328,l),
(361,664,l),
(536,655,l),
(552,512,l),
(598,515,l),
(604,641,l),
(619,710,l),
(502,700,l),
(124,700,l)
);
}
);
width = 623;
}
);
unicode = 84;
},
{
glyphname = Tcaron;
lastChange = "2023-11-01 10:35:51 +0000";
layers = (
{
background = {
anchors = (
{
name = bottom;
pos = (312,0);
},
{
name = center;
pos = (312,353);
},
{
name = top;
pos = (312,705);
}
);
shapes = (
{
closed = 1;
nodes = (
(7,710,l),
(22,641,l),
(28,515,l),
(74,512,l),
(90,655,l),
(256,664,l),
(266,436,l),
(259,152,l),
(258,49,l),
(176,25,l),
(174,-10,l),
(311,0,l),
(433,-10,l),
(440,25,l),
(363,50,l),
(358,140,l),
(352,328,l),
(361,664,l),
(536,655,l),
(552,512,l),
(598,515,l),
(604,641,l),
(619,710,l),
(502,700,l),
(124,700,l)
);
},
{
closed = 1;
nodes = (
(450,915,l),
(424,925,l),
(369,878,l),
(308,820,l),
(184,925,l),
(155,917,l),
(152,901,l),
(250,800,l),
(277,756,l),
(340,756,l),
(377,810,l),
(462,901,l)
);
}
);
};
layerId = "E5E5D42B-30DE-4833-8EB6-3A8EE8AFE06C";
shapes = (
{
ref = T;
},
{
pos = (141,-50);
ref = caroncomb.case;
}
);
width = 623;
}
);
unicode = 356;
},
{
glyphname = U;
kernLeft = _KERN_U;
kernRight = _KERN_U;
lastChange = "2023-11-01 10:35:51 +0000";
layers = (
{
associatedMasterId = "E5E5D42B-30DE-4833-8EB6-3A8EE8AFE06C";
layerId = "7A591EA4-4D9F-4E22-AD94-0C62A3908D71";
name = public.background;
shapes = (
{
closed = 1;
nodes = (
(641,650,l),
(662,660,o),
(689,665,o),
(721,670,c),
(725,682,o),
(725,693,o),
(723,705,c),
(686,703,o),
(654,700,o),
(616,700,cs),
(579,700,o),
(550,703,o),
(514,705,c),
(508,693,o),
(507,682,o),
(509,670,c),
(586,650,l),
(586,305,ls),
(586,180,o),
(582,30,o),
(407,30,cs),
(277,30,o),
(206,92,o),
(206,235,cs),
(206,650,l),
(233,662,o),
(259,666,o),
(286,670,c),
(290,682,o),
(290,693,o),
(288,705,c),
(251,703,o),
(189,700,o),
(151,700,cs),
(114,700,o),
(65,703,o),
(29,705,c),
(23,693,o),
(22,682,o),
(24,670,c),
(101,650,l),
(101,265,ls),
(101,32,o),
(202,-20,o),
(382,-20,cs),
(551,-20,o),
(641,35,o),
(641,275,cs)
);
}
);
width = 745;
},
{
anchors = (
{
name = bottom;
pos = (373,0);
},
{
name = ogonek;
pos = (531,10);
},
{
name = top;
pos = (397,704);
},
{
name = topright;
pos = (725,705);
}
);
background = {
anchors = (
{
name = bottom;
pos = (373,0);
},
{
name = ogonek;
pos = (671,10);
},
{
name = top;
pos = (397,704);
},
{
name = topright;
pos = (725,705);
}
);
shapes = (
{
closed = 1;
nodes = (
(652,654,l),
(721,670,l),
(723,710,l),
(616,700,l),
(514,710,l),
(509,670,l),
(573,654,l),
(580,580,l),
(586,305,l),
(564,148,l),
(491,48,l),
(377,30,l),
(252,77,l),
(207,167,l),
(200,326,l),
(208,555,l),
(219,650,l),
(286,670,l),
(288,710,l),
(151,700,l),
(29,710,l),
(24,670,l),
(104,650,l),
(109,559,l),
(101,265,l),
(120,117,l),
(194,12,l),
(331,-17,l),
(447,-17,l),
(524,1,l),
(620,105,l),
(641,275,l),
(645,588,l)
);
}
);
};
layerId = "E5E5D42B-30DE-4833-8EB6-3A8EE8AFE06C";
shapes = (
{
closed = 1;
nodes = (
(652,654,l),
(721,670,l),
(723,710,l),
(616,700,l),
(514,710,l),
(509,670,l),
(573,654,l),
(580,580,l),
(586,305,l),
(564,148,l),
(491,48,l),
(377,30,l),
(252,77,l),
(207,167,l),
(200,326,l),
(208,555,l),
(219,650,l),
(286,670,l),
(288,710,l),
(151,700,l),
(29,710,l),
(24,670,l),
(104,650,l),
(109,559,l),
(101,265,l),
(120,117,l),
(194,12,l),
(331,-17,l),
(447,-17,l),
(524,1,l),
(620,105,l),
(641,275,l),
(645,588,l)
);
}
);
width = 745;
}
);
unicode = 85;
},
{
glyphname = Uacute;
kernLeft = _KERN_U;
kernRight = _KERN_U;
lastChange = "2023-11-01 10:35:51 +0000";
layers = (
{
associatedMasterId = "E5E5D42B-30DE-4833-8EB6-3A8EE8AFE06C";
layerId = "87ED26C6-198F-4E2A-A721-CDA726DB5344";
name = img;
width = 745;
},
{
background = {
anchors = (
{
name = bottom;
pos = (373,0);
},
{
name = ogonek;
pos = (671,10);
},
{
name = top;
pos = (397,704);
},
{
name = topright;
pos = (725,705);
}
);
shapes = (
{
closed = 1;
nodes = (
(652,654,l),
(721,670,l),
(723,710,l),
(616,700,l),
(514,710,l),
(509,670,l),
(573,654,l),
(580,580,l),
(586,305,l),
(564,148,l),
(491,48,l),
(377,30,l),
(252,77,l),
(207,167,l),
(200,326,l),
(208,555,l),
(219,650,l),
(286,670,l),
(288,710,l),
(151,700,l),
(29,710,l),
(24,670,l),
(104,650,l),
(109,559,l),
(101,265,l),
(120,117,l),
(194,12,l),
(331,-17,l),
(447,-17,l),
(524,1,l),
(620,105,l),
(641,275,l),
(645,588,l)
);
},
{
closed = 1;
nodes = (
(341,772,l),
(371,744,l),
(482,816,l),
(537,845,l),
(536,871,l),
(474,910,l)
);
}
);
};
layerId = "E5E5D42B-30DE-4833-8EB6-3A8EE8AFE06C";
shapes = (
{
ref = U;
},
{
pos = (313,-52);
ref = acutecomb.case;
}
);
width = 745;
}
);
unicode = 218;
},
{
glyphname = Ucircumflex;
kernLeft = _KERN_U;
kernRight = _KERN_U;
lastChange = "2023-11-01 10:35:51 +0000";
layers = (
{
associatedMasterId = "E5E5D42B-30DE-4833-8EB6-3A8EE8AFE06C";
layerId = "87ED26C6-198F-4E2A-A721-CDA726DB5344";
name = img;
width = 745;
},
{
background = {
anchors = (
{
name = bottom;
pos = (373,0);
},
{
name = ogonek;
pos = (671,10);
},
{
name = top;
pos = (397,704);
},
{
name = topright;
pos = (725,705);
}
);
shapes = (
{
closed = 1;
nodes = (
(652,654,l),
(721,670,l),
(723,710,l),
(616,700,l),
(514,710,l),
(509,670,l),
(573,654,l),
(580,580,l),
(586,305,l),
(564,148,l),
(491,48,l),
(377,30,l),
(252,77,l),
(207,167,l),
(200,326,l),
(208,555,l),
(219,650,l),
(286,670,l),
(288,710,l),
(151,700,l),
(29,710,l),
(24,670,l),
(104,650,l),
(109,559,l),
(101,265,l),
(120,117,l),
(194,12,l),
(331,-17,l),
(447,-17,l),
(524,1,l),
(620,105,l),
(641,275,l),
(645,588,l)
);
},
{
closed = 1;
nodes = (
(563,780,l),
(478,871,l),
(441,925,l),
(378,925,l),
(351,881,l),
(253,780,l),
(256,764,l),
(285,756,l),
(405,856,l),
(460,803,l),
(525,756,l),
(551,766,l)
);
}
);
};
layerId = "E5E5D42B-30DE-4833-8EB6-3A8EE8AFE06C";
shapes = (
{
ref = U;
},
{
pos = (235,-52);
ref = circumflexcomb.case;
}
);
width = 745;
}
);
unicode = 219;
},
{
glyphname = Udieresis;
kernLeft = _KERN_U;
kernRight = _KERN_U;
lastChange = "2023-11-01 10:35:51 +0000";
layers = (
{
associatedMasterId = "E5E5D42B-30DE-4833-8EB6-3A8EE8AFE06C";
layerId = "87ED26C6-198F-4E2A-A721-CDA726DB5344";
name = img;
width = 745;
},
{
background = {
anchors = (
{
name = bottom;
pos = (373,0);
},
{
name = ogonek;
pos = (671,10);
},
{
name = top;
pos = (397,704);
},
{
name = topright;
pos = (725,705);
}
);
shapes = (
{
closed = 1;
nodes = (
(652,654,l),
(721,670,l),
(723,710,l),
(616,700,l),
(514,710,l),
(509,670,l),
(573,654,l),
(580,580,l),
(586,305,l),
(564,148,l),
(491,48,l),
(377,30,l),
(252,77,l),
(207,167,l),
(200,326,l),
(208,555,l),
(219,650,l),
(286,670,l),
(288,710,l),
(151,700,l),
(29,710,l),
(24,670,l),
(104,650,l),
(109,559,l),
(101,265,l),
(120,117,l),
(194,12,l),
(331,-17,l),
(447,-17,l),
(524,1,l),
(620,105,l),
(641,275,l),
(645,588,l)
);
},
{
closed = 1;
nodes = (
(235,840,l),
(255,797,l),
(298,771,l),
(343,789,l),
(370,831,l),
(349,883,l),
(302,898,l),
(258,877,l)
);
},
{
closed = 1;
nodes = (
(430,840,l),
(447,797,l),
(488,771,l),
(533,789,l),
(559,831,l),
(539,883,l),
(493,898,l),
(448,877,l)
);
}
);
};
layerId = "E5E5D42B-30DE-4833-8EB6-3A8EE8AFE06C";
shapes = (
{
ref = U;
},
{
pos = (218,-52);
ref = dieresiscomb.case;
}
);
width = 745;
}
);
unicode = 220;
},
{
glyphname = Ugrave;
kernLeft = _KERN_U;
kernRight = _KERN_U;
lastChange = "2023-11-01 10:35:51 +0000";
layers = (
{
associatedMasterId = "E5E5D42B-30DE-4833-8EB6-3A8EE8AFE06C";
layerId = "87ED26C6-198F-4E2A-A721-CDA726DB5344";
name = img;
width = 745;
},
{
background = {
anchors = (
{
name = bottom;
pos = (373,0);
},
{
name = ogonek;
pos = (671,10);
},
{
name = top;
pos = (397,704);
},
{
name = topright;
pos = (725,705);
}
);
shapes = (
{
closed = 1;
nodes = (
(652,654,l),
(721,670,l),
(723,710,l),
(616,700,l),
(514,710,l),
(509,670,l),
(573,654,l),
(580,580,l),
(586,305,l),
(564,148,l),
(491,48,l),
(377,30,l),
(252,77,l),
(207,167,l),
(200,326,l),
(208,555,l),
(219,650,l),
(286,670,l),
(288,710,l),
(151,700,l),
(29,710,l),
(24,670,l),
(104,650,l),
(109,559,l),
(101,265,l),
(120,117,l),
(194,12,l),
(331,-17,l),
(447,-17,l),
(524,1,l),
(620,105,l),
(641,275,l),
(645,588,l)
);
},
{
closed = 1;
nodes = (
(335,910,l),
(273,871,l),
(272,845,l),
(327,816,l),
(438,744,l),
(468,772,l)
);
}
);
};
layerId = "E5E5D42B-30DE-4833-8EB6-3A8EE8AFE06C";
shapes = (
{
ref = U;
},
{
pos = (246,-52);
ref = gravecomb.case;
}
);
width = 745;
}
);
unicode = 217;
},
{
glyphname = Umacron;
lastChange = "2023-11-01 10:35:51 +0000";
layers = (
{
background = {
anchors = (
{
name = bottom;
pos = (373,0);
},
{
name = ogonek;
pos = (671,10);
},
{
name = top;
pos = (397,838);
},
{
name = topright;
pos = (725,705);
}
);
shapes = (
{
closed = 1;
nodes = (
(652,654,l),
(721,670,l),
(723,710,l),
(616,700,l),
(514,710,l),
(509,670,l),
(573,654,l),
(580,580,l),
(586,305,l),
(564,148,l),
(491,48,l),
(377,30,l),
(252,77,l),
(207,167,l),
(200,326,l),
(208,555,l),
(219,650,l),
(286,670,l),
(288,710,l),
(151,700,l),
(29,710,l),
(24,670,l),
(104,650,l),
(109,559,l),
(101,265,l),
(120,117,l),
(194,12,l),
(331,-17,l),
(447,-17,l),
(524,1,l),
(620,105,l),
(641,275,l),
(645,588,l)
);
},
{
closed = 1;
nodes = (
(555,814,l),
(564,878,l),
(483,868,l),
(246,860,l),
(237,796,l),
(319,807,l)
);
}
);
};
layerId = "E5E5D42B-30DE-4833-8EB6-3A8EE8AFE06C";
shapes = (
{
ref = U;
},
{
pos = (132,199);
ref = macroncomb;
}
);
width = 745;
}
);
unicode = 362;
},
{
glyphname = Uring;
lastChange = "2023-11-01 10:35:51 +0000";
layers = (
{
background = {
anchors = (
{
name = bottom;
pos = (373,0);
},
{
name = ogonek;
pos = (671,10);
},
{
name = top;
pos = (397,704);
},
{
name = topright;
pos = (725,705);
}
);
shapes = (
{
closed = 1;
nodes = (
(652,654,l),
(721,670,l),
(723,710,l),
(616,700,l),
(514,710,l),
(509,670,l),
(573,654,l),
(580,580,l),
(586,305,l),
(564,148,l),
(491,48,l),
(377,30,l),
(252,77,l),
(207,167,l),
(200,326,l),
(208,555,l),
(219,650,l),
(286,670,l),
(288,710,l),
(151,700,l),
(29,710,l),
(24,670,l),
(104,650,l),
(109,559,l),
(101,265,l),
(120,117,l),
(194,12,l),
(331,-17,l),
(447,-17,l),
(524,1,l),
(620,105,l),
(641,275,l),
(645,588,l)
);
},
{
closed = 1;
nodes = (
(350,862,l),
(364,890,l),
(401,903,l),
(432,891,l),
(445,856,l),
(431,826,l),
(394,814,l),
(362,829,l)
);
},
{
closed = 1;
nodes = (
(291,864,l),
(321,791,l),
(390,755,l),
(463,782,l),
(503,842,l),
(477,927,l),
(404,957,l),
(330,935,l)
);
}
);
};
layerId = "E5E5D42B-30DE-4833-8EB6-3A8EE8AFE06C";
shapes = (
{
ref = U;
},
{
pos = (267,199);
ref = ringcomb;
}
);
width = 745;
}
);
unicode = 366;
},
{
glyphname = V;
lastChange = "2023-11-01 10:35:51 +0000";
layers = (
{
associatedMasterId = "E5E5D42B-30DE-4833-8EB6-3A8EE8AFE06C";
layerId = "7A591EA4-4D9F-4E22-AD94-0C62A3908D71";
name = public.background;
shapes = (
{
closed = 1;
nodes = (
(605,650,l),
(628,661,o),
(659,666,o),
(687,670,c),
(691,682,o),
(691,693,o),
(689,705,c),
(652,703,o),
(619,700,o),
(581,700,cs),
(544,700,o),
(514,703,o),
(478,705,c),
(472,693,o),
(471,682,o),
(473,670,c),
(550,650,l),
(417,267,l),
(401,217,o),
(385,165,o),
(371,117,c),
(369,117,l),
(361,163,o),
(347,207,o),
(327,262,cs),
(182,650,l),
(208,660,o),
(234,666,o),
(262,670,c),
(266,682,o),
(266,693,o),
(264,705,c),
(227,703,o),
(165,700,o),
(127,700,cs),
(90,700,o),
(26,703,o),
(-10,705,c),
(-16,693,o),
(-17,682,o),
(-15,670,c),
(62,650,l),
(329,-30,l),
(341,-30,o),
(355,-26,o),
(365,-20,c)
);
}
);
width = 673;
},
{
anchors = (
{
name = bottom;
pos = (337,0);
},
{
name = top;
pos = (337,705);
}
);
background = {
anchors = (
{
name = bottom;
pos = (337,0);
},
{
name = top;
pos = (337,705);
}
);
shapes = (
{
closed = 1;
nodes = (
(614,652,l),
(685,670,l),
(687,710,l),
(579,700,l),
(476,710,l),
(471,670,l),
(540,653,l),
(524,573,l),
(423,272,l),
(368,102,l),
(366,102,l),
(327,259,l),
(208,568,l),
(188,654,l),
(258,670,l),
(260,710,l),
(127,700,l),
(-10,710,l),
(-15,670,l),
(51,652,l),
(102,556,l),
(193,341,l),
(296,63,l),
(317,-29,l),
(350,-25,l),
(391,36,l),
(562,537,l)
);
}
);
};
layerId = "E5E5D42B-30DE-4833-8EB6-3A8EE8AFE06C";
shapes = (
{
closed = 1;
nodes = (
(614,652,l),
(685,670,l),
(687,710,l),
(579,700,l),
(476,710,l),
(471,670,l),
(540,653,l),
(524,573,l),
(423,272,l),
(368,102,l),
(366,102,l),
(327,259,l),
(208,568,l),
(188,654,l),
(258,670,l),
(260,710,l),
(127,700,l),
(-10,710,l),
(-15,670,l),
(51,652,l),
(102,556,l),
(193,341,l),
(296,63,l),
(317,-29,l),
(350,-25,l),
(391,36,l),
(562,537,l)
);
}
);
width = 673;
}
);
unicode = 86;
},
{
glyphname = W;
lastChange = "2023-11-01 10:35:51 +0000";
layers = (
{
associatedMasterId = "E5E5D42B-30DE-4833-8EB6-3A8EE8AFE06C";
layerId = "7A591EA4-4D9F-4E22-AD94-0C62A3908D71";
name = public.background;
shapes = (
{
closed = 1;
nodes = (
(363,254,l),
(344,199,o),
(328,146,o),
(320,95,c),
(318,95,l),
(309,146,o),
(292,205,o),
(278,257,cs),
(173,650,l),
(200,661,o),
(228,667,o),
(257,670,c),
(261,682,o),
(261,693,o),
(259,705,c),
(222,703,o),
(160,700,o),
(122,700,cs),
(85,700,o),
(21,703,o),
(-15,705,c),
(-21,693,o),
(-22,682,o),
(-20,670,c),
(57,650,l),
(278,-30,l),
(290,-30,o),
(315,-26,o),
(325,-20,c),
(488,487,l),
(674,-30,l),
(686,-30,o),
(715,-26,o),
(725,-20,c),
(910,650,l),
(937,660,o),
(965,665,o),
(992,670,c),
(996,682,o),
(996,693,o),
(994,705,c),
(957,703,o),
(925,700,o),
(887,700,cs),
(850,700,o),
(810,703,o),
(774,705,c),
(768,693,o),
(767,682,o),
(769,670,c),
(856,650,l),
(754,262,ls),
(740,211,o),
(726,156,o),
(717,106,c),
(715,106,l),
(707,152,o),
(687,215,o),
(672,262,cs),
(548,650,l),
(575,664,o),
(602,665,o),
(629,670,c),
(633,682,o),
(633,693,o),
(631,705,c),
(594,703,o),
(532,700,o),
(494,700,cs),
(457,700,o),
(393,703,o),
(357,705,c),
(351,693,o),
(350,682,o),
(352,670,c),
(429,650,l),
(460,564,l)
);
}
);
width = 992;
},
{
anchors = (
{
name = bottom;
pos = (496,0);
},
{
name = top;
pos = (496,705);
}
);
background = {
anchors = (
{
name = bottom;
pos = (496,0);
},
{
name = top;
pos = (496,705);
}
);
shapes = (
{
closed = 1;
nodes = (
(921,651,l),
(993,670,l),
(995,710,l),
(889,700,l),
(774,710,l),
(769,670,l),
(848,653,l),
(834,573,l),
(750,272,l),
(714,105,l),
(712,105,l),
(674,259,l),
(571,568,l),
(552,654,l),
(621,670,l),
(623,710,l),
(490,700,l),
(357,710,l),
(352,670,l),
(431,650,l),
(464,573,l),
(369,272,l),
(319,102,l),
(317,102,l),
(278,259,l),
(201,568,l),
(181,654,l),
(251,670,l),
(253,710,l),
(120,700,l),
(-17,710,l),
(-22,670,l),
(55,652,l),
(95,556,l),
(157,341,l),
(247,63,l),
(268,-29,l),
(301,-25,l),
(342,36,l),
(491,497,l),
(546,338,l),
(643,63,l),
(674,-29,l),
(707,-25,l),
(741,36,l),
(880,553,l)
);
}
);
};
guides = (
{
pos = (0,390);
},
{
pos = (0,262);
},
{
pos = (0,106);
}
);
layerId = "E5E5D42B-30DE-4833-8EB6-3A8EE8AFE06C";
shapes = (
{
closed = 1;
nodes = (
(921,651,l),
(993,670,l),
(995,710,l),
(889,700,l),
(774,710,l),
(769,670,l),
(848,653,l),
(834,573,l),
(750,272,l),
(714,105,l),
(712,105,l),
(674,259,l),
(571,568,l),
(552,654,l),
(621,670,l),
(623,710,l),
(490,700,l),
(357,710,l),
(352,670,l),
(431,650,l),
(464,573,l),
(369,272,l),
(319,102,l),
(317,102,l),
(278,259,l),
(201,568,l),
(181,654,l),
(251,670,l),
(253,710,l),
(120,700,l),
(-17,710,l),
(-22,670,l),
(55,652,l),
(95,556,l),
(157,341,l),
(247,63,l),
(268,-29,l),
(301,-25,l),
(342,36,l),
(491,497,l),
(546,338,l),
(643,63,l),
(674,-29,l),
(707,-25,l),
(741,36,l),
(880,553,l)
);
}
);
width = 992;
}
);
unicode = 87;
},
{
glyphname = Wacute;
lastChange = "2023-11-01 10:35:51 +0000";
layers = (
{
background = {
anchors = (
{
name = bottom;
pos = (496,0);
},
{
name = top;
pos = (496,705);
}
);
shapes = (
{
closed = 1;
nodes = (
(921,651,l),
(993,670,l),
(995,710,l),
(889,700,l),
(774,710,l),
(769,670,l),
(848,653,l),
(834,573,l),
(750,272,l),
(714,105,l),
(712,105,l),
(674,259,l),
(571,568,l),
(552,654,l),
(621,670,l),
(623,710,l),
(490,700,l),
(357,710,l),
(352,670,l),
(431,650,l),
(464,573,l),
(369,272,l),
(319,102,l),
(317,102,l),
(278,259,l),
(201,568,l),
(181,654,l),
(251,670,l),
(253,710,l),
(120,700,l),
(-17,710,l),
(-22,670,l),
(55,652,l),
(95,556,l),
(157,341,l),
(247,63,l),
(268,-29,l),
(301,-25,l),
(342,36,l),
(491,497,l),
(546,338,l),
(643,63,l),
(674,-29,l),
(707,-25,l),
(741,36,l),
(880,553,l)
);
},
{
closed = 1;
nodes = (
(440,773,l),
(470,745,l),
(581,817,l),
(636,846,l),
(635,872,l),
(573,911,l)
);
}
);
};
layerId = "E5E5D42B-30DE-4833-8EB6-3A8EE8AFE06C";
shapes = (
{
ref = W;
},
{
pos = (412,-51);
ref = acutecomb.case;
}
);
width = 992;
}
);
unicode = 7810;
},
{
glyphname = Wcircumflex;
lastChange = "2023-11-01 10:35:51 +0000";
layers = (
{
background = {
anchors = (
{
name = bottom;
pos = (496,0);
},
{
name = top;
pos = (496,705);
}
);
shapes = (
{
closed = 1;
nodes = (
(921,651,l),
(993,670,l),
(995,710,l),
(889,700,l),
(774,710,l),
(769,670,l),
(848,653,l),
(834,573,l),
(750,272,l),
(714,105,l),
(712,105,l),
(674,259,l),
(571,568,l),
(552,654,l),
(621,670,l),
(623,710,l),
(490,700,l),
(357,710,l),
(352,670,l),
(431,650,l),
(464,573,l),
(369,272,l),
(319,102,l),
(317,102,l),
(278,259,l),
(201,568,l),
(181,654,l),
(251,670,l),
(253,710,l),
(120,700,l),
(-17,710,l),
(-22,670,l),
(55,652,l),
(95,556,l),
(157,341,l),
(247,63,l),
(268,-29,l),
(301,-25,l),
(342,36,l),
(491,497,l),
(546,338,l),
(643,63,l),
(674,-29,l),
(707,-25,l),
(741,36,l),
(880,553,l)
);
},
{
closed = 1;
nodes = (
(662,781,l),
(577,872,l),
(540,926,l),
(477,926,l),
(450,882,l),
(352,781,l),
(355,765,l),
(384,757,l),
(504,857,l),
(559,804,l),
(624,757,l),
(650,767,l)
);
}
);
};
layerId = "E5E5D42B-30DE-4833-8EB6-3A8EE8AFE06C";
shapes = (
{
ref = W;
},
{
pos = (334,-51);
ref = circumflexcomb.case;
}
);
width = 992;
}
);
unicode = 372;
},
{
glyphname = Wdieresis;
lastChange = "2023-11-01 10:35:51 +0000";
layers = (
{
background = {
anchors = (
{
name = bottom;
pos = (496,0);
},
{
name = top;
pos = (496,705);
}
);
shapes = (
{
closed = 1;
nodes = (
(921,651,l),
(993,670,l),
(995,710,l),
(889,700,l),
(774,710,l),
(769,670,l),
(848,653,l),
(834,573,l),
(750,272,l),
(714,105,l),
(712,105,l),
(674,259,l),
(571,568,l),
(552,654,l),
(621,670,l),
(623,710,l),
(490,700,l),
(357,710,l),
(352,670,l),
(431,650,l),
(464,573,l),
(369,272,l),
(319,102,l),
(317,102,l),
(278,259,l),
(201,568,l),
(181,654,l),
(251,670,l),
(253,710,l),
(120,700,l),
(-17,710,l),
(-22,670,l),
(55,652,l),
(95,556,l),
(157,341,l),
(247,63,l),
(268,-29,l),
(301,-25,l),
(342,36,l),
(491,497,l),
(546,338,l),
(643,63,l),
(674,-29,l),
(707,-25,l),
(741,36,l),
(880,553,l)
);
},
{
closed = 1;
nodes = (
(334,841,l),
(354,798,l),
(397,772,l),
(442,790,l),
(469,832,l),
(448,884,l),
(401,899,l),
(357,878,l)
);
},
{
closed = 1;
nodes = (
(529,841,l),
(546,798,l),
(587,772,l),
(632,790,l),
(658,832,l),
(638,884,l),
(592,899,l),
(547,878,l)
);
}
);
};
layerId = "E5E5D42B-30DE-4833-8EB6-3A8EE8AFE06C";
shapes = (
{
ref = W;
},
{
pos = (317,-51);
ref = dieresiscomb.case;
}
);
width = 992;
}
);
unicode = 7812;
},
{
glyphname = Wgrave;
lastChange = "2023-11-01 10:35:51 +0000";
layers = (
{
background = {
anchors = (
{
name = bottom;
pos = (496,0);
},
{
name = top;
pos = (496,705);
}
);
shapes = (
{
closed = 1;
nodes = (
(921,651,l),
(993,670,l),
(995,710,l),
(889,700,l),
(774,710,l),
(769,670,l),
(848,653,l),
(834,573,l),
(750,272,l),
(714,105,l),
(712,105,l),
(674,259,l),
(571,568,l),
(552,654,l),
(621,670,l),
(623,710,l),
(490,700,l),
(357,710,l),
(352,670,l),
(431,650,l),
(464,573,l),
(369,272,l),
(319,102,l),
(317,102,l),
(278,259,l),
(201,568,l),
(181,654,l),
(251,670,l),
(253,710,l),
(120,700,l),
(-17,710,l),
(-22,670,l),
(55,652,l),
(95,556,l),
(157,341,l),
(247,63,l),
(268,-29,l),
(301,-25,l),
(342,36,l),
(491,497,l),
(546,338,l),
(643,63,l),
(674,-29,l),
(707,-25,l),
(741,36,l),
(880,553,l)
);
},
{
closed = 1;
nodes = (
(434,911,l),
(372,872,l),
(371,846,l),
(426,817,l),
(537,745,l),
(567,773,l)
);
}
);
};
layerId = "E5E5D42B-30DE-4833-8EB6-3A8EE8AFE06C";
shapes = (
{
ref = W;
},
{
pos = (345,-51);
ref = gravecomb.case;
}
);
width = 992;
}
);
unicode = 7808;
},
{
glyphname = X;
lastChange = "2023-11-01 10:35:51 +0000";
layers = (
{
associatedMasterId = "E5E5D42B-30DE-4833-8EB6-3A8EE8AFE06C";
layerId = "7A591EA4-4D9F-4E22-AD94-0C62A3908D71";
name = public.background;
shapes = (
{
closed = 1;
nodes = (
(575,650,l),
(601,661,o),
(635,668,o),
(657,670,c),
(661,682,o),
(661,693,o),
(659,705,c),
(622,703,o),
(590,700,o),
(552,700,cs),
(515,700,o),
(482,703,o),
(446,705,c),
(440,693,o),
(439,682,o),
(441,670,c),
(518,650,l),
(354,422,l),
(212,650,l),
(234,660,o),
(264,665,o),
(293,670,c),
(297,682,o),
(297,693,o),
(295,705,c),
(258,703,o),
(193,700,o),
(155,700,cs),
(118,700,o),
(54,703,o),
(18,705,c),
(12,693,o),
(11,682,o),
(13,670,c),
(90,650,l),
(285,343,l),
(74,50,l),
(50,38,o),
(23,34,o),
(-6,30,c),
(-10,18,o),
(-10,7,o),
(-8,-5,c),
(29,-3,o),
(56,0,o),
(94,0,cs),
(131,0,o),
(173,-3,o),
(209,-5,c),
(215,7,o),
(216,18,o),
(214,30,c),
(137,50,l),
(312,299,l),
(471,50,l),
(449,42,o),
(422,36,o),
(390,30,c),
(386,18,o),
(386,7,o),
(388,-5,c),
(425,-3,o),
(502,0,o),
(540,0,cs),
(577,0,o),
(637,-3,o),
(673,-5,c),
(679,7,o),
(680,18,o),
(678,30,c),
(653,32,o),
(603,40,o),
(585,58,c),
(382,381,l)
);
}
);
width = 671;
},
{
anchors = (
{
name = bottom;
pos = (336,0);
},
{
name = top;
pos = (336,705);
}
);
background = {
anchors = (
{
name = bottom;
pos = (336,0);
},
{
name = top;
pos = (336,705);
}
);
shapes = (
{
closed = 1;
nodes = (
(585,654,l),
(657,670,l),
(659,710,l),
(552,700,l),
(446,710,l),
(441,670,l),
(504,655,l),
(484,608,l),
(397,485,l),
(354,410,l),
(352,410,l),
(302,506,l),
(248,593,l),
(225,653,l),
(296,670,l),
(298,710,l),
(158,700,l),
(21,710,l),
(16,670,l),
(85,652,l),
(147,572,l),
(282,349,l),
(182,192,l),
(74,50,l),
(-6,30,l),
(-8,-10,l),
(94,0,l),
(209,-10,l),
(214,30,l),
(148,49,l),
(182,114,l),
(261,227,l),
(312,306,l),
(314,306,l),
(359,225,l),
(424,123,l),
(461,46,l),
(390,26,l),
(388,-10,l),
(540,0,l),
(673,-10,l),
(678,26,l),
(585,54,l),
(385,375,l),
(494,542,l),
(539,601,l)
);
}
);
};
layerId = "E5E5D42B-30DE-4833-8EB6-3A8EE8AFE06C";
shapes = (
{
closed = 1;
nodes = (
(585,654,l),
(657,670,l),
(659,710,l),
(552,700,l),
(446,710,l),
(441,670,l),
(504,655,l),
(484,608,l),
(397,485,l),
(354,410,l),
(352,410,l),
(302,506,l),
(248,593,l),
(225,653,l),
(296,670,l),
(298,710,l),
(158,700,l),
(21,710,l),
(16,670,l),
(85,652,l),
(147,572,l),
(282,349,l),
(182,192,l),
(74,50,l),
(-6,30,l),
(-8,-10,l),
(94,0,l),
(209,-10,l),
(214,30,l),
(148,49,l),
(182,114,l),
(261,227,l),
(312,306,l),
(314,306,l),
(359,225,l),
(424,123,l),
(461,46,l),
(390,26,l),
(388,-10,l),
(540,0,l),
(673,-10,l),
(678,26,l),
(585,54,l),
(385,375,l),
(494,542,l),
(539,601,l)
);
}
);
width = 671;
}
);
unicode = 88;
},
{
glyphname = Y;
kernLeft = _KERN_Y;
kernRight = _KERN_Y;
lastChange = "2023-11-01 10:35:51 +0000";
layers = (
{
associatedMasterId = "E5E5D42B-30DE-4833-8EB6-3A8EE8AFE06C";
layerId = "7A591EA4-4D9F-4E22-AD94-0C62A3908D71";
name = public.background;
shapes = (
{
closed = 1;
nodes = (
(384,321,l),
(576,650,l),
(601,662,o),
(633,666,o),
(661,670,c),
(665,682,o),
(665,693,o),
(663,705,c),
(626,703,o),
(594,700,o),
(556,700,cs),
(519,700,o),
(479,703,o),
(443,705,c),
(437,693,o),
(436,682,o),
(438,670,c),
(515,650,l),
(349,366,l),
(345,366,l),
(180,650,l),
(207,663,o),
(234,666,o),
(261,670,c),
(265,682,o),
(265,693,o),
(263,705,c),
(226,703,o),
(161,700,o),
(123,700,cs),
(86,700,o),
(28,703,o),
(-8,705,c),
(-14,693,o),
(-15,682,o),
(-13,670,c),
(64,650,l),
(279,301,l),
(279,50,l),
(252,37,o),
(226,34,o),
(199,30,c),
(195,18,o),
(195,7,o),
(197,-5,c),
(234,-3,o),
(296,0,o),
(334,0,cs),
(371,0,o),
(430,-3,o),
(466,-5,c),
(472,7,o),
(473,18,o),
(471,30,c),
(384,50,l)
);
}
);
width = 655;
},
{
anchors = (
{
name = bottom;
pos = (328,0);
},
{
name = top;
pos = (334,705);
},
{
name = topleft;
pos = (20,705);
}
);
background = {
anchors = (
{
name = bottom;
pos = (328,0);
},
{
name = top;
pos = (334,705);
},
{
name = topleft;
pos = (20,705);
}
);
shapes = (
{
closed = 1;
nodes = (
(375,316,l),
(537,583,l),
(588,654,l),
(661,670,l),
(663,710,l),
(556,700,l),
(443,710,l),
(438,670,l),
(510,658,l),
(484,585,l),
(398,445,l),
(349,358,l),
(345,358,l),
(294,454,l),
(218,583,l),
(189,654,l),
(261,670,l),
(263,710,l),
(123,700,l),
(-8,710,l),
(-13,670,l),
(57,652,l),
(117,582,l),
(289,291,l),
(286,129,l),
(281,48,l),
(202,30,l),
(200,-10,l),
(334,0,l),
(466,-10,l),
(471,30,l),
(390,50,l),
(382,130,l)
);
}
);
};
layerId = "E5E5D42B-30DE-4833-8EB6-3A8EE8AFE06C";
shapes = (
{
closed = 1;
nodes = (
(375,316,l),
(537,583,l),
(588,654,l),
(661,670,l),
(663,710,l),
(556,700,l),
(443,710,l),
(438,670,l),
(510,658,l),
(484,585,l),
(398,445,l),
(349,358,l),
(345,358,l),
(294,454,l),
(218,583,l),
(189,654,l),
(261,670,l),
(263,710,l),
(123,700,l),
(-8,710,l),
(-13,670,l),
(57,652,l),
(117,582,l),
(289,291,l),
(286,129,l),
(281,48,l),
(202,30,l),
(200,-10,l),
(334,0,l),
(466,-10,l),
(471,30,l),
(390,50,l),
(382,130,l)
);
}
);
width = 655;
}
);
unicode = 89;
},
{
glyphname = Yacute;
kernLeft = _KERN_Y;
kernRight = _KERN_Y;
lastChange = "2023-11-01 10:35:51 +0000";
layers = (
{
associatedMasterId = "E5E5D42B-30DE-4833-8EB6-3A8EE8AFE06C";
layerId = "87ED26C6-198F-4E2A-A721-CDA726DB5344";
name = img;
width = 655;
},
{
background = {
anchors = (
{
name = bottom;
pos = (328,0);
},
{
name = top;
pos = (334,705);
},
{
name = topleft;
pos = (20,705);
}
);
shapes = (
{
closed = 1;
nodes = (
(375,316,l),
(537,583,l),
(588,654,l),
(661,670,l),
(663,710,l),
(556,700,l),
(443,710,l),
(438,670,l),
(510,658,l),
(484,585,l),
(398,445,l),
(349,358,l),
(345,358,l),
(294,454,l),
(218,583,l),
(189,654,l),
(261,670,l),
(263,710,l),
(123,700,l),
(-8,710,l),
(-13,670,l),
(57,652,l),
(117,582,l),
(289,291,l),
(286,129,l),
(281,48,l),
(202,30,l),
(200,-10,l),
(334,0,l),
(466,-10,l),
(471,30,l),
(390,50,l),
(382,130,l)
);
},
{
closed = 1;
nodes = (
(278,773,l),
(308,745,l),
(419,817,l),
(474,846,l),
(473,872,l),
(411,911,l)
);
}
);
};
layerId = "E5E5D42B-30DE-4833-8EB6-3A8EE8AFE06C";
shapes = (
{
ref = Y;
},
{
pos = (250,-51);
ref = acutecomb.case;
}
);
width = 655;
}
);
unicode = 221;
},
{
glyphname = Ycircumflex;
lastChange = "2023-11-01 10:35:51 +0000";
layers = (
{
background = {
anchors = (
{
name = bottom;
pos = (328,0);
},
{
name = top;
pos = (334,705);
},
{
name = topleft;
pos = (20,705);
}
);
shapes = (
{
closed = 1;
nodes = (
(375,316,l),
(537,583,l),
(588,654,l),
(661,670,l),
(663,710,l),
(556,700,l),
(443,710,l),
(438,670,l),
(510,658,l),
(484,585,l),
(398,445,l),
(349,358,l),
(345,358,l),
(294,454,l),
(218,583,l),
(189,654,l),
(261,670,l),
(263,710,l),
(123,700,l),
(-8,710,l),
(-13,670,l),
(57,652,l),
(117,582,l),
(289,291,l),
(286,129,l),
(281,48,l),
(202,30,l),
(200,-10,l),
(334,0,l),
(466,-10,l),
(471,30,l),
(390,50,l),
(382,130,l)
);
},
{
closed = 1;
nodes = (
(500,781,l),
(415,872,l),
(378,926,l),
(315,926,l),
(288,882,l),
(190,781,l),
(193,765,l),
(222,757,l),
(342,857,l),
(397,804,l),
(462,757,l),
(488,767,l)
);
}
);
};
layerId = "E5E5D42B-30DE-4833-8EB6-3A8EE8AFE06C";
shapes = (
{
ref = Y;
},
{
pos = (172,-51);
ref = circumflexcomb.case;
}
);
width = 655;
}
);
unicode = 374;
},
{
glyphname = Ydieresis;
lastChange = "2023-11-01 10:35:51 +0000";
layers = (
{
background = {
anchors = (
{
name = bottom;
pos = (328,0);
},
{
name = top;
pos = (334,705);
},
{
name = topleft;
pos = (20,705);
}
);
shapes = (
{
closed = 1;
nodes = (
(375,316,l),
(537,583,l),
(588,654,l),
(661,670,l),
(663,710,l),
(556,700,l),
(443,710,l),
(438,670,l),
(510,658,l),
(484,585,l),
(398,445,l),
(349,358,l),
(345,358,l),
(294,454,l),
(218,583,l),
(189,654,l),
(261,670,l),
(263,710,l),
(123,700,l),
(-8,710,l),
(-13,670,l),
(57,652,l),
(117,582,l),
(289,291,l),
(286,129,l),
(281,48,l),
(202,30,l),
(200,-10,l),
(334,0,l),
(466,-10,l),
(471,30,l),
(390,50,l),
(382,130,l)
);
},
{
closed = 1;
nodes = (
(172,841,l),
(192,798,l),
(235,772,l),
(280,790,l),
(307,832,l),
(286,884,l),
(239,899,l),
(195,878,l)
);
},
{
closed = 1;
nodes = (
(367,841,l),
(384,798,l),
(425,772,l),
(470,790,l),
(496,832,l),
(476,884,l),
(430,899,l),
(385,878,l)
);
}
);
};
layerId = "E5E5D42B-30DE-4833-8EB6-3A8EE8AFE06C";
shapes = (
{
ref = Y;
},
{
pos = (155,-51);
ref = dieresiscomb.case;
}
);
width = 655;
}
);
unicode = 376;
},
{
glyphname = Ygrave;
lastChange = "2023-11-01 10:35:51 +0000";
layers = (
{
background = {
anchors = (
{
name = bottom;
pos = (328,0);
},
{
name = top;
pos = (334,705);
},
{
name = topleft;
pos = (20,705);
}
);
shapes = (
{
closed = 1;
nodes = (
(375,316,l),
(537,583,l),
(588,654,l),
(661,670,l),
(663,710,l),
(556,700,l),
(443,710,l),
(438,670,l),
(510,658,l),
(484,585,l),
(398,445,l),
(349,358,l),
(345,358,l),
(294,454,l),
(218,583,l),
(189,654,l),
(261,670,l),
(263,710,l),
(123,700,l),
(-8,710,l),
(-13,670,l),
(57,652,l),
(117,582,l),
(289,291,l),
(286,129,l),
(281,48,l),
(202,30,l),
(200,-10,l),
(334,0,l),
(466,-10,l),
(471,30,l),
(390,50,l),
(382,130,l)
);
},
{
closed = 1;
nodes = (
(272,911,l),
(210,872,l),
(209,846,l),
(264,817,l),
(375,745,l),
(405,773,l)
);
}
);
};
layerId = "E5E5D42B-30DE-4833-8EB6-3A8EE8AFE06C";
shapes = (
{
ref = Y;
},
{
pos = (183,-51);
ref = gravecomb.case;
}
);
width = 655;
}
);
unicode = 7922;
},
{
glyphname = Z;
lastChange = "2023-11-01 10:35:51 +0000";
layers = (
{
associatedMasterId = "E5E5D42B-30DE-4833-8EB6-3A8EE8AFE06C";
layerId = "7A591EA4-4D9F-4E22-AD94-0C62A3908D71";
name = public.background;
shapes = (
{
closed = 1;
nodes = (
(552,0,l),
(552,10,o),
(552,19,o),
(552,29,cs),
(552,82,o),
(551,134,o),
(542,185,c),
(529,190,o),
(518,190,o),
(502,188,c),
(473,45,l),
(154,45,l),
(547,660,l),
(550,672,o),
(550,686,o),
(547,700,c),
(51,700,l),
(51,638,o),
(56,577,o),
(61,515,c),
(74,510,o),
(85,510,o),
(101,512,c),
(130,655,l),
(431,655,l),
(34,45,l),
(31,30,o),
(32,15,o),
(34,0,c)
);
},
{
closed = 1;
nodes = (
(455,9,l),
(552,-1,l),
(543,48,l),
(541,179,l),
(505,187,l),
(479,54,l)
);
},
{
closed = 1;
nodes = (
(455,9,l),
(552,-1,l),
(543,48,l),
(541,179,l),
(505,187,l),
(479,54,l)
);
}
);
width = 595;
},
{
anchors = (
{
name = bottom;
pos = (298,0);
},
{
name = center;
pos = (298,353);
},
{
name = top;
pos = (298,705);
}
);
background = {
anchors = (
{
name = bottom;
pos = (298,0);
},
{
name = center;
pos = (298,353);
},
{
name = top;
pos = (298,705);
}
);
shapes = (
{
closed = 1;
nodes = (
(446,0,l),
(563,-10,l),
(548,59,l),
(542,181,l),
(504,190,l),
(479,61,l),
(160,40,l),
(154,48,l),
(429,480,l),
(529,652,l),
(588,666,l),
(583,709,l),
(445,700,l),
(159,700,l),
(42,710,l),
(57,641,l),
(63,515,l),
(105,506,l),
(135,643,l),
(428,662,l),
(434,655,l),
(385,583,l),
(237,339,l),
(59,50,l),
(6,31,l),
(11,-9,l),
(152,0,l)
);
}
);
};
guides = (
{
pos = (0,45);
}
);
layerId = "E5E5D42B-30DE-4833-8EB6-3A8EE8AFE06C";
shapes = (
{
closed = 1;
nodes = (
(446,0,l),
(563,-10,l),
(548,59,l),
(542,181,l),
(504,190,l),
(479,61,l),
(160,40,l),
(154,48,l),
(429,480,l),
(529,652,l),
(588,666,l),
(583,709,l),
(445,700,l),
(159,700,l),
(42,710,l),
(57,641,l),
(63,515,l),
(105,506,l),
(135,643,l),
(428,662,l),
(434,655,l),
(385,583,l),
(237,339,l),
(59,50,l),
(6,31,l),
(11,-9,l),
(152,0,l)
);
}
);
width = 595;
}
);
unicode = 90;
},
{
glyphname = Zacute;
lastChange = "2023-11-01 10:35:51 +0000";
layers = (
{
background = {
anchors = (
{
name = bottom;
pos = (298,0);
},
{
name = center;
pos = (298,353);
},
{
name = top;
pos = (298,705);
}
);
shapes = (
{
closed = 1;
nodes = (
(446,0,l),
(563,-10,l),
(548,59,l),
(542,181,l),
(504,190,l),
(479,61,l),
(160,40,l),
(154,48,l),
(429,480,l),
(529,652,l),
(588,666,l),
(583,709,l),
(445,700,l),
(159,700,l),
(42,710,l),
(57,641,l),
(63,515,l),
(105,506,l),
(135,643,l),
(428,662,l),
(434,655,l),
(385,583,l),
(237,339,l),
(59,50,l),
(6,31,l),
(11,-9,l),
(152,0,l)
);
},
{
closed = 1;
nodes = (
(242,773,l),
(272,745,l),
(383,817,l),
(438,846,l),
(437,872,l),
(375,911,l)
);
}
);
};
layerId = "E5E5D42B-30DE-4833-8EB6-3A8EE8AFE06C";
shapes = (
{
ref = Z;
},
{
pos = (214,-51);
ref = acutecomb.case;
}
);
width = 595;
}
);
unicode = 377;
},
{
glyphname = Zcaron;
lastChange = "2023-11-01 10:35:51 +0000";
layers = (
{
background = {
anchors = (
{
name = bottom;
pos = (298,0);
},
{
name = center;
pos = (298,353);
},
{
name = top;
pos = (298,705);
}
);
shapes = (
{
closed = 1;
nodes = (
(446,0,l),
(563,-10,l),
(548,59,l),
(542,181,l),
(504,190,l),
(479,61,l),
(160,40,l),
(154,48,l),
(429,480,l),
(529,652,l),
(588,666,l),
(583,709,l),
(445,700,l),
(159,700,l),
(42,710,l),
(57,641,l),
(63,515,l),
(105,506,l),
(135,643,l),
(428,662,l),
(434,655,l),
(385,583,l),
(237,339,l),
(59,50,l),
(6,31,l),
(11,-9,l),
(152,0,l)
);
},
{
closed = 1;
nodes = (
(436,915,l),
(410,925,l),
(355,878,l),
(294,820,l),
(170,925,l),
(141,917,l),
(138,901,l),
(236,800,l),
(263,756,l),
(326,756,l),
(363,810,l),
(448,901,l)
);
}
);
};
layerId = "E5E5D42B-30DE-4833-8EB6-3A8EE8AFE06C";
shapes = (
{
ref = Z;
},
{
pos = (127,-50);
ref = caroncomb.case;
}
);
width = 595;
}
);
unicode = 381;
},
{
glyphname = a;
kernLeft = _KERN_a_2ND;
kernRight = _KERN_a_1ST;
lastChange = "2023-11-01 10:35:51 +0000";
layers = (
{
associatedMasterId = "E5E5D42B-30DE-4833-8EB6-3A8EE8AFE06C";
layerId = "7A591EA4-4D9F-4E22-AD94-0C62A3908D71";
name = public.background;
shapes = (
{
closed = 1;
nodes = (
(130,201,o),
(180,230,o),
(317,230,c),
(317,95,l),
(297,65,o),
(247,38,o),
(210,38,cs),
(162,38,o),
(130,65,o),
(130,120,cs)
);
},
{
closed = 1;
nodes = (
(415,317,ls),
(415,475,o),
(368,520,o),
(257,520,cs),
(182,520,o),
(122,509,o),
(59,480,c),
(58,439,o),
(67,394,o),
(79,350,c),
(89,348,o),
(112,349,o),
(123,354,c),
(136,460,l),
(166,471,o),
(196,475,o),
(230,475,cs),
(290,475,o),
(319,432,o),
(318,358,cs),
(317,270,l),
(176,273,o),
(30,244,o),
(30,110,cs),
(30,25,o),
(92,-17,o),
(172,-17,cs),
(239,-17,o),
(287,10,o),
(321,45,c),
(325,45,l),
(339,-7,l),
(355,-11,o),
(375,-13,o),
(396,-13,cs),
(427,-13,o),
(459,-10,o),
(480,-6,c),
(486,6,o),
(487,17,o),
(485,29,c),
(462,35,o),
(438,38,o),
(415,49,c)
);
},
{
closed = 1;
nodes = (
(62,438,l),
(81,343,l),
(121,356,l),
(111,470,l),
(121,591,l),
(81,585,l),
(62,486,l)
);
}
);
width = 496;
},
{
anchors = (
{
name = bottom;
pos = (248,0);
},
{
name = ogonek;
pos = (446,10);
},
{
name = top;
pos = (241,505);
}
);
background = {
anchors = (
{
name = bottom;
pos = (248,0);
},
{
name = ogonek;
pos = (446,10);
},
{
name = top;
pos = (241,505);
}
);
shapes = (
{
closed = 1;
nodes = (
(124,137,l),
(159,199,l),
(236,230,l),
(323,230,l),
(327,95,l),
(226,37,l),
(151,56,l)
);
},
{
closed = 1;
nodes = (
(408,396,l),
(376,482,l),
(298,520,l),
(169,514,l),
(54,480,l),
(80,343,l),
(119,351,l),
(122,457,l),
(219,480,l),
(300,457,l),
(319,395,l),
(323,270,l),
(191,265,l),
(71,213,l),
(27,135,l),
(48,37,l),
(118,-14,l),
(222,-14,l),
(321,45,l),
(326,45,l),
(339,-14,l),
(478,-2,l),
(485,31,l),
(416,41,l),
(409,182,l)
);
}
);
};
layerId = "E5E5D42B-30DE-4833-8EB6-3A8EE8AFE06C";
shapes = (
{
closed = 1;
nodes = (
(124,137,l),
(159,199,l),
(236,230,l),
(323,230,l),
(327,95,l),
(226,37,l),
(151,56,l)
);
},
{
closed = 1;
nodes = (
(408,396,l),
(376,482,l),
(298,520,l),
(169,514,l),
(54,480,l),
(80,343,l),
(119,351,l),
(122,457,l),
(219,480,l),
(300,457,l),
(319,395,l),
(323,270,l),
(191,265,l),
(71,213,l),
(27,135,l),
(48,37,l),
(118,-14,l),
(222,-14,l),
(321,45,l),
(326,45,l),
(339,-14,l),
(478,-2,l),
(485,31,l),
(416,41,l),
(409,182,l)
);
}
);
width = 496;
}
);
unicode = 97;
},
{
glyphname = aacute;
kernLeft = _KERN_a_2ND;
kernRight = _KERN_a_1ST;
lastChange = "2023-11-01 10:35:51 +0000";
layers = (
{
associatedMasterId = "E5E5D42B-30DE-4833-8EB6-3A8EE8AFE06C";
layerId = "87ED26C6-198F-4E2A-A721-CDA726DB5344";
name = img;
width = 496;
},
{
background = {
anchors = (
{
name = bottom;
pos = (248,0);
},
{
name = ogonek;
pos = (446,10);
},
{
name = top;
pos = (241,505);
}
);
shapes = (
{
closed = 1;
nodes = (
(124,137,l),
(159,199,l),
(236,230,l),
(323,230,l),
(327,95,l),
(226,37,l),
(151,56,l)
);
},
{
closed = 1;
nodes = (
(408,396,l),
(376,482,l),
(298,520,l),
(169,514,l),
(54,480,l),
(80,343,l),
(119,351,l),
(122,457,l),
(219,480,l),
(300,457,l),
(319,395,l),
(323,270,l),
(191,265,l),
(71,213,l),
(27,135,l),
(48,37,l),
(118,-14,l),
(222,-14,l),
(321,45,l),
(326,45,l),
(339,-14,l),
(478,-2,l),
(485,31,l),
(416,41,l),
(409,182,l)
);
},
{
closed = 1;
nodes = (
(203,583,l),
(239,566,l),
(321,671,l),
(363,717,l),
(353,740,l),
(283,757,l)
);
}
);
};
layerId = "E5E5D42B-30DE-4833-8EB6-3A8EE8AFE06C";
shapes = (
{
ref = a;
},
{
pos = (191,0);
ref = acutecomb;
}
);
width = 496;
}
);
unicode = 225;
},
{
glyphname = acircumflex;
kernLeft = _KERN_a_2ND;
kernRight = _KERN_a_1ST;
lastChange = "2023-11-01 10:35:51 +0000";
layers = (
{
associatedMasterId = "E5E5D42B-30DE-4833-8EB6-3A8EE8AFE06C";
layerId = "87ED26C6-198F-4E2A-A721-CDA726DB5344";
name = img;
width = 496;
},
{
background = {
anchors = (
{
name = bottom;
pos = (248,0);
},
{
name = ogonek;
pos = (446,10);
},
{
name = top;
pos = (241,505);
}
);
shapes = (
{
closed = 1;
nodes = (
(124,137,l),
(159,199,l),
(236,230,l),
(323,230,l),
(327,95,l),
(226,37,l),
(151,56,l)
);
},
{
closed = 1;
nodes = (
(408,396,l),
(376,482,l),
(298,520,l),
(169,514,l),
(54,480,l),
(80,343,l),
(119,351,l),
(122,457,l),
(219,480,l),
(300,457,l),
(319,395,l),
(323,270,l),
(191,265,l),
(71,213,l),
(27,135,l),
(48,37,l),
(118,-14,l),
(222,-14,l),
(321,45,l),
(326,45,l),
(339,-14,l),
(478,-2,l),
(485,31,l),
(416,41,l),
(409,182,l)
);
},
{
closed = 1;
nodes = (
(368,588,l),
(314,673,l),
(275,753,l),
(214,753,l),
(169,667,l),
(111,579,l),
(121,564,l),
(160,556,l),
(205,619,l),
(246,684,l),
(274,619,l),
(312,559,l),
(354,571,l)
);
}
);
};
layerId = "E5E5D42B-30DE-4833-8EB6-3A8EE8AFE06C";
shapes = (
{
ref = a;
},
{
pos = (113,0);
ref = circumflexcomb;
}
);
width = 496;
}
);
unicode = 226;
},
{
glyphname = adieresis;
kernLeft = _KERN_a_2ND;
kernRight = _KERN_a_1ST;
lastChange = "2023-11-01 10:35:51 +0000";
layers = (
{
associatedMasterId = "E5E5D42B-30DE-4833-8EB6-3A8EE8AFE06C";
layerId = "87ED26C6-198F-4E2A-A721-CDA726DB5344";
name = img;
width = 496;
},
{
background = {
anchors = (
{
name = bottom;
pos = (248,0);
},
{
name = ogonek;
pos = (446,10);
},
{
name = top;
pos = (241,505);
}
);
shapes = (
{
closed = 1;
nodes = (
(124,137,l),
(159,199,l),
(236,230,l),
(323,230,l),
(327,95,l),
(226,37,l),
(151,56,l)
);
},
{
closed = 1;
nodes = (
(408,396,l),
(376,482,l),
(298,520,l),
(169,514,l),
(54,480,l),
(80,343,l),
(119,351,l),
(122,457,l),
(219,480,l),
(300,457,l),
(319,395,l),
(323,270,l),
(191,265,l),
(71,213,l),
(27,135,l),
(48,37,l),
(118,-14,l),
(222,-14,l),
(321,45,l),
(326,45,l),
(339,-14,l),
(478,-2,l),
(485,31,l),
(416,41,l),
(409,182,l)
);
},
{
closed = 1;
nodes = (
(91,654,l),
(111,611,l),
(154,585,l),
(199,603,l),
(226,645,l),
(205,697,l),
(158,712,l),
(114,691,l)
);
},
{
closed = 1;
nodes = (
(256,654,l),
(277,611,l),
(319,585,l),
(364,603,l),
(391,645,l),
(370,697,l),
(324,712,l),
(279,691,l)
);
}
);
};
layerId = "E5E5D42B-30DE-4833-8EB6-3A8EE8AFE06C";
shapes = (
{
ref = a;
},
{
pos = (84,0);
ref = dieresiscomb;
}
);
width = 496;
}
);
unicode = 228;
},
{
glyphname = agrave;
kernLeft = _KERN_a_2ND;
kernRight = _KERN_a_1ST;
lastChange = "2023-11-01 10:35:51 +0000";
layers = (
{
associatedMasterId = "E5E5D42B-30DE-4833-8EB6-3A8EE8AFE06C";
layerId = "87ED26C6-198F-4E2A-A721-CDA726DB5344";
name = img;
width = 496;
},
{
background = {
anchors = (
{
name = bottom;
pos = (248,0);
},
{
name = ogonek;
pos = (446,10);
},
{
name = top;
pos = (241,505);
}
);
shapes = (
{
closed = 1;
nodes = (
(124,137,l),
(159,199,l),
(236,230,l),
(323,230,l),
(327,95,l),
(226,37,l),
(151,56,l)
);
},
{
closed = 1;
nodes = (
(408,396,l),
(376,482,l),
(298,520,l),
(169,514,l),
(54,480,l),
(80,343,l),
(119,351,l),
(122,457,l),
(219,480,l),
(300,457,l),
(319,395,l),
(323,270,l),
(191,265,l),
(71,213,l),
(27,135,l),
(48,37,l),
(118,-14,l),
(222,-14,l),
(321,45,l),
(326,45,l),
(339,-14,l),
(478,-2,l),
(485,31,l),
(416,41,l),
(409,182,l)
);
},
{
closed = 1;
nodes = (
(214,757,l),
(144,740,l),
(134,717,l),
(176,671,l),
(258,566,l),
(294,583,l)
);
}
);
};
layerId = "E5E5D42B-30DE-4833-8EB6-3A8EE8AFE06C";
shapes = (
{
ref = a;
},
{
pos = (132,0);
ref = gravecomb;
}
);
width = 496;
}
);
unicode = 224;
},
{
glyphname = amacron;
lastChange = "2023-11-01 10:35:51 +0000";
layers = (
{
background = {
anchors = (
{
name = bottom;
pos = (248,0);
},
{
name = ogonek;
pos = (446,10);
},
{
name = top;
pos = (241,639);
}
);
shapes = (
{
closed = 1;
nodes = (
(124,137,l),
(159,199,l),
(236,230,l),
(323,230,l),
(327,95,l),
(226,37,l),
(151,56,l)
);
},
{
closed = 1;
nodes = (
(408,396,l),
(376,482,l),
(298,520,l),
(169,514,l),
(54,480,l),
(80,343,l),
(119,351,l),
(122,457,l),
(219,480,l),
(300,457,l),
(319,395,l),
(323,270,l),
(191,265,l),
(71,213,l),
(27,135,l),
(48,37,l),
(118,-14,l),
(222,-14,l),
(321,45,l),
(326,45,l),
(339,-14,l),
(478,-2,l),
(485,31,l),
(416,41,l),
(409,182,l)
);
},
{
closed = 1;
nodes = (
(399,615,l),
(408,679,l),
(327,669,l),
(90,661,l),
(81,597,l),
(163,608,l)
);
}
);
};
layerId = "E5E5D42B-30DE-4833-8EB6-3A8EE8AFE06C";
shapes = (
{
ref = a;
},
{
pos = (-24,0);
ref = macroncomb;
}
);
width = 496;
}
);
unicode = 257;
},
{
glyphname = aring;
kernLeft = _KERN_a_2ND;
kernRight = _KERN_a_1ST;
lastChange = "2023-11-01 10:35:51 +0000";
layers = (
{
associatedMasterId = "E5E5D42B-30DE-4833-8EB6-3A8EE8AFE06C";
layerId = "87ED26C6-198F-4E2A-A721-CDA726DB5344";
name = img;
width = 496;
},
{
background = {
anchors = (
{
name = bottom;
pos = (248,0);
},
{
name = ogonek;
pos = (446,10);
},
{
name = top;
pos = (241,505);
}
);
shapes = (
{
closed = 1;
nodes = (
(124,137,l),
(159,199,l),
(236,230,l),
(323,230,l),
(327,95,l),
(226,37,l),
(151,56,l)
);
},
{
closed = 1;
nodes = (
(408,396,l),
(376,482,l),
(298,520,l),
(169,514,l),
(54,480,l),
(80,343,l),
(119,351,l),
(122,457,l),
(219,480,l),
(300,457,l),
(319,395,l),
(323,270,l),
(191,265,l),
(71,213,l),
(27,135,l),
(48,37,l),
(118,-14,l),
(222,-14,l),
(321,45,l),
(326,45,l),
(339,-14,l),
(478,-2,l),
(485,31,l),
(416,41,l),
(409,182,l)
);
},
{
closed = 1;
nodes = (
(194,663,l),
(208,691,l),
(245,704,l),
(276,692,l),
(289,657,l),
(275,627,l),
(238,615,l),
(206,630,l)
);
},
{
closed = 1;
nodes = (
(135,665,l),
(165,592,l),
(234,556,l),
(307,583,l),
(347,643,l),
(321,728,l),
(248,758,l),
(174,736,l)
);
}
);
};
layerId = "E5E5D42B-30DE-4833-8EB6-3A8EE8AFE06C";
shapes = (
{
ref = a;
},
{
pos = (111,0);
ref = ringcomb;
}
);
width = 496;
}
);
unicode = 229;
},
{
glyphname = atilde;
kernLeft = _KERN_a_2ND;
kernRight = _KERN_a_1ST;
lastChange = "2023-11-01 10:35:51 +0000";
layers = (
{
associatedMasterId = "E5E5D42B-30DE-4833-8EB6-3A8EE8AFE06C";
layerId = "87ED26C6-198F-4E2A-A721-CDA726DB5344";
name = img;
width = 496;
},
{
background = {
anchors = (
{
name = bottom;
pos = (248,0);
},
{
name = ogonek;
pos = (446,10);
},
{
name = top;
pos = (241,505);
}
);
shapes = (
{
closed = 1;
nodes = (
(124,137,l),
(159,199,l),
(236,230,l),
(323,230,l),
(327,95,l),
(226,37,l),
(151,56,l)
);
},
{
closed = 1;
nodes = (
(408,396,l),
(376,482,l),
(298,520,l),
(169,514,l),
(54,480,l),
(80,343,l),
(119,351,l),
(122,457,l),
(219,480,l),
(300,457,l),
(319,395,l),
(323,270,l),
(191,265,l),
(71,213,l),
(27,135,l),
(48,37,l),
(118,-14,l),
(222,-14,l),
(321,45,l),
(326,45,l),
(339,-14,l),
(478,-2,l),
(485,31,l),
(416,41,l),
(409,182,l)
);
},
{
closed = 1;
nodes = (
(147,626,l),
(186,627,l),
(267,591,l),
(315,590,l),
(361,619,l),
(382,675,l),
(353,685,l),
(324,657,l),
(287,657,l),
(205,696,l),
(145,694,l),
(82,620,l),
(107,597,l)
);
}
);
};
layerId = "E5E5D42B-30DE-4833-8EB6-3A8EE8AFE06C";
shapes = (
{
ref = a;
},
{
pos = (59,0);
ref = tildecomb;
}
);
width = 496;
}
);
unicode = 227;
},
{
glyphname = ae;
kernLeft = _KERN_a_2ND;
kernRight = _KERN_e_1ST;
lastChange = "2023-11-01 10:35:51 +0000";
layers = (
{
associatedMasterId = "E5E5D42B-30DE-4833-8EB6-3A8EE8AFE06C";
layerId = "7A591EA4-4D9F-4E22-AD94-0C62A3908D71";
name = public.background;
shapes = (
{
closed = 1;
nodes = (
(425,270,l),
(736,267,l),
(750,278,l),
(751,287,o),
(752,295,o),
(752,304,cs),
(752,429,o),
(692,520,o),
(567,520,cs),
(486,520,o),
(425,487,o),
(390,427,c),
(372,487,o),
(333,520,o),
(257,520,cs),
(182,520,o),
(122,509,o),
(59,480,c),
(59,438,o),
(66,394,o),
(79,350,c),
(89,348,o),
(112,349,o),
(123,354,c),
(136,460,l),
(166,471,o),
(196,475,o),
(230,475,cs),
(293,475,o),
(319,430,o),
(318,356,cs),
(317,270,l),
(176,273,o),
(30,242,o),
(30,108,cs),
(30,29,o),
(97,-21,o),
(177,-21,cs),
(259,-21,o),
(322,11,o),
(363,81,c),
(407,16,o),
(481,-20,o),
(572,-20,cs),
(638,-20,o),
(695,9,o),
(734,57,c),
(733,67,o),
(728,76,o),
(716,81,c),
(663,45,o),
(640,37,o),
(575,37,cs),
(482,37,o),
(425,115,o),
(425,250,cs)
);
},
{
closed = 1;
nodes = (
(130,199,o),
(180,230,o),
(317,230,c),
(320,95,o),
(286,38,o),
(210,38,cs),
(162,38,o),
(130,63,o),
(130,118,cs)
);
},
{
closed = 1;
nodes = (
(629,473,o),
(657,426,o),
(657,323,c),
(430,311,l),
(441,420,o),
(484,473,o),
(560,473,cs)
);
}
);
width = 786;
},
{
anchors = (
{
name = bottom;
pos = (393,0);
},
{
name = top;
pos = (393,505);
}
);
background = {
anchors = (
{
name = bottom;
pos = (393,0);
},
{
name = top;
pos = (393,505);
}
);
shapes = (
{
closed = 1;
nodes = (
(297,520,l),
(168,514,l),
(53,480,l),
(79,343,l),
(118,351,l),
(121,457,l),
(218,480,l),
(299,457,l),
(318,395,l),
(322,270,l),
(190,265,l),
(70,213,l),
(26,135,l),
(47,37,l),
(117,-14,l),
(221,-14,l),
(315,19,l),
(372,93,l),
(382,74,l),
(467,3,l),
(565,-20,l),
(659,-8,l),
(738,55,l),
(720,81,l),
(626,31,l),
(534,41,l),
(455,119,l),
(428,260,l),
(429,269,l),
(602,258,l),
(735,267,l),
(749,278,l),
(748,361,l),
(717,450,l),
(663,499,l),
(593,521,l),
(505,510,l),
(400,452,l),
(391,437,l),
(375,482,l)
);
},
{
closed = 1;
nodes = (
(123,137,l),
(158,199,l),
(235,230,l),
(322,230,l),
(322,145,l),
(305,82,l),
(225,37,l),
(150,56,l)
);
},
{
closed = 1;
nodes = (
(555,476,l),
(619,467,l),
(649,416,l),
(655,323,l),
(586,308,l),
(434,310,l),
(440,355,l),
(479,431,l)
);
}
);
};
layerId = "E5E5D42B-30DE-4833-8EB6-3A8EE8AFE06C";
shapes = (
{
closed = 1;
nodes = (
(297,520,l),
(168,514,l),
(53,480,l),
(79,343,l),
(118,351,l),
(121,457,l),
(218,480,l),
(299,457,l),
(318,395,l),
(322,270,l),
(190,265,l),
(70,213,l),
(26,135,l),
(47,37,l),
(117,-14,l),
(221,-14,l),
(315,19,l),
(372,93,l),
(382,74,l),
(467,3,l),
(565,-20,l),
(659,-8,l),
(738,55,l),
(720,81,l),
(626,31,l),
(534,41,l),
(455,119,l),
(428,260,l),
(429,269,l),
(602,258,l),
(735,267,l),
(749,278,l),
(748,361,l),
(717,450,l),
(663,499,l),
(593,521,l),
(505,510,l),
(400,452,l),
(391,437,l),
(375,482,l)
);
},
{
closed = 1;
nodes = (
(123,137,l),
(158,199,l),
(235,230,l),
(322,230,l),
(322,145,l),
(305,82,l),
(225,37,l),
(150,56,l)
);
},
{
closed = 1;
nodes = (
(555,476,l),
(619,467,l),
(649,416,l),
(655,323,l),
(586,308,l),
(434,310,l),
(440,355,l),
(479,431,l)
);
}
);
width = 786;
}
);
unicode = 230;
},
{
glyphname = b;
kernLeft = l;
kernRight = _KERN_o_1ST;
lastChange = "2023-11-01 10:35:51 +0000";
layers = (
{
associatedMasterId = "E5E5D42B-30DE-4833-8EB6-3A8EE8AFE06C";
layerId = "7A591EA4-4D9F-4E22-AD94-0C62A3908D71";
name = public.background;
shapes = (
{
closed = 1;
nodes = (
(167,745,l),
(154,751,o),
(140,755,o),
(127,756,c),
(85,745,o),
(42,736,o),
(-6,729,c),
(-12,718,o),
(-13,707,o),
(-11,694,c),
(72,686,l),
(72,18,l),
(128,-6,o),
(207,-20,o),
(262,-20,cs),
(421,-20,o),
(532,74,o),
(532,249,cs),
(532,408,o),
(451,510,o),
(322,510,cs),
(277,510,o),
(225,497,o),
(172,450,c),
(167,455,l)
);
},
{
closed = 1;
nodes = (
(172,392,l),
(190,417,o),
(242,451,o),
(292,451,cs),
(364,451,o),
(425,389,o),
(425,249,cs),
(425,104,o),
(366,20,o),
(272,20,cs),
(227,20,o),
(201,29,o),
(172,43,c)
);
}
);
width = 572;
},
{
anchors = (
{
name = bottom;
pos = (286,0);
},
{
name = center;
pos = (286,253);
},
{
name = top;
pos = (286,505);
}
);
background = {
anchors = (
{
name = bottom;
pos = (286,0);
},
{
name = center;
pos = (286,253);
},
{
name = top;
pos = (286,505);
}
);
shapes = (
{
closed = 1;
nodes = (
(177,745,l),
(127,756,l),
(-11,729,l),
(-6,694,l),
(65,697,l),
(70,597,l),
(71,370,l),
(63,40,l),
(98,5,l),
(287,-20,l),
(431,22,l),
(503,113,l),
(533,262,l),
(491,429,l),
(385,510,l),
(276,507,l),
(172,450,l),
(165,457,l)
);
},
{
closed = 1;
nodes = (
(165,402,l),
(292,453,l),
(354,438,l),
(425,335,l),
(429,203,l),
(400,93,l),
(301,31,l),
(171,60,l),
(163,153,l)
);
}
);
};
layerId = "E5E5D42B-30DE-4833-8EB6-3A8EE8AFE06C";
shapes = (
{
closed = 1;
nodes = (
(177,745,l),
(127,756,l),
(-11,729,l),
(-6,694,l),
(65,697,l),
(70,597,l),
(71,370,l),
(63,40,l),
(98,5,l),
(287,-20,l),
(431,22,l),
(503,113,l),
(533,262,l),
(491,429,l),
(385,510,l),
(276,507,l),
(172,450,l),
(165,457,l)
);
},
{
closed = 1;
nodes = (
(165,402,l),
(292,453,l),
(354,438,l),
(425,335,l),
(429,203,l),
(400,93,l),
(301,31,l),
(171,60,l),
(163,153,l)
);
}
);
width = 572;
}
);
unicode = 98;
},
{
glyphname = c;
kernLeft = _KERN_o_2ND;
kernRight = _KERN_c_1ST;
lastChange = "2023-11-01 10:35:51 +0000";
layers = (
{
associatedMasterId = "E5E5D42B-30DE-4833-8EB6-3A8EE8AFE06C";
layerId = "7A591EA4-4D9F-4E22-AD94-0C62A3908D71";
name = public.background;
shapes = (
{
closed = 1;
nodes = (
(390,354,l),
(399,350,o),
(408,349,o),
(418,349,cs),
(423,349,o),
(428,349,o),
(434,350,c),
(447,390,o),
(454,435,o),
(454,486,c),
(402,509,o),
(349,518,o),
(299,518,cs),
(156,518,o),
(37,426,o),
(37,250,cs),
(37,79,o),
(156,-17,o),
(281,-17,cs),
(341,-17,o),
(402,6,o),
(452,58,c),
(449,68,o),
(445,77,o),
(434,84,c),
(388,54,o),
(340,37,o),
(296,37,cs),
(212,37,o),
(144,100,o),
(144,250,cs),
(144,381,o),
(196,474,o),
(302,474,cs),
(325,474,o),
(357,469,o),
(377,460,c)
);
}
);
width = 484;
},
{
anchors = (
{
name = bottom;
pos = (279,-20);
},
{
name = top;
pos = (282,505);
}
);
background = {
anchors = (
{
name = bottom;
pos = (279,-20);
},
{
name = top;
pos = (282,505);
}
);
shapes = (
{
closed = 1;
nodes = (
(396,338,l),
(429,343,l),
(459,500,l),
(306,520,l),
(215,507,l),
(110,452,l),
(42,333,l),
(43,166,l),
(132,21,l),
(275,-20,l),
(369,-8,l),
(448,55,l),
(430,81,l),
(336,31,l),
(213,51,l),
(149,167,l),
(136,273,l),
(162,377,l),
(252,473,l),
(378,463,l)
);
}
);
};
layerId = "E5E5D42B-30DE-4833-8EB6-3A8EE8AFE06C";
shapes = (
{
closed = 1;
nodes = (
(396,338,l),
(429,343,l),
(459,500,l),
(306,520,l),
(215,507,l),
(110,452,l),
(42,333,l),
(43,166,l),
(132,21,l),
(275,-20,l),
(369,-8,l),
(448,55,l),
(430,81,l),
(336,31,l),
(213,51,l),
(149,167,l),
(136,273,l),
(162,377,l),
(252,473,l),
(378,463,l)
);
}
);
width = 484;
}
);
unicode = 99;
},
{
glyphname = cacute;
lastChange = "2023-11-01 10:35:51 +0000";
layers = (
{
background = {
anchors = (
{
name = bottom;
pos = (279,-20);
},
{
name = top;
pos = (282,505);
}
);
shapes = (
{
closed = 1;
nodes = (
(396,338,l),
(429,343,l),
(459,500,l),
(306,520,l),
(215,507,l),
(110,452,l),
(42,333,l),
(43,166,l),
(132,21,l),
(275,-20,l),
(369,-8,l),
(448,55,l),
(430,81,l),
(336,31,l),
(213,51,l),
(149,167,l),
(136,273,l),
(162,377,l),
(252,473,l),
(378,463,l)
);
},
{
closed = 1;
nodes = (
(244,583,l),
(280,566,l),
(362,671,l),
(404,717,l),
(394,740,l),
(324,757,l)
);
}
);
};
layerId = "E5E5D42B-30DE-4833-8EB6-3A8EE8AFE06C";
shapes = (
{
ref = c;
},
{
pos = (232,0);
ref = acutecomb;
}
);
width = 484;
}
);
unicode = 263;
},
{
glyphname = ccaron;
lastChange = "2023-11-01 10:35:51 +0000";
layers = (
{
background = {
anchors = (
{
name = bottom;
pos = (279,-20);
},
{
name = top;
pos = (282,505);
}
);
shapes = (
{
closed = 1;
nodes = (
(396,338,l),
(429,343,l),
(459,500,l),
(306,520,l),
(215,507,l),
(110,452,l),
(42,333,l),
(43,166,l),
(132,21,l),
(275,-20,l),
(369,-8,l),
(448,55,l),
(430,81,l),
(336,31,l),
(213,51,l),
(149,167,l),
(136,273,l),
(162,377,l),
(252,473,l),
(378,463,l)
);
},
{
closed = 1;
nodes = (
(161,731,l),
(218,636,l),
(257,556,l),
(318,561,l),
(363,642,l),
(412,731,l),
(402,746,l),
(363,754,l),
(327,690,l),
(292,618,l),
(260,690,l),
(222,760,l),
(175,748,l)
);
}
);
};
layerId = "E5E5D42B-30DE-4833-8EB6-3A8EE8AFE06C";
shapes = (
{
ref = c;
},
{
pos = (161,0);
ref = caroncomb;
}
);
width = 484;
}
);
unicode = 269;
},
{
glyphname = ccedilla;
kernLeft = _KERN_o_2ND;
kernRight = _KERN_c_1ST;
lastChange = "2023-11-01 10:35:51 +0000";
layers = (
{
associatedMasterId = "E5E5D42B-30DE-4833-8EB6-3A8EE8AFE06C";
layerId = "87ED26C6-198F-4E2A-A721-CDA726DB5344";
name = img;
width = 484;
},
{
background = {
anchors = (
{
name = bottom;
pos = (279,-20);
},
{
name = top;
pos = (282,505);
}
);
shapes = (
{
closed = 1;
nodes = (
(396,338,l),
(429,343,l),
(459,500,l),
(306,520,l),
(215,507,l),
(110,452,l),
(42,333,l),
(43,166,l),
(132,21,l),
(275,-20,l),
(369,-8,l),
(448,55,l),
(430,81,l),
(336,31,l),
(213,51,l),
(149,167,l),
(136,273,l),
(162,377,l),
(252,473,l),
(378,463,l)
);
},
{
closed = 1;
nodes = (
(273,-56,l),
(266,-7,l),
(230,-2,l),
(232,-105,l),
(291,-114,l),
(322,-143,l),
(315,-191,l),
(259,-214,l),
(188,-201,l),
(173,-230,l),
(245,-243,l),
(336,-231,l),
(386,-169,l),
(388,-112,l),
(342,-64,l)
);
}
);
};
layerId = "E5E5D42B-30DE-4833-8EB6-3A8EE8AFE06C";
shapes = (
{
ref = c;
},
{
pos = (150,-9);
ref = cedillacomb;
}
);
width = 484;
}
);
unicode = 231;
},
{
glyphname = d;
kernLeft = d;
kernRight = d;
lastChange = "2023-11-01 10:35:51 +0000";
layers = (
{
associatedMasterId = "E5E5D42B-30DE-4833-8EB6-3A8EE8AFE06C";
layerId = "7A591EA4-4D9F-4E22-AD94-0C62A3908D71";
name = public.background;
shapes = (
{
closed = 1;
nodes = (
(194,38,o),
(146,112,o),
(146,250,cs),
(146,385,o),
(196,471,o),
(300,471,cs),
(338,471,o),
(373,461,o),
(399,439,c),
(399,91,l),
(374,64,o),
(337,38,o),
(285,38,cs)
);
},
{
closed = 1;
nodes = (
(499,745,l),
(486,751,o),
(472,755,o),
(459,756,c),
(417,745,o),
(372,736,o),
(324,729,c),
(318,718,o),
(317,707,o),
(319,694,c),
(402,686,l),
(402,494,l),
(399,494,l),
(370,509,o),
(329,519,o),
(292,519,cs),
(138,519,o),
(40,415,o),
(40,241,cs),
(40,88,o),
(131,-20,o),
(244,-20,cs),
(300,-20,o),
(343,-3,o),
(399,45,c),
(404,45,l),
(407,26,o),
(412,9,o),
(423,-8,c),
(439,-12,o),
(459,-14,o),
(480,-14,cs),
(511,-14,o),
(543,-11,o),
(564,-7,c),
(570,5,o),
(571,15,o),
(569,28,c),
(544,30,o),
(511,37,o),
(499,48,c)
);
}
);
width = 586;
},
{
anchors = (
{
name = bottom;
pos = (293,0);
},
{
name = center;
pos = (293,253);
},
{
name = top;
pos = (435,775);
},
{
name = topright;
pos = (646,764);
}
);
background = {
anchors = (
{
name = bottom;
pos = (293,0);
},
{
name = center;
pos = (293,253);
},
{
name = top;
pos = (435,775);
},
{
name = topright;
pos = (696,784);
}
);
shapes = (
{
closed = 1;
nodes = (
(422,-14,l),
(561,-2,l),
(568,31,l),
(499,41,l),
(492,358,l),
(499,745,l),
(459,756,l),
(321,729,l),
(316,694,l),
(399,686,l),
(405,495,l),
(308,520,l),
(197,505,l),
(82,412,l),
(44,333,l),
(45,163,l),
(103,44,l),
(176,-8,l),
(287,-20,l),
(398,45,l),
(403,45,l)
);
},
{
closed = 1;
nodes = (
(170,92,l),
(140,260,l),
(154,375,l),
(231,457,l),
(294,475,l),
(405,440,l),
(403,87,l),
(256,31,l)
);
}
);
};
guides = (
{
pos = (0,-42);
},
{
angle = 90;
pos = (399,0);
}
);
layerId = "E5E5D42B-30DE-4833-8EB6-3A8EE8AFE06C";
shapes = (
{
closed = 1;
nodes = (
(422,-14,l),
(561,-2,l),
(568,31,l),
(499,41,l),
(492,358,l),
(499,745,l),
(459,756,l),
(321,729,l),
(316,694,l),
(399,686,l),
(405,495,l),
(308,520,l),
(197,505,l),
(82,412,l),
(44,333,l),
(45,163,l),
(103,44,l),
(176,-8,l),
(287,-20,l),
(398,45,l),
(403,45,l)
);
},
{
closed = 1;
nodes = (
(170,92,l),
(140,260,l),
(154,375,l),
(231,457,l),
(294,475,l),
(405,440,l),
(403,87,l),
(256,31,l)
);
}
);
width = 586;
}
);
unicode = 100;
},
{
glyphname = dcaron;
kernLeft = d;
kernRight = dcaron;
lastChange = "2023-11-01 10:35:51 +0000";
layers = (
{
background = {
anchors = (
{
name = bottom;
pos = (293,0);
},
{
name = center;
pos = (293,253);
},
{
name = top;
pos = (435,775);
},
{
name = topright;
pos = (696,784);
}
);
shapes = (
{
closed = 1;
nodes = (
(422,-14,l),
(561,-2,l),
(568,31,l),
(499,41,l),
(492,358,l),
(499,745,l),
(459,756,l),
(321,729,l),
(316,694,l),
(399,686,l),
(405,495,l),
(308,520,l),
(197,505,l),
(82,412,l),
(44,333,l),
(45,163,l),
(103,44,l),
(176,-8,l),
(287,-20,l),
(398,45,l),
(403,45,l)
);
},
{
closed = 1;
nodes = (
(170,92,l),
(140,260,l),
(154,375,l),
(231,457,l),
(294,475,l),
(405,440,l),
(403,87,l),
(256,31,l)
);
},
{
closed = 1;
nodes = (
(314,1001,l),
(371,906,l),
(410,826,l),
(471,831,l),
(516,912,l),
(565,1001,l),
(555,1016,l),
(516,1024,l),
(480,960,l),
(445,888,l),
(413,960,l),
(375,1030,l),
(328,1018,l)
);
}
);
};
layerId = "E5E5D42B-30DE-4833-8EB6-3A8EE8AFE06C";
shapes = (
{
ref = d;
},
{
pos = (515,58);
ref = caroncomb.alt;
}
);
width = 586;
}
);
unicode = 271;
},
{
glyphname = dcroat;
kernLeft = d;
kernRight = d;
lastChange = "2023-11-01 10:35:51 +0000";
layers = (
{
background = {
shapes = (
{
closed = 1;
nodes = (
(398,45,l),
(403,45,l),
(422,-14,l),
(561,-2,l),
(568,31,l),
(499,41,l),
(492,358,l),
(499,745,l),
(459,756,l),
(321,729,l),
(316,694,l),
(399,686,l),
(405,495,l),
(308,520,l),
(197,505,l),
(82,412,l),
(44,333,l),
(45,163,l),
(103,44,l),
(176,-8,l),
(287,-20,l)
);
},
{
closed = 1;
nodes = (
(170,92,l),
(140,260,l),
(154,375,l),
(231,457,l),
(294,475,l),
(405,440,l),
(403,87,l),
(256,31,l)
);
},
{
closed = 1;
nodes = (
(326,583,l),
(593,590,l),
(602,647,l),
(521,637,l),
(252,629,l),
(243,572,l)
);
}
);
};
layerId = "E5E5D42B-30DE-4833-8EB6-3A8EE8AFE06C";
shapes = (
{
closed = 1;
nodes = (
(398,45,l),
(403,45,l),
(422,-14,l),
(561,-2,l),
(568,31,l),
(499,41,l),
(492,358,l),
(499,745,l),
(459,756,l),
(321,729,l),
(316,694,l),
(399,686,l),
(405,495,l),
(308,520,l),
(197,505,l),
(82,412,l),
(44,333,l),
(45,163,l),
(103,44,l),
(176,-8,l),
(287,-20,l)
);
},
{
closed = 1;
nodes = (
(170,92,l),
(140,260,l),
(154,375,l),
(231,457,l),
(294,475,l),
(405,440,l),
(403,87,l),
(256,31,l)
);
},
{
closed = 1;
nodes = (
(326,583,l),
(593,590,l),
(602,647,l),
(521,637,l),
(252,629,l),
(243,572,l)
);
}
);
width = 620;
}
);
metricRight = d;
unicode = 273;
},
{
glyphname = eth;
lastChange = "2023-11-01 10:35:51 +0000";
layers = (
{
associatedMasterId = "E5E5D42B-30DE-4833-8EB6-3A8EE8AFE06C";
layerId = "7A591EA4-4D9F-4E22-AD94-0C62A3908D71";
name = public.background;
shapes = (
{
closed = 1;
nodes = (
(458,691,l),
(459,701,o),
(447,727,o),
(440,739,c),
(335,679,l),
(288,709,o),
(234,730,o),
(174,740,c),
(167,725,o),
(169,709,o),
(172,694,c),
(213,681,o),
(248,665,o),
(279,647,c),
(208,606,l),
(207,599,o),
(220,567,o),
(227,558,c),
(325,615,l),
(373,575,o),
(403,524,o),
(420,459,c),
(381,486,o),
(334,501,o),
(283,501,cs),
(143,501,o),
(37,390,o),
(37,240,cs),
(37,86,o),
(143,-20,o),
(283,-20,cs),
(423,-20,o),
(529,86,o),
(529,240,cs),
(529,245,o),
(529,250,o),
(528,256,c),
(529,256,l),
(529,429,o),
(474,562,o),
(379,645,c)
);
},
{
closed = 1;
nodes = (
(422,120,o),
(388,24,o),
(285,24,cs),
(186,24,o),
(144,121,o),
(144,234,cs),
(144,356,o),
(178,457,o),
(281,457,cs),
(380,457,o),
(422,355,o),
(422,227,cs)
);
}
);
width = 579;
},
{
anchors = (
{
name = bottom;
pos = (290,0);
},
{
name = top;
pos = (290,984);
}
);
background = {
anchors = (
{
name = bottom;
pos = (290,0);
},
{
name = top;
pos = (290,984);
}
);
shapes = (
{
closed = 1;
nodes = (
(72,91,l),
(167,5,l),
(288,-20,l),
(416,6,l),
(498,85,l),
(528,195,l),
(528,304,l),
(524,348,l),
(510,432,l),
(443,583,l),
(377,647,l),
(462,690,l),
(441,739,l),
(338,676,l),
(239,724,l),
(175,740,l),
(173,694,l),
(221,679,l),
(289,649,l),
(200,605,l),
(228,558,l),
(324,620,l),
(392,541,l),
(418,463,l),
(417,464,l),
(328,499,l),
(223,499,l),
(98,419,l),
(39,300,l),
(39,190,l)
);
},
{
closed = 1;
nodes = (
(231,454,l),
(312,454,l),
(375,417,l),
(418,334,l),
(428,235,l),
(395,69,l),
(292,19,l),
(198,49,l),
(156,127,l),
(144,243,l),
(162,377,l)
);
}
);
};
layerId = "E5E5D42B-30DE-4833-8EB6-3A8EE8AFE06C";
shapes = (
{
closed = 1;
nodes = (
(72,91,l),
(167,5,l),
(288,-20,l),
(416,6,l),
(498,85,l),
(528,195,l),
(528,304,l),
(524,348,l),
(510,432,l),
(443,583,l),
(377,647,l),
(462,690,l),
(441,739,l),
(338,676,l),
(239,724,l),
(175,740,l),
(173,694,l),
(221,679,l),
(289,649,l),
(200,605,l),
(228,558,l),
(324,620,l),
(392,541,l),
(418,463,l),
(417,464,l),
(328,499,l),
(223,499,l),
(98,419,l),
(39,300,l),
(39,190,l)
);
},
{
closed = 1;
nodes = (
(231,454,l),
(312,454,l),
(375,417,l),
(418,334,l),
(428,235,l),
(395,69,l),
(292,19,l),
(198,49,l),
(156,127,l),
(144,243,l),
(162,377,l)
);
}
);
width = 579;
}
);
unicode = 240;
},
{
glyphname = e;
kernLeft = _KERN_o_2ND;
kernRight = _KERN_e_1ST;
lastChange = "2023-11-01 10:35:51 +0000";
layers = (
{
associatedMasterId = "E5E5D42B-30DE-4833-8EB6-3A8EE8AFE06C";
layerId = "7A591EA4-4D9F-4E22-AD94-0C62A3908D71";
name = public.background;
shapes = (
{
closed = 1;
nodes = (
(143,270,l),
(445,267,l),
(459,278,l),
(460,287,o),
(460,295,o),
(460,304,cs),
(460,429,o),
(404,517,o),
(286,517,cs),
(148,517,o),
(37,420,o),
(37,250,cs),
(37,84,o),
(139,-17,o),
(291,-17,cs),
(350,-17,o),
(410,11,o),
(452,59,c),
(451,69,o),
(446,78,o),
(434,83,c),
(381,47,o),
(355,38,o),
(294,38,cs),
(201,38,o),
(143,115,o),
(143,250,cs)
);
},
{
closed = 1;
nodes = (
(347,474,o),
(365,426,o),
(365,323,c),
(147,311,l),
(163,421,o),
(227,474,o),
(285,474,cs)
);
}
);
width = 495;
},
{
anchors = (
{
name = bottom;
pos = (248,0);
},
{
name = ogonek;
pos = (392,10);
},
{
name = top;
pos = (275,503);
}
);
background = {
anchors = (
{
name = bottom;
pos = (248,0);
},
{
name = ogonek;
pos = (446,10);
},
{
name = top;
pos = (275,503);
}
);
shapes = (
{
closed = 1;
nodes = (
(312,258,l),
(445,267,l),
(459,278,l),
(458,361,l),
(427,450,l),
(373,499,l),
(303,521,l),
(215,510,l),
(110,452,l),
(58,358,l),
(41,224,l),
(92,74,l),
(177,3,l),
(275,-20,l),
(369,-8,l),
(448,55,l),
(430,81,l),
(336,31,l),
(244,41,l),
(165,119,l),
(138,260,l),
(139,269,l)
);
},
{
closed = 1;
nodes = (
(265,476,l),
(329,467,l),
(359,416,l),
(365,323,l),
(296,308,l),
(144,310,l),
(150,355,l),
(189,431,l)
);
}
);
};
layerId = "E5E5D42B-30DE-4833-8EB6-3A8EE8AFE06C";
shapes = (
{
closed = 1;
nodes = (
(312,258,l),
(445,267,l),
(459,278,l),
(458,361,l),
(427,450,l),
(373,499,l),
(303,521,l),
(215,510,l),
(110,452,l),
(58,358,l),
(41,224,l),
(92,74,l),
(177,3,l),
(275,-20,l),
(369,-8,l),
(448,55,l),
(430,81,l),
(336,31,l),
(244,41,l),
(165,119,l),
(138,260,l),
(139,269,l)
);
},
{
closed = 1;
nodes = (
(265,476,l),
(329,467,l),
(359,416,l),
(365,323,l),
(296,308,l),
(144,310,l),
(150,355,l),
(189,431,l)
);
}
);
width = 495;
}
);
unicode = 101;
},
{
glyphname = eacute;
kernLeft = _KERN_o_2ND;
kernRight = _KERN_e_1ST;
lastChange = "2023-11-01 10:35:51 +0000";
layers = (
{
associatedMasterId = "E5E5D42B-30DE-4833-8EB6-3A8EE8AFE06C";
layerId = "87ED26C6-198F-4E2A-A721-CDA726DB5344";
name = img;
width = 495;
},
{
background = {
anchors = (
{
name = bottom;
pos = (248,0);
},
{
name = ogonek;
pos = (446,10);
},
{
name = top;
pos = (275,503);
}
);
shapes = (
{
closed = 1;
nodes = (
(312,258,l),
(445,267,l),
(459,278,l),
(458,361,l),
(427,450,l),
(373,499,l),
(303,521,l),
(215,510,l),
(110,452,l),
(58,358,l),
(41,224,l),
(92,74,l),
(177,3,l),
(275,-20,l),
(369,-8,l),
(448,55,l),
(430,81,l),
(336,31,l),
(244,41,l),
(165,119,l),
(138,260,l),
(139,269,l)
);
},
{
closed = 1;
nodes = (
(265,476,l),
(329,467,l),
(359,416,l),
(365,323,l),
(296,308,l),
(144,310,l),
(150,355,l),
(189,431,l)
);
},
{
closed = 1;
nodes = (
(237,581,l),
(273,564,l),
(355,669,l),
(397,715,l),
(387,738,l),
(317,755,l)
);
}
);
};
layerId = "E5E5D42B-30DE-4833-8EB6-3A8EE8AFE06C";
shapes = (
{
ref = e;
},
{
pos = (225,-2);
ref = acutecomb;
}
);
width = 495;
}
);
unicode = 233;
},
{
glyphname = ecaron;
lastChange = "2023-11-01 10:35:51 +0000";
layers = (
{
background = {
anchors = (
{
name = bottom;
pos = (248,0);
},
{
name = ogonek;
pos = (446,10);
},
{
name = top;
pos = (275,503);
}
);
shapes = (
{
closed = 1;
nodes = (
(312,258,l),
(445,267,l),
(459,278,l),
(458,361,l),
(427,450,l),
(373,499,l),
(303,521,l),
(215,510,l),
(110,452,l),
(58,358,l),
(41,224,l),
(92,74,l),
(177,3,l),
(275,-20,l),
(369,-8,l),
(448,55,l),
(430,81,l),
(336,31,l),
(244,41,l),
(165,119,l),
(138,260,l),
(139,269,l)
);
},
{
closed = 1;
nodes = (
(265,476,l),
(329,467,l),
(359,416,l),
(365,323,l),
(296,308,l),
(144,310,l),
(150,355,l),
(189,431,l)
);
},
{
closed = 1;
nodes = (
(154,729,l),
(211,634,l),
(250,554,l),
(311,559,l),
(356,640,l),
(405,729,l),
(395,744,l),
(356,752,l),
(320,688,l),
(285,616,l),
(253,688,l),
(215,758,l),
(168,746,l)
);
}
);
};
layerId = "E5E5D42B-30DE-4833-8EB6-3A8EE8AFE06C";
shapes = (
{
ref = e;
},
{
pos = (154,-2);
ref = caroncomb;
}
);
width = 495;
}
);
unicode = 283;
},
{
glyphname = ecircumflex;
kernLeft = _KERN_o_2ND;
kernRight = _KERN_e_1ST;
lastChange = "2023-11-01 10:35:51 +0000";
layers = (
{
associatedMasterId = "E5E5D42B-30DE-4833-8EB6-3A8EE8AFE06C";
layerId = "87ED26C6-198F-4E2A-A721-CDA726DB5344";
name = img;
width = 495;
},
{
background = {
anchors = (
{
name = bottom;
pos = (248,0);
},
{
name = ogonek;
pos = (446,10);
},
{
name = top;
pos = (275,503);
}
);
shapes = (
{
closed = 1;
nodes = (
(312,258,l),
(445,267,l),
(459,278,l),
(458,361,l),
(427,450,l),
(373,499,l),
(303,521,l),
(215,510,l),
(110,452,l),
(58,358,l),
(41,224,l),
(92,74,l),
(177,3,l),
(275,-20,l),
(369,-8,l),
(448,55,l),
(430,81,l),
(336,31,l),
(244,41,l),
(165,119,l),
(138,260,l),
(139,269,l)
);
},
{
closed = 1;
nodes = (
(265,476,l),
(329,467,l),
(359,416,l),
(365,323,l),
(296,308,l),
(144,310,l),
(150,355,l),
(189,431,l)
);
},
{
closed = 1;
nodes = (
(402,586,l),
(348,671,l),
(309,751,l),
(248,751,l),
(203,665,l),
(145,577,l),
(155,562,l),
(194,554,l),
(239,617,l),
(280,682,l),
(308,617,l),
(346,557,l),
(388,569,l)
);
}
);
};
layerId = "E5E5D42B-30DE-4833-8EB6-3A8EE8AFE06C";
shapes = (
{
ref = e;
},
{
pos = (147,-2);
ref = circumflexcomb;
}
);
width = 495;
}
);
unicode = 234;
},
{
glyphname = edieresis;
kernLeft = _KERN_o_2ND;
kernRight = _KERN_e_1ST;
lastChange = "2023-11-01 10:35:51 +0000";
layers = (
{
associatedMasterId = "E5E5D42B-30DE-4833-8EB6-3A8EE8AFE06C";
layerId = "87ED26C6-198F-4E2A-A721-CDA726DB5344";
name = img;
width = 495;
},
{
background = {
anchors = (
{
name = bottom;
pos = (248,0);
},
{
name = ogonek;
pos = (446,10);
},
{
name = top;
pos = (275,503);
}
);
shapes = (
{
closed = 1;
nodes = (
(312,258,l),
(445,267,l),
(459,278,l),
(458,361,l),
(427,450,l),
(373,499,l),
(303,521,l),
(215,510,l),
(110,452,l),
(58,358,l),
(41,224,l),
(92,74,l),
(177,3,l),
(275,-20,l),
(369,-8,l),
(448,55,l),
(430,81,l),
(336,31,l),
(244,41,l),
(165,119,l),
(138,260,l),
(139,269,l)
);
},
{
closed = 1;
nodes = (
(265,476,l),
(329,467,l),
(359,416,l),
(365,323,l),
(296,308,l),
(144,310,l),
(150,355,l),
(189,431,l)
);
},
{
closed = 1;
nodes = (
(125,652,l),
(145,609,l),
(188,583,l),
(233,601,l),
(260,643,l),
(239,695,l),
(192,710,l),
(148,689,l)
);
},
{
closed = 1;
nodes = (
(290,652,l),
(311,609,l),
(353,583,l),
(398,601,l),
(425,643,l),
(404,695,l),
(358,710,l),
(313,689,l)
);
}
);
};
layerId = "E5E5D42B-30DE-4833-8EB6-3A8EE8AFE06C";
shapes = (
{
ref = e;
},
{
pos = (118,-2);
ref = dieresiscomb;
}
);
width = 495;
}
);
unicode = 235;
},
{
glyphname = egrave;
kernLeft = _KERN_o_2ND;
kernRight = _KERN_e_1ST;
lastChange = "2023-11-01 10:35:51 +0000";
layers = (
{
associatedMasterId = "E5E5D42B-30DE-4833-8EB6-3A8EE8AFE06C";
layerId = "87ED26C6-198F-4E2A-A721-CDA726DB5344";
name = img;
width = 495;
},
{
background = {
anchors = (
{
name = bottom;
pos = (248,0);
},
{
name = ogonek;
pos = (446,10);
},
{
name = top;
pos = (275,503);
}
);
shapes = (
{
closed = 1;
nodes = (
(312,258,l),
(445,267,l),
(459,278,l),
(458,361,l),
(427,450,l),
(373,499,l),
(303,521,l),
(215,510,l),
(110,452,l),
(58,358,l),
(41,224,l),
(92,74,l),
(177,3,l),
(275,-20,l),
(369,-8,l),
(448,55,l),
(430,81,l),
(336,31,l),
(244,41,l),
(165,119,l),
(138,260,l),
(139,269,l)
);
},
{
closed = 1;
nodes = (
(265,476,l),
(329,467,l),
(359,416,l),
(365,323,l),
(296,308,l),
(144,310,l),
(150,355,l),
(189,431,l)
);
},
{
closed = 1;
nodes = (
(248,755,l),
(178,738,l),
(168,715,l),
(210,669,l),
(292,564,l),
(328,581,l)
);
}
);
};
layerId = "E5E5D42B-30DE-4833-8EB6-3A8EE8AFE06C";
shapes = (
{
ref = e;
},
{
pos = (166,-2);
ref = gravecomb;
}
);
width = 495;
}
);
unicode = 232;
},
{
glyphname = emacron;
lastChange = "2023-11-01 10:35:51 +0000";
layers = (
{
background = {
anchors = (
{
name = bottom;
pos = (248,0);
},
{
name = ogonek;
pos = (446,10);
},
{
name = top;
pos = (275,637);
}
);
shapes = (
{
closed = 1;
nodes = (
(312,258,l),
(445,267,l),
(459,278,l),
(458,361,l),
(427,450,l),
(373,499,l),
(303,521,l),
(215,510,l),
(110,452,l),
(58,358,l),
(41,224,l),
(92,74,l),
(177,3,l),
(275,-20,l),
(369,-8,l),
(448,55,l),
(430,81,l),
(336,31,l),
(244,41,l),
(165,119,l),
(138,260,l),
(139,269,l)
);
},
{
closed = 1;
nodes = (
(265,476,l),
(329,467,l),
(359,416,l),
(365,323,l),
(296,308,l),
(144,310,l),
(150,355,l),
(189,431,l)
);
},
{
closed = 1;
nodes = (
(433,613,l),
(442,677,l),
(361,667,l),
(124,659,l),
(115,595,l),
(197,606,l)
);
}
);
};
layerId = "E5E5D42B-30DE-4833-8EB6-3A8EE8AFE06C";
shapes = (
{
ref = e;
},
{
pos = (10,-2);
ref = macroncomb;
}
);
width = 495;
}
);
unicode = 275;
},
{
glyphname = f;
kernLeft = _KERN_f_2ND;
lastChange = "2023-11-01 10:35:51 +0000";
layers = (
{
associatedMasterId = "E5E5D42B-30DE-4833-8EB6-3A8EE8AFE06C";
layerId = "7A591EA4-4D9F-4E22-AD94-0C62A3908D71";
name = public.background;
shapes = (
{
closed = 1;
nodes = (
(326,620,l),
(337,615,o),
(357,614,o),
(367,616,c),
(376,651,o),
(382,688,o),
(386,725,c),
(350,747,o),
(321,755,o),
(268,755,cs),
(166,755,o),
(98,671,o),
(98,535,cs),
(98,475,l),
(43,475,l),
(37,468,o),
(31,438,o),
(33,425,c),
(98,425,l),
(98,50,l),
(76,40,o),
(52,35,o),
(28,30,c),
(24,18,o),
(24,7,o),
(26,-5,c),
(63,-3,o),
(110,0,o),
(148,0,cs),
(185,0,o),
(254,-3,o),
(290,-5,c),
(296,7,o),
(297,18,o),
(295,30,c),
(198,50,l),
(198,425,l),
(328,425,l),
(334,435,o),
(338,459,o),
(338,475,c),
(198,475,l),
(198,560,ls),
(198,657,o),
(223,716,o),
(276,716,cs),
(290,716,o),
(301,714,o),
(315,708,c)
);
}
);
width = 352;
},
{
anchors = (
{
name = bottom;
pos = (176,0);
},
{
name = top;
pos = (176,984);
}
);
background = {
anchors = (
{
name = bottom;
pos = (176,0);
},
{
name = top;
pos = (176,984);
}
);
shapes = (
{
closed = 1;
nodes = (
(352,743,l),
(249,755,l),
(159,715,l),
(108,620,l),
(102,471,l),
(36,475,l),
(36,425,l),
(101,430,l),
(105,152,l),
(95,50,l),
(28,30,l),
(26,-5,l),
(148,0,l),
(300,-5,l),
(305,30,l),
(201,50,l),
(196,168,l),
(195,430,l),
(328,425,l),
(338,475,l),
(195,470,l),
(195,580,l),
(208,675,l),
(270,716,l),
(308,711,l),
(316,699,l),
(329,611,l),
(362,616,l),
(383,723,l)
);
}
);
};
layerId = "E5E5D42B-30DE-4833-8EB6-3A8EE8AFE06C";
shapes = (
{
closed = 1;
nodes = (
(352,743,l),
(249,755,l),
(159,715,l),
(108,620,l),
(102,471,l),
(36,475,l),
(36,425,l),
(101,430,l),
(105,152,l),
(95,50,l),
(28,30,l),
(26,-5,l),
(148,0,l),
(300,-5,l),
(305,30,l),
(201,50,l),
(196,168,l),
(195,430,l),
(328,425,l),
(338,475,l),
(195,470,l),
(195,580,l),
(208,675,l),
(270,716,l),
(308,711,l),
(316,699,l),
(329,611,l),
(362,616,l),
(383,723,l)
);
}
);
width = 352;
}
);
unicode = 102;
},
{
glyphname = g;
lastChange = "2023-11-01 10:35:51 +0000";
layers = (
{
associatedMasterId = "E5E5D42B-30DE-4833-8EB6-3A8EE8AFE06C";
layerId = "7A591EA4-4D9F-4E22-AD94-0C62A3908D71";
name = public.background;
shapes = (
{
closed = 1;
nodes = (
(344,167,o),
(464,215,o),
(464,333,cs),
(464,400,o),
(433,444,o),
(390,470,c),
(435,473,o),
(481,484,o),
(517,496,c),
(521,515,o),
(504,560,o),
(489,569,c),
(356,487,l),
(324,500,o),
(288,505,o),
(256,505,cs),
(163,505,o),
(48,462,o),
(48,333,cs),
(48,263,o),
(89,218,o),
(142,192,c),
(121,172,o),
(101,145,o),
(101,101,cs),
(101,74,o),
(111,55,o),
(134,35,c),
(62,6,o),
(40,-46,o),
(40,-94,cs),
(40,-165,o),
(104,-226,o),
(256,-226,cs),
(375,-226,o),
(507,-174,o),
(507,-55,cs),
(507,49,o),
(437,71,o),
(304,87,cs),
(168,103,o),
(162,120,o),
(162,139,cs),
(162,147,o),
(166,158,o),
(180,178,c),
(206,170,o),
(232,167,o),
(256,167,cs)
);
},
{
closed = 1;
nodes = (
(188,205,o),
(139,259,o),
(139,335,cs),
(139,418,o),
(188,467,o),
(256,467,cs),
(324,467,o),
(373,418,o),
(373,335,cs),
(373,259,o),
(324,205,o),
(256,205,cs)
);
},
{
closed = 1;
nodes = (
(347,-4,o),
(417,-22,o),
(417,-81,cs),
(417,-132,o),
(359,-188,o),
(261,-188,cs),
(170,-188,o),
(121,-136,o),
(121,-80,cs),
(121,-29,o),
(138,-4,o),
(170,23,c),
(207,14,o),
(247,11,o),
(271,7,cs)
);
}
);
width = 522;
},
{
anchors = (
{
name = bottom;
pos = (261,-270);
},
{
name = top;
pos = (261,505);
}
);
background = {
anchors = (
{
name = bottom;
pos = (261,-270);
},
{
name = top;
pos = (261,505);
}
);
shapes = (
{
closed = 1;
nodes = (
(360,490,l),
(259,510,l),
(132,480,l),
(49,384,l),
(59,257,l),
(144,191,l),
(99,138,l),
(99,69,l),
(135,35,l),
(67,3,l),
(37,-84,l),
(58,-156,l),
(115,-206,l),
(184,-227,l),
(342,-222,l),
(454,-171,l),
(500,-102,l),
(492,17,l),
(425,65,l),
(358,80,l),
(186,107,l),
(158,125,l),
(162,153,l),
(180,179,l),
(286,164,l),
(408,204,l),
(464,287,l),
(465,384,l),
(395,470,l),
(478,481,l),
(520,507,l),
(488,574,l)
);
},
{
closed = 1;
nodes = (
(165,243,l),
(133,342,l),
(161,430,l),
(257,470,l),
(330,448,l),
(374,373,l),
(366,275,l),
(313,218,l),
(231,207,l)
);
},
{
closed = 1;
nodes = (
(424,-41,l),
(395,-138,l),
(276,-183,l),
(163,-166,l),
(118,-101,l),
(124,-27,l),
(169,22,l),
(285,6,l)
);
}
);
};
guides = (
{
angle = 90;
pos = (255,0);
},
{
angle = 90;
pos = (256,0);
}
);
layerId = "E5E5D42B-30DE-4833-8EB6-3A8EE8AFE06C";
shapes = (
{
closed = 1;
nodes = (
(360,490,l),
(259,510,l),
(132,480,l),
(49,384,l),
(59,257,l),
(144,191,l),
(99,138,l),
(99,69,l),
(135,35,l),
(67,3,l),
(37,-84,l),
(58,-156,l),
(115,-206,l),
(184,-227,l),
(342,-222,l),
(454,-171,l),
(500,-102,l),
(492,17,l),
(425,65,l),
(358,80,l),
(186,107,l),
(158,125,l),
(162,153,l),
(180,179,l),
(286,164,l),
(408,204,l),
(464,287,l),
(465,384,l),
(395,470,l),
(478,481,l),
(520,507,l),
(488,574,l)
);
},
{
closed = 1;
nodes = (
(165,243,l),
(133,342,l),
(161,430,l),
(257,470,l),
(330,448,l),
(374,373,l),
(366,275,l),
(313,218,l),
(231,207,l)
);
},
{
closed = 1;
nodes = (
(424,-41,l),
(395,-138,l),
(276,-183,l),
(163,-166,l),
(118,-101,l),
(124,-27,l),
(169,22,l),
(285,6,l)
);
}
);
width = 522;
}
);
unicode = 103;
},
{
glyphname = h;
kernLeft = l;
kernRight = _KERN_n_1ST;
lastChange = "2023-11-01 10:35:51 +0000";
layers = (
{
associatedMasterId = "E5E5D42B-30DE-4833-8EB6-3A8EE8AFE06C";
layerId = "7A591EA4-4D9F-4E22-AD94-0C62A3908D71";
name = public.background;
shapes = (
{
closed = 1;
nodes = (
(184,745,l),
(171,751,o),
(159,755,o),
(146,756,c),
(104,745,o),
(59,736,o),
(11,729,c),
(5,718,o),
(4,707,o),
(6,694,c),
(89,686,l),
(89,50,l),
(70,41,o),
(44,36,o),
(19,30,c),
(15,18,o),
(15,7,o),
(17,-5,c),
(54,-3,o),
(101,0,o),
(139,0,cs),
(176,0,o),
(215,-3,o),
(251,-5,c),
(257,7,o),
(258,18,o),
(256,30,c),
(189,50,l),
(189,392,l),
(220,427,o),
(270,450,o),
(313,450,cs),
(367,450,o),
(410,433,o),
(410,349,cs),
(410,50,l),
(389,40,o),
(364,35,o),
(340,30,c),
(336,18,o),
(336,7,o),
(338,-5,c),
(375,-3,o),
(422,0,o),
(460,0,cs),
(497,0,o),
(541,-3,o),
(577,-5,c),
(583,7,o),
(584,18,o),
(582,30,c),
(510,50,l),
(510,364,ls),
(510,457,o),
(462,520,o),
(353,520,cs),
(308,520,o),
(249,500,o),
(189,445,c),
(184,445,l)
);
}
);
width = 598;
},
{
anchors = (
{
name = bottom;
pos = (299,0);
},
{
name = center;
pos = (299,984);
},
{
name = top;
pos = (133,756);
}
);
background = {
anchors = (
{
name = bottom;
pos = (299,0);
},
{
name = center;
pos = (299,984);
},
{
name = top;
pos = (133,756);
}
);
shapes = (
{
closed = 1;
nodes = (
(193,745,l),
(143,756,l),
(5,729,l),
(10,694,l),
(81,697,l),
(88,593,l),
(92,155,l),
(83,50,l),
(17,30,l),
(15,-5,l),
(137,0,l),
(255,-5,l),
(260,30,l),
(187,50,l),
(184,166,l),
(182,263,l),
(184,397,l),
(296,454,l),
(381,439,l),
(408,373,l),
(412,155,l),
(405,50,l),
(339,30,l),
(337,-5,l),
(459,0,l),
(577,-5,l),
(582,30,l),
(511,49,l),
(503,166,l),
(505,377,l),
(490,457,l),
(398,520,l),
(296,513,l),
(185,445,l),
(188,609,l)
);
}
);
};
layerId = "E5E5D42B-30DE-4833-8EB6-3A8EE8AFE06C";
shapes = (
{
closed = 1;
nodes = (
(193,745,l),
(143,756,l),
(5,729,l),
(10,694,l),
(81,697,l),
(88,593,l),
(92,155,l),
(83,50,l),
(17,30,l),
(15,-5,l),
(137,0,l),
(255,-5,l),
(260,30,l),
(187,50,l),
(184,166,l),
(182,263,l),
(184,397,l),
(296,454,l),
(381,439,l),
(408,373,l),
(412,155,l),
(405,50,l),
(339,30,l),
(337,-5,l),
(459,0,l),
(577,-5,l),
(582,30,l),
(511,49,l),
(503,166,l),
(505,377,l),
(490,457,l),
(398,520,l),
(296,513,l),
(185,445,l),
(188,609,l)
);
}
);
width = 598;
}
);
unicode = 104;
},
{
glyphname = hbar;
kernLeft = l;
kernRight = _KERN_n_1ST;
lastChange = "2023-11-01 10:35:51 +0000";
layers = (
{
background = {
shapes = (
{
closed = 1;
nodes = (
(137,0,l),
(255,-5,l),
(260,30,l),
(187,50,l),
(184,166,l),
(182,263,l),
(184,397,l),
(296,454,l),
(381,439,l),
(408,373,l),
(412,155,l),
(405,50,l),
(339,30,l),
(337,-5,l),
(459,0,l),
(577,-5,l),
(582,30,l),
(511,49,l),
(503,166,l),
(505,377,l),
(490,457,l),
(398,520,l),
(296,513,l),
(185,445,l),
(188,609,l),
(193,745,l),
(143,756,l),
(5,729,l),
(10,694,l),
(81,697,l),
(88,593,l),
(92,155,l),
(83,50,l),
(17,30,l),
(15,-5,l)
);
},
{
closed = 1;
nodes = (
(70,583,l),
(337,590,l),
(346,647,l),
(265,637,l),
(-4,629,l),
(-13,572,l)
);
}
);
};
guides = (
{
angle = 90;
pos = (5,668);
}
);
layerId = "E5E5D42B-30DE-4833-8EB6-3A8EE8AFE06C";
shapes = (
{
closed = 1;
nodes = (
(137,0,l),
(255,-5,l),
(260,30,l),
(187,50,l),
(184,166,l),
(182,263,l),
(184,397,l),
(296,454,l),
(381,439,l),
(408,373,l),
(412,155,l),
(405,50,l),
(339,30,l),
(337,-5,l),
(459,0,l),
(577,-5,l),
(582,30,l),
(511,49,l),
(503,166,l),
(505,377,l),
(490,457,l),
(398,520,l),
(296,513,l),
(185,445,l),
(188,609,l),
(193,745,l),
(143,756,l),
(5,729,l),
(10,694,l),
(81,697,l),
(88,593,l),
(92,155,l),
(83,50,l),
(17,30,l),
(15,-5,l)
);
},
{
closed = 1;
nodes = (
(70,583,l),
(337,590,l),
(346,647,l),
(265,637,l),
(-4,629,l),
(-13,572,l)
);
}
);
width = 598;
}
);
unicode = 295;
},
{
glyphname = i;
kernLeft = _KERN_i;
kernRight = _KERN_i;
lastChange = "2023-11-01 10:35:51 +0000";
layers = (
{
associatedMasterId = "E5E5D42B-30DE-4833-8EB6-3A8EE8AFE06C";
layerId = "7A591EA4-4D9F-4E22-AD94-0C62A3908D71";
name = public.background;
shapes = (
{
closed = 1;
nodes = (
(66,641,o),
(93,601,o),
(127,601,cs),
(161,601,o),
(198,633,o),
(198,660,cs),
(198,687,o),
(173,728,o),
(137,728,cs),
(104,728,o),
(66,695,o),
(66,669,cs)
);
},
{
closed = 1;
nodes = (
(204,499,l),
(191,505,o),
(179,509,o),
(166,510,c),
(124,499,o),
(74,490,o),
(26,483,c),
(20,472,o),
(19,461,o),
(21,448,c),
(104,440,l),
(104,50,l),
(85,41,o),
(59,36,o),
(34,30,c),
(30,18,o),
(30,7,o),
(32,-5,c),
(69,-3,o),
(116,0,o),
(154,0,cs),
(191,0,o),
(230,-3,o),
(266,-5,c),
(272,7,o),
(273,18,o),
(271,30,c),
(204,50,l)
);
}
);
width = 290;
},
{
anchors = (
{
name = bottom;
pos = (145,0);
}
);
background = {
anchors = (
{
name = bottom;
pos = (145,0);
}
);
shapes = (
{
closed = 1;
nodes = (
(62,669,l),
(83,624,l),
(127,597,l),
(174,616,l),
(202,660,l),
(180,714,l),
(132,730,l),
(86,708,l)
);
},
{
closed = 1;
nodes = (
(206,499,l),
(156,510,l),
(18,483,l),
(23,448,l),
(94,451,l),
(99,347,l),
(101,155,l),
(96,50,l),
(30,30,l),
(28,-5,l),
(150,0,l),
(268,-5,l),
(273,30,l),
(200,50,l),
(196,166,l),
(193,263,l),
(199,363,l)
);
}
);
};
layerId = "E5E5D42B-30DE-4833-8EB6-3A8EE8AFE06C";
shapes = (
{
ref = idotless;
},
{
alignment = -1;
pos = (18,34);
ref = dotaccentcomb;
}
);
width = 290;
}
);
unicode = 105;
},
{
glyphname = idotless;
kernLeft = _KERN_i;
kernRight = _KERN_i;
lastChange = "2023-11-01 12:18:25 +0000";
layers = (
{
associatedMasterId = "E5E5D42B-30DE-4833-8EB6-3A8EE8AFE06C";
layerId = "7A591EA4-4D9F-4E22-AD94-0C62A3908D71";
name = public.background;
shapes = (
{
closed = 1;
nodes = (
(204,499,l),
(191,505,o),
(179,509,o),
(166,510,c),
(124,499,o),
(74,490,o),
(26,483,c),
(20,472,o),
(19,461,o),
(21,448,c),
(104,440,l),
(104,50,l),
(85,41,o),
(59,36,o),
(34,30,c),
(30,18,o),
(30,7,o),
(32,-5,c),
(69,-3,o),
(116,0,o),
(154,0,cs),
(191,0,o),
(230,-3,o),
(266,-5,c),
(272,7,o),
(273,18,o),
(271,30,c),
(204,50,l)
);
}
);
width = 290;
},
{
anchors = (
{
name = bottom;
pos = (145,0);
},
{
name = ogonek;
pos = (263,0);
},
{
name = top;
pos = (142,505);
}
);
background = {
anchors = (
{
name = bottom;
pos = (145,0);
},
{
name = ogonek;
pos = (273,0);
},
{
name = top;
pos = (142,505);
}
);
shapes = (
{
closed = 1;
nodes = (
(206,499,l),
(156,510,l),
(18,483,l),
(23,448,l),
(94,451,l),
(99,347,l),
(101,155,l),
(96,50,l),
(30,30,l),
(28,-5,l),
(150,0,l),
(268,-5,l),
(273,30,l),
(200,50,l),
(196,166,l),
(193,263,l),
(199,363,l)
);
}
);
};
layerId = "E5E5D42B-30DE-4833-8EB6-3A8EE8AFE06C";
shapes = (
{
closed = 1;
nodes = (
(206,499,l),
(156,510,l),
(18,483,l),
(23,448,l),
(94,451,l),
(99,347,l),
(101,155,l),
(96,50,l),
(30,30,l),
(28,-5,l),
(150,0,l),
(268,-5,l),
(273,30,l),
(200,50,l),
(196,166,l),
(193,263,l),
(199,363,l)
);
}
);
width = 290;
}
);
unicode = 305;
},
{
glyphname = iacute;
kernLeft = _KERN_i;
kernRight = _KERN_i;
lastChange = "2023-11-01 12:18:25 +0000";
layers = (
{
associatedMasterId = "E5E5D42B-30DE-4833-8EB6-3A8EE8AFE06C";
layerId = "87ED26C6-198F-4E2A-A721-CDA726DB5344";
name = img;
width = 290;
},
{
background = {
anchors = (
{
name = bottom;
pos = (145,0);
},
{
name = ogonek;
pos = (273,0);
},
{
name = top;
pos = (142,505);
}
);
shapes = (
{
closed = 1;
nodes = (
(206,499,l),
(156,510,l),
(18,483,l),
(23,448,l),
(94,451,l),
(99,347,l),
(101,155,l),
(96,50,l),
(30,30,l),
(28,-5,l),
(150,0,l),
(268,-5,l),
(273,30,l),
(200,50,l),
(196,166,l),
(193,263,l),
(199,363,l)
);
},
{
closed = 1;
nodes = (
(104,583,l),
(140,566,l),
(222,671,l),
(264,717,l),
(254,740,l),
(184,757,l)
);
}
);
};
layerId = "E5E5D42B-30DE-4833-8EB6-3A8EE8AFE06C";
shapes = (
{
ref = idotless;
},
{
pos = (92,0);
ref = acutecomb;
}
);
width = 290;
}
);
unicode = 237;
},
{
glyphname = icircumflex;
kernLeft = _KERN_i;
kernRight = _KERN_i;
lastChange = "2023-11-01 12:18:25 +0000";
layers = (
{
associatedMasterId = "E5E5D42B-30DE-4833-8EB6-3A8EE8AFE06C";
layerId = "87ED26C6-198F-4E2A-A721-CDA726DB5344";
name = img;
width = 290;
},
{
background = {
anchors = (
{
name = bottom;
pos = (145,0);
},
{
name = ogonek;
pos = (273,0);
},
{
name = top;
pos = (142,505);
}
);
shapes = (
{
closed = 1;
nodes = (
(206,499,l),
(156,510,l),
(18,483,l),
(23,448,l),
(94,451,l),
(99,347,l),
(101,155,l),
(96,50,l),
(30,30,l),
(28,-5,l),
(150,0,l),
(268,-5,l),
(273,30,l),
(200,50,l),
(196,166,l),
(193,263,l),
(199,363,l)
);
},
{
closed = 1;
nodes = (
(269,588,l),
(215,673,l),
(176,753,l),
(115,753,l),
(70,667,l),
(12,579,l),
(22,564,l),
(61,556,l),
(106,619,l),
(147,684,l),
(175,619,l),
(213,559,l),
(255,571,l)
);
}
);
};
layerId = "E5E5D42B-30DE-4833-8EB6-3A8EE8AFE06C";
shapes = (
{
ref = idotless;
},
{
pos = (14,0);
ref = circumflexcomb;
}
);
width = 290;
}
);
unicode = 238;
},
{
glyphname = idieresis;
kernLeft = _KERN_i;
kernRight = _KERN_i;
lastChange = "2023-11-01 12:18:25 +0000";
layers = (
{
associatedMasterId = "E5E5D42B-30DE-4833-8EB6-3A8EE8AFE06C";
layerId = "87ED26C6-198F-4E2A-A721-CDA726DB5344";
name = img;
width = 290;
},
{
background = {
anchors = (
{
name = bottom;
pos = (145,0);
},
{
name = ogonek;
pos = (273,0);
},
{
name = top;
pos = (142,505);
}
);
shapes = (
{
closed = 1;
nodes = (
(206,499,l),
(156,510,l),
(18,483,l),
(23,448,l),
(94,451,l),
(99,347,l),
(101,155,l),
(96,50,l),
(30,30,l),
(28,-5,l),
(150,0,l),
(268,-5,l),
(273,30,l),
(200,50,l),
(196,166,l),
(193,263,l),
(199,363,l)
);
},
{
closed = 1;
nodes = (
(-8,654,l),
(12,611,l),
(55,585,l),
(100,603,l),
(127,645,l),
(106,697,l),
(59,712,l),
(15,691,l)
);
},
{
closed = 1;
nodes = (
(157,654,l),
(178,611,l),
(220,585,l),
(265,603,l),
(292,645,l),
(271,697,l),
(225,712,l),
(180,691,l)
);
}
);
};
layerId = "E5E5D42B-30DE-4833-8EB6-3A8EE8AFE06C";
shapes = (
{
ref = idotless;
},
{
pos = (-15,0);
ref = dieresiscomb;
}
);
width = 290;
}
);
unicode = 239;
},
{
glyphname = igrave;
kernLeft = _KERN_i;
kernRight = _KERN_i;
lastChange = "2023-11-01 12:18:25 +0000";
layers = (
{
associatedMasterId = "E5E5D42B-30DE-4833-8EB6-3A8EE8AFE06C";
layerId = "87ED26C6-198F-4E2A-A721-CDA726DB5344";
name = img;
width = 290;
},
{
background = {
anchors = (
{
name = bottom;
pos = (145,0);
},
{
name = ogonek;
pos = (273,0);
},
{
name = top;
pos = (142,505);
}
);
shapes = (
{
closed = 1;
nodes = (
(206,499,l),
(156,510,l),
(18,483,l),
(23,448,l),
(94,451,l),
(99,347,l),
(101,155,l),
(96,50,l),
(30,30,l),
(28,-5,l),
(150,0,l),
(268,-5,l),
(273,30,l),
(200,50,l),
(196,166,l),
(193,263,l),
(199,363,l)
);
},
{
closed = 1;
nodes = (
(115,757,l),
(45,740,l),
(35,717,l),
(77,671,l),
(159,566,l),
(195,583,l)
);
}
);
};
layerId = "E5E5D42B-30DE-4833-8EB6-3A8EE8AFE06C";
shapes = (
{
ref = idotless;
},
{
pos = (33,0);
ref = gravecomb;
}
);
width = 290;
}
);
unicode = 236;
},
{
glyphname = imacron;
lastChange = "2023-11-01 12:18:25 +0000";
layers = (
{
background = {
anchors = (
{
name = bottom;
pos = (145,0);
},
{
name = ogonek;
pos = (273,0);
},
{
name = top;
pos = (142,639);
}
);
shapes = (
{
closed = 1;
nodes = (
(206,499,l),
(156,510,l),
(18,483,l),
(23,448,l),
(94,451,l),
(99,347,l),
(101,155,l),
(96,50,l),
(30,30,l),
(28,-5,l),
(150,0,l),
(268,-5,l),
(273,30,l),
(200,50,l),
(196,166,l),
(193,263,l),
(199,363,l)
);
},
{
closed = 1;
nodes = (
(300,615,l),
(309,679,l),
(228,669,l),
(-9,661,l),
(-18,597,l),
(64,608,l)
);
}
);
};
layerId = "E5E5D42B-30DE-4833-8EB6-3A8EE8AFE06C";
shapes = (
{
ref = idotless;
},
{
pos = (-123,0);
ref = macroncomb;
}
);
width = 290;
}
);
unicode = 299;
},
{
glyphname = ij;
lastChange = "2023-11-01 12:19:02 +0000";
layers = (
{
background = {
anchors = (
{
name = bottom;
pos = (145,0);
}
);
shapes = (
{
closed = 1;
nodes = (
(62,669,l),
(83,624,l),
(127,597,l),
(174,616,l),
(202,660,l),
(180,714,l),
(132,730,l),
(86,708,l)
);
},
{
closed = 1;
nodes = (
(206,499,l),
(156,510,l),
(18,483,l),
(23,448,l),
(94,451,l),
(99,347,l),
(101,155,l),
(96,50,l),
(30,30,l),
(28,-5,l),
(150,0,l),
(268,-5,l),
(273,30,l),
(200,50,l),
(196,166,l),
(193,263,l),
(199,363,l)
);
},
{
closed = 1;
nodes = (
(475,263,l),
(479,363,l),
(486,499,l),
(436,510,l),
(298,483,l),
(303,448,l),
(372,451,l),
(381,347,l),
(381,155,l),
(380,0,l),
(368,-94,l),
(326,-157,l),
(266,-203,l),
(285,-243,l),
(378,-184,l),
(455,-104,l),
(478,0,l)
);
},
{
closed = 1;
nodes = (
(342,669,l),
(363,624,l),
(407,597,l),
(454,616,l),
(482,660,l),
(460,714,l),
(412,730,l),
(366,708,l)
);
}
);
};
layerId = "E5E5D42B-30DE-4833-8EB6-3A8EE8AFE06C";
shapes = (
{
ref = i;
},
{
pos = (290,0);
ref = j;
}
);
width = 551;
}
);
unicode = 307;
},
{
glyphname = j;
lastChange = "2023-11-01 10:35:51 +0000";
layers = (
{
associatedMasterId = "E5E5D42B-30DE-4833-8EB6-3A8EE8AFE06C";
layerId = "7A591EA4-4D9F-4E22-AD94-0C62A3908D71";
name = public.background;
shapes = (
{
closed = 1;
nodes = (
(52,641,o),
(79,601,o),
(113,601,cs),
(147,601,o),
(184,633,o),
(184,660,cs),
(184,687,o),
(159,728,o),
(123,728,cs),
(90,728,o),
(52,695,o),
(52,669,cs)
);
},
{
closed = 1;
nodes = (
(190,499,l),
(177,505,o),
(165,509,o),
(152,510,c),
(110,499,o),
(60,490,o),
(12,483,c),
(6,472,o),
(5,461,o),
(7,448,c),
(90,440,l),
(90,30,ls),
(90,-76,o),
(76,-145,o),
(-24,-203,c),
(-25,-220,o),
(-17,-237,o),
(-5,-246,c),
(115,-181,o),
(190,-97,o),
(190,34,c)
);
}
);
width = 261;
},
{
background = {
shapes = (
{
closed = 1;
nodes = (
(185,263,l),
(189,363,l),
(196,499,l),
(146,510,l),
(8,483,l),
(13,448,l),
(82,451,l),
(91,347,l),
(91,155,l),
(90,0,l),
(78,-94,l),
(36,-157,l),
(-24,-203,l),
(-5,-243,l),
(88,-184,l),
(165,-104,l),
(188,0,l)
);
},
{
closed = 1;
nodes = (
(52,669,l),
(73,624,l),
(117,597,l),
(164,616,l),
(192,660,l),
(170,714,l),
(122,730,l),
(76,708,l)
);
}
);
};
layerId = "E5E5D42B-30DE-4833-8EB6-3A8EE8AFE06C";
shapes = (
{
ref = jdotless;
},
{
pos = (7,33);
ref = dotaccentcomb;
}
);
width = 261;
}
);
unicode = 106;
},
{
glyphname = jdotless;
lastChange = "2023-11-01 10:35:51 +0000";
layers = (
{
background = {
shapes = (
{
closed = 1;
nodes = (
(185,263,l),
(189,363,l),
(196,499,l),
(146,510,l),
(8,483,l),
(13,448,l),
(82,451,l),
(91,347,l),
(91,155,l),
(90,0,l),
(78,-94,l),
(36,-157,l),
(-24,-203,l),
(-5,-243,l),
(88,-184,l),
(165,-104,l),
(188,0,l)
);
}
);
};
layerId = "E5E5D42B-30DE-4833-8EB6-3A8EE8AFE06C";
shapes = (
{
closed = 1;
nodes = (
(185,263,l),
(189,363,l),
(196,499,l),
(146,510,l),
(8,483,l),
(13,448,l),
(82,451,l),
(91,347,l),
(91,155,l),
(90,0,l),
(78,-94,l),
(36,-157,l),
(-24,-203,l),
(-5,-243,l),
(88,-184,l),
(165,-104,l),
(188,0,l)
);
}
);
width = 261;
}
);
unicode = 567;
},
{
glyphname = k;
kernLeft = l;
lastChange = "2023-11-01 10:35:51 +0000";
layers = (
{
associatedMasterId = "E5E5D42B-30DE-4833-8EB6-3A8EE8AFE06C";
layerId = "7A591EA4-4D9F-4E22-AD94-0C62A3908D71";
name = public.background;
shapes = (
{
closed = 1;
nodes = (
(187,745,l),
(174,751,o),
(162,755,o),
(149,756,c),
(107,745,o),
(57,736,o),
(9,729,c),
(5,721,o),
(3,713,o),
(3,705,cs),
(3,702,o),
(3,698,o),
(4,694,c),
(87,686,l),
(87,50,l),
(68,41,o),
(42,36,o),
(17,30,c),
(15,23,o),
(14,16,o),
(14,9,cs),
(14,5,o),
(14,0,o),
(15,-5,c),
(52,-3,o),
(99,0,o),
(137,0,cs),
(174,0,o),
(213,-3,o),
(249,-5,c),
(253,3,o),
(255,11,o),
(255,19,cs),
(255,23,o),
(254,26,o),
(254,30,c),
(187,50,l),
(187,237,l),
(233,237,l),
(376,33,l),
(327,30,l),
(325,23,o),
(324,16,o),
(324,9,cs),
(324,5,o),
(324,0,o),
(325,-5,c),
(357,-2,o),
(387,-1,o),
(416,-1,cs),
(457,-1,o),
(496,-3,o),
(535,-5,c),
(539,3,o),
(541,11,o),
(541,19,cs),
(541,23,o),
(540,26,o),
(540,30,c),
(515,32,o),
(485,39,o),
(473,50,c),
(288,299,l),
(424,445,l),
(444,460,o),
(477,468,o),
(499,470,c),
(501,477,o),
(502,484,o),
(502,490,cs),
(502,495,o),
(502,500,o),
(501,505,c),
(464,503,o),
(445,500,o),
(407,500,cs),
(370,500,o),
(341,503,o),
(305,505,c),
(301,497,o),
(299,489,o),
(299,481,cs),
(299,477,o),
(299,474,o),
(300,470,c),
(373,455,l),
(213,277,l),
(187,277,l)
);
}
);
width = 537;
},
{
anchors = (
{
name = bottom;
pos = (269,0);
},
{
name = top;
pos = (269,984);
}
);
background = {
anchors = (
{
name = bottom;
pos = (269,0);
},
{
name = top;
pos = (269,984);
}
);
shapes = (
{
closed = 1;
nodes = (
(214,276,l),
(183,276,l),
(189,613,l),
(196,745,l),
(146,756,l),
(8,729,l),
(13,694,l),
(84,697,l),
(89,597,l),
(93,374,l),
(89,155,l),
(86,47,l),
(16,30,l),
(12,-5,l),
(140,0,l),
(251,-5,l),
(257,30,l),
(188,50,l),
(186,166,l),
(184,237,l),
(233,237,l),
(349,83,l),
(376,33,l),
(328,30,l),
(326,-5,l),
(421,0,l),
(525,-5,l),
(530,30,l),
(471,50,l),
(368,177,l),
(285,294,l),
(428,448,l),
(498,470,l),
(500,505,l),
(408,500,l),
(303,505,l),
(298,470,l),
(365,459,l),
(319,392,l)
);
}
);
};
guides = (
{
pos = (0,50);
},
{
pos = (0,30);
},
{
pos = (0,-5);
}
);
layerId = "E5E5D42B-30DE-4833-8EB6-3A8EE8AFE06C";
shapes = (
{
closed = 1;
nodes = (
(214,276,l),
(183,276,l),
(189,613,l),
(196,745,l),
(146,756,l),
(8,729,l),
(13,694,l),
(84,697,l),
(89,597,l),
(93,374,l),
(89,155,l),
(86,47,l),
(16,30,l),
(12,-5,l),
(140,0,l),
(251,-5,l),
(257,30,l),
(188,50,l),
(186,166,l),
(184,237,l),
(233,237,l),
(349,83,l),
(376,33,l),
(328,30,l),
(326,-5,l),
(421,0,l),
(525,-5,l),
(530,30,l),
(471,50,l),
(368,177,l),
(285,294,l),
(428,448,l),
(498,470,l),
(500,505,l),
(408,500,l),
(303,505,l),
(298,470,l),
(365,459,l),
(319,392,l)
);
}
);
width = 537;
}
);
unicode = 107;
},
{
glyphname = l;
kernLeft = l;
lastChange = "2023-11-01 10:35:51 +0000";
layers = (
{
associatedMasterId = "E5E5D42B-30DE-4833-8EB6-3A8EE8AFE06C";
layerId = "7A591EA4-4D9F-4E22-AD94-0C62A3908D71";
name = public.background;
shapes = (
{
closed = 1;
nodes = (
(189,745,l),
(176,751,o),
(164,755,o),
(151,756,c),
(109,745,o),
(59,736,o),
(11,729,c),
(5,718,o),
(4,707,o),
(6,694,c),
(89,686,l),
(89,50,l),
(70,41,o),
(44,36,o),
(19,30,c),
(15,18,o),
(15,7,o),
(17,-5,c),
(54,-3,o),
(101,0,o),
(139,0,cs),
(176,0,o),
(225,-3,o),
(261,-5,c),
(267,7,o),
(268,18,o),
(266,30,c),
(189,50,l)
);
}
);
width = 279;
},
{
anchors = (
{
name = bottom;
pos = (140,0);
},
{
name = center;
pos = (140,984);
},
{
name = top;
pos = (140,764);
},
{
name = topright;
pos = (345,764);
}
);
background = {
anchors = (
{
name = bottom;
pos = (140,0);
},
{
name = center;
pos = (140,984);
},
{
name = top;
pos = (140,764);
},
{
name = topright;
pos = (259,764);
}
);
shapes = (
{
closed = 1;
nodes = (
(196,745,l),
(146,756,l),
(8,729,l),
(13,694,l),
(84,697,l),
(89,597,l),
(95,374,l),
(91,155,l),
(86,50,l),
(20,30,l),
(18,-5,l),
(140,0,l),
(262,-5,l),
(267,30,l),
(194,50,l),
(186,166,l),
(183,263,l),
(189,613,l)
);
}
);
};
guides = (
{
pos = (0,45);
}
);
layerId = "E5E5D42B-30DE-4833-8EB6-3A8EE8AFE06C";
shapes = (
{
closed = 1;
nodes = (
(140,0,l),
(262,-5,l),
(267,30,l),
(194,50,l),
(186,166,l),
(183,263,l),
(189,613,l),
(196,745,l),
(146,756,l),
(8,729,l),
(13,694,l),
(84,697,l),
(89,597,l),
(95,374,l),
(91,155,l),
(86,50,l),
(20,30,l),
(18,-5,l)
);
}
);
width = 279;
}
);
unicode = 108;
},
{
glyphname = lacute;
kernLeft = l;
lastChange = "2023-11-01 10:35:51 +0000";
layers = (
{
background = {
anchors = (
{
name = bottom;
pos = (140,0);
},
{
name = center;
pos = (140,984);
},
{
name = top;
pos = (140,764);
},
{
name = topright;
pos = (259,764);
}
);
shapes = (
{
closed = 1;
nodes = (
(196,745,l),
(146,756,l),
(8,729,l),
(13,694,l),
(84,697,l),
(89,597,l),
(95,374,l),
(91,155,l),
(86,50,l),
(20,30,l),
(18,-5,l),
(140,0,l),
(262,-5,l),
(267,30,l),
(194,50,l),
(186,166,l),
(183,263,l),
(189,613,l)
);
},
{
closed = 1;
nodes = (
(84,832,l),
(114,804,l),
(225,876,l),
(280,905,l),
(279,931,l),
(217,970,l)
);
}
);
};
layerId = "E5E5D42B-30DE-4833-8EB6-3A8EE8AFE06C";
shapes = (
{
ref = l;
},
{
pos = (56,8);
ref = acutecomb.case;
}
);
width = 279;
}
);
unicode = 314;
},
{
glyphname = lcaron;
kernLeft = l;
kernRight = dcaron;
lastChange = "2023-11-01 10:35:51 +0000";
layers = (
{
background = {
anchors = (
{
name = bottom;
pos = (140,0);
},
{
name = center;
pos = (140,984);
},
{
name = top;
pos = (140,764);
},
{
name = topright;
pos = (259,764);
}
);
shapes = (
{
closed = 1;
nodes = (
(196,745,l),
(146,756,l),
(8,729,l),
(13,694,l),
(84,697,l),
(89,597,l),
(95,374,l),
(91,155,l),
(86,50,l),
(20,30,l),
(18,-5,l),
(140,0,l),
(262,-5,l),
(267,30,l),
(194,50,l),
(186,166,l),
(183,263,l),
(189,613,l)
);
},
{
closed = 1;
nodes = (
(19,990,l),
(76,895,l),
(115,815,l),
(176,820,l),
(221,901,l),
(270,990,l),
(260,1005,l),
(221,1013,l),
(185,949,l),
(150,877,l),
(118,949,l),
(80,1019,l),
(33,1007,l)
);
}
);
};
layerId = "E5E5D42B-30DE-4833-8EB6-3A8EE8AFE06C";
shapes = (
{
ref = l;
},
{
pos = (214,58);
ref = caroncomb.alt;
}
);
width = 279;
}
);
unicode = 318;
},
